<?xml version="1.0" encoding="UTF-8" standalone="no"?>
<svg
   xmlns:dc="http://purl.org/dc/elements/1.1/"
   xmlns:cc="http://creativecommons.org/ns#"
   xmlns:rdf="http://www.w3.org/1999/02/22-rdf-syntax-ns#"
   xmlns:svg="http://www.w3.org/2000/svg"
   xmlns="http://www.w3.org/2000/svg"
   xmlns:sodipodi="http://sodipodi.sourceforge.net/DTD/sodipodi-0.dtd"
   xmlns:inkscape="http://www.inkscape.org/namespaces/inkscape"
   id="svg319"
   version="1.1"
   viewBox="0 0 35.960018 12.811337"
   height="12.811337mm"
   width="35.960018mm"
   sodipodi:docname="flow-logo-white-orange.svg"
   inkscape:version="0.92.3 (2405546, 2018-03-11)">
  <sodipodi:namedview
     pagecolor="#ffffff"
     bordercolor="#666666"
     borderopacity="1"
     objecttolerance="10"
     gridtolerance="10"
     guidetolerance="10"
     inkscape:pageopacity="0"
     inkscape:pageshadow="2"
     inkscape:window-width="2560"
     inkscape:window-height="1361"
     id="namedview9"
     showgrid="false"
     inkscape:zoom="2.4942632"
     inkscape:cx="-130.69992"
     inkscape:cy="24.210402"
     inkscape:window-x="-9"
     inkscape:window-y="-9"
     inkscape:window-maximized="1"
     inkscape:current-layer="svg319" />
  <defs
     id="defs313" />
  <metadata
     id="metadata316">
    <rdf:RDF>
      <cc:Work
         rdf:about="">
        <dc:format>image/svg+xml</dc:format>
        <dc:type
           rdf:resource="http://purl.org/dc/dcmitype/StillImage" />
        <dc:title />
      </cc:Work>
    </rdf:RDF>
  </metadata>
  <g
     transform="translate(-85.585469,-87.243142)"
     id="layer1">
    <g
       transform="matrix(0.35277777,0,0,-0.35277777,121.54055,87.683056)"
       id="g208">
      <path
         id="path210"
         style="fill:#f58025;fill-opacity:1;fill-rule:nonzero;stroke:none"
         d="m 0,0 -7.024,-33.975 c -0.07,-0.312 -0.259,-0.467 -0.572,-0.467 h -1.925 c -0.278,0 -0.45,0.155 -0.52,0.467 l -4.059,19.874 c -0.173,0.937 -0.318,1.673 -0.44,2.211 -0.122,0.538 -0.228,1.041 -0.312,1.51 -0.087,0.468 -0.175,0.962 -0.263,1.482 -0.086,0.519 -0.198,1.214 -0.335,2.081 -0.177,-1.248 -0.374,-2.48 -0.601,-3.693 -0.224,-1.216 -0.474,-2.481 -0.753,-3.798 -0.659,-3.26 -1.337,-6.538 -2.029,-9.834 -0.694,-3.295 -1.37,-6.572 -2.029,-9.833 -0.07,-0.312 -0.243,-0.467 -0.521,-0.467 h -1.873 c -0.312,0 -0.504,0.155 -0.57,0.467 L -30.799,0 c -0.07,0.449 0.121,0.677 0.572,0.677 h 2.237 c 0.277,0 0.451,-0.157 0.519,-0.469 l 3.645,-18.158 c 0.31,-1.528 0.588,-3.009 0.832,-4.449 0.24,-1.44 0.482,-2.906 0.726,-4.396 0.174,1.214 0.373,2.419 0.599,3.616 0.226,1.197 0.46,2.401 0.703,3.617 0.068,0.277 0.13,0.552 0.181,0.833 0.052,0.275 0.113,0.571 0.183,0.882 l 3.59,18.055 c 0.071,0.312 0.26,0.469 0.573,0.469 h 1.976 c 0.311,0 0.502,-0.157 0.571,-0.469 l 3.695,-17.585 c 0.033,-0.174 0.07,-0.321 0.103,-0.443 0.035,-0.122 0.072,-0.27 0.106,-0.444 0.172,-0.934 0.329,-1.681 0.467,-2.236 0.138,-0.555 0.261,-1.093 0.365,-1.612 0.103,-0.521 0.209,-1.118 0.312,-1.795 0.104,-0.675 0.24,-1.586 0.415,-2.732 0.243,1.666 0.504,3.226 0.781,4.683 0.278,1.456 0.554,2.894 0.832,4.317 0.589,2.914 1.179,5.889 1.771,8.922 0.589,3.036 1.178,6.01 1.769,8.925 0.067,0.312 0.241,0.469 0.519,0.469 H -0.57 C -0.123,0.677 0.07,0.449 0,0 m -48.507,-16.806 c 0,0.964 -0.33,1.765 -0.989,2.4 -0.126,0.121 -0.263,0.22 -0.4,0.319 -0.574,0.415 -1.224,0.634 -1.961,0.634 -0.84,0 -1.545,-0.256 -2.133,-0.735 1.308,-1.822 2.642,-3.618 4.01,-5.381 0.169,0.116 0.33,0.249 0.484,0.401 0.659,0.66 0.989,1.449 0.989,2.362 m 9.778,-13.267 c -0.437,-0.42 -0.898,-0.81 -1.378,-1.179 -1.49,1.619 -2.952,3.266 -4.385,4.942 0.35,0.289 0.69,0.593 0.998,0.928 0.971,1.053 1.717,2.305 2.236,3.757 0.522,1.45 0.781,3.023 0.781,4.714 0,1.498 -0.242,2.949 -0.727,4.354 -0.485,1.404 -1.207,2.65 -2.158,3.734 -0.163,0.184 -0.34,0.353 -0.517,0.524 -0.855,0.84 -1.855,1.54 -3.022,2.084 -1.406,0.653 -3.01,0.98 -4.813,0.98 -1.838,0 -3.46,-0.319 -4.862,-0.956 -0.754,-0.342 -1.436,-0.752 -2.061,-1.222 -0.062,0.099 -0.129,0.194 -0.193,0.292 -1.152,1.769 -2.324,3.518 -3.506,5.256 1.027,0.688 2.135,1.28 3.343,1.76 2.27,0.902 4.742,1.352 7.412,1.352 2.774,0 5.281,-0.45 7.518,-1.352 1.473,-0.594 2.788,-1.349 3.975,-2.235 0.616,-0.459 1.208,-0.946 1.748,-1.486 1.579,-1.579 2.792,-3.459 3.643,-5.645 0.848,-2.183 1.274,-4.543 1.274,-7.075 0,-2.845 -0.469,-5.41 -1.405,-7.7 -0.936,-2.289 -2.235,-4.232 -3.901,-5.827"
         inkscape:connector-curvature="0" />
    </g>
    <path
       id="path214"
       style="fill:#ffffff;fill-opacity:1;fill-rule:nonzero;stroke:none;stroke-width:0.35277775"
       d="m 89.715439,93.024676 h -2.97321 v -4.51485 h 2.84445 c 0.12241,0 0.18344,-0.06174 0.18344,-0.183797 v -0.679097 c 0,-0.134761 -0.061,-0.202495 -0.18344,-0.202495 h -3.81741 c -0.12242,0 -0.1838,0.06773 -0.1838,0.202495 v 11.98492 c 0,0.135114 0.0614,0.201789 0.1838,0.201789 h 0.77117 c 0.13441,0 0.20179,-0.06668 0.20179,-0.201789 v -5.542845 h 2.97321 c 0.12206,0 0.1838,-0.06738 0.1838,-0.201789 V 93.20812 c 0,-0.122061 -0.0617,-0.183444 -0.1838,-0.183444 m 6.0198,4.18465 h -0.71579 c -0.1344,0 -0.20179,0.06138 -0.20179,0.182387 v 1.395941 h -2.44122 V 87.646932 c 0,-0.134761 -0.0667,-0.202495 -0.20179,-0.202495 h -0.75247 c -0.13511,0 -0.20179,0.06773 -0.20179,0.202495 v 11.98492 c 0,0.135114 0.0667,0.201789 0.20179,0.201789 h 4.31306 c 0.13441,0 0.20285,-0.06668 0.20285,-0.201789 v -2.240139 c 0,-0.121003 -0.0684,-0.182387 -0.20285,-0.182387 m 9.204681,0.305859 c -0.49601,0.214136 -1.05587,0.320675 -1.67958,0.320675 -0.61171,0 -1.16311,-0.106539 -1.6517,-0.320675 -0.48931,-0.213783 -0.90206,-0.505884 -1.23966,-0.878064 -0.0335,-0.03739 -0.0639,-0.07902 -0.097,-0.118533 -0.288221,-0.344664 -0.517521,-0.736601 -0.682271,-1.181101 -0.18309,-0.4953 -0.27552,-1.024467 -0.27552,-1.587147 0,-0.573617 0.0857,-1.116895 0.25753,-1.629128 0.17074,-0.512233 0.42545,-0.959203 0.761651,-1.341967 0.15628,-0.178152 0.33125,-0.337255 0.5214,-0.481188 -0.0219,-0.03457 -0.0455,-0.06844 -0.0681,-0.103012 -0.40675,-0.624063 -0.819851,-1.241072 -1.236831,-1.853847 -0.31892,0.214842 -0.6156,0.455789 -0.88548,0.727781 -0.57538,0.58173 -1.02517,1.272822 -1.34902,2.07398 -0.3242,0.801159 -0.48718,1.685573 -0.48718,2.652889 0,0.892881 0.1531,1.721556 0.45966,2.486378 0.30516,0.764823 0.73696,1.425576 1.29399,1.982259 0.002,0.0025 0.005,0.0039 0.007,0.0067 0.55528,0.553156 1.22203,0.989189 2.002721,1.305631 0.78317,0.318205 1.65171,0.477664 2.60632,0.477664 0.92993,0 1.79529,-0.153814 2.59645,-0.459673 0.59125,-0.225425 1.12254,-0.521405 1.59702,-0.886883 -0.52532,-0.571145 -1.04109,-1.151817 -1.54662,-1.743426 -0.26705,0.21978 -0.56726,0.404989 -0.90487,0.550686 m -2.44581,-4.827059 c 0.46143,0.642761 0.93204,1.27635 1.41429,1.89865 -0.19438,0.137231 -0.41487,0.207786 -0.66217,0.207786 -0.34078,0 -0.62265,-0.116769 -0.84666,-0.349603 -0.0123,-0.01376 -0.0212,-0.02893 -0.0342,-0.04233 -0.19862,-0.224366 -0.30198,-0.487186 -0.30198,-0.790927 0,-0.340078 0.11218,-0.622653 0.33619,-0.846314 0.0293,-0.02928 0.0628,-0.05186 0.0945,-0.07726" />
  </g>
</svg>
