<?xml version="1.0" encoding="UTF-8" standalone="no"?>
<svg
   xmlns:dc="http://purl.org/dc/elements/1.1/"
   xmlns:cc="http://creativecommons.org/ns#"
   xmlns:rdf="http://www.w3.org/1999/02/22-rdf-syntax-ns#"
   xmlns:svg="http://www.w3.org/2000/svg"
   xmlns="http://www.w3.org/2000/svg"
   viewBox="0 0 240 120"
   height="120"
   width="240"
   xml:space="preserve"
   id="svg2"
   version="1.1"><metadata
     id="metadata8"><rdf:RDF><cc:Work
         rdf:about=""><dc:format>image/svg+xml</dc:format><dc:type
           rdf:resource="http://purl.org/dc/dcmitype/StillImage" /><dc:title></dc:title></cc:Work></rdf:RDF></metadata><defs
     id="defs6"><clipPath
       id="clipPath18"
       clipPathUnits="userSpaceOnUse"><path
         id="path16"
         d="M 0,90 H 180 V 0 H 0 Z" /></clipPath></defs><g
     transform="matrix(1.3333333,0,0,-1.3333333,0,120)"
     id="g10"><g
       id="g12"><g
         clip-path="url(#clipPath18)"
         id="g14"><g
           transform="translate(159.3564,15.2129)"
           id="g20"><path
             id="path22"
             style="fill:#533019;fill-opacity:1;fill-rule:nonzero;stroke:none"
             d="m 0,0 h -1.804 v -3.899 c 0,-0.373 0.071,-0.687 0.209,-0.941 0.141,-0.254 0.396,-0.382 0.769,-0.382 0.186,0 0.343,0.013 0.471,0.034 0.126,0.02 0.237,0.047 0.331,0.083 l 0.075,-0.483 c -0.111,-0.043 -0.244,-0.082 -0.399,-0.116 -0.157,-0.032 -0.34,-0.05 -0.542,-0.05 -0.499,0 -0.875,0.151 -1.13,0.457 -0.151,0.168 -0.258,0.385 -0.318,0.648 -0.058,0.263 -0.09,0.538 -0.09,0.825 V 0 H -2.883 -3.67 l 0.126,0.495 h 1.116 V 1.65 l 0.624,0.192 V 0.495 h 1.931 z m -4.891,0.064 h -0.176 c -0.433,0 -0.8,-0.162 -1.099,-0.483 -0.303,-0.323 -0.503,-0.751 -0.604,-1.282 -0.043,-0.195 -0.064,-0.395 -0.064,-0.598 v -3.304 h -0.623 v 4.129 c 0,0.331 -0.003,0.66 -0.012,0.986 -0.009,0.325 -0.021,0.654 -0.039,0.983 h 0.571 l 0.027,-1.321 h 0.039 c 0.151,0.432 0.387,0.785 0.705,1.061 0.316,0.276 0.704,0.413 1.161,0.413 0.103,0 0.199,-0.013 0.292,-0.038 V 0.039 c -0.058,0.017 -0.119,0.025 -0.178,0.025 m -5.01,-1.677 c -0.097,0.313 -0.252,0.599 -0.465,0.857 -0.211,0.259 -0.478,0.473 -0.8,0.641 -0.321,0.171 -0.708,0.256 -1.156,0.256 -0.433,0 -0.811,-0.075 -1.138,-0.223 -0.325,-0.148 -0.596,-0.35 -0.811,-0.604 -0.217,-0.253 -0.38,-0.543 -0.491,-0.871 -0.109,-0.326 -0.164,-0.667 -0.164,-1.021 0,-0.425 0.072,-0.802 0.217,-1.131 0.142,-0.33 0.332,-0.609 0.563,-0.839 0.235,-0.229 0.503,-0.401 0.808,-0.52 0.306,-0.12 0.622,-0.178 0.952,-0.178 0.34,0 0.666,0.058 0.987,0.178 0.316,0.119 0.595,0.295 0.836,0.527 0.241,0.232 0.436,0.519 0.584,0.857 0.149,0.338 0.223,0.729 0.223,1.168 0,0.289 -0.049,0.588 -0.145,0.903 m 0.481,-2.344 c -0.197,-0.41 -0.457,-0.75 -0.773,-1.017 -0.319,-0.266 -0.67,-0.464 -1.055,-0.59 -0.387,-0.125 -0.765,-0.19 -1.138,-0.19 -0.457,0 -0.879,0.078 -1.263,0.234 -0.385,0.157 -0.717,0.375 -0.997,0.655 -0.28,0.279 -0.498,0.612 -0.654,0.998 -0.158,0.385 -0.235,0.801 -0.235,1.251 0,0.509 0.088,0.963 0.264,1.364 0.18,0.403 0.417,0.746 0.712,1.031 0.298,0.282 0.641,0.499 1.031,0.647 0.388,0.148 0.797,0.222 1.218,0.222 0.493,0 0.933,-0.081 1.329,-0.241 0.394,-0.162 0.728,-0.384 1.002,-0.667 0.276,-0.284 0.489,-0.616 0.636,-0.998 0.148,-0.379 0.224,-0.787 0.224,-1.219 0,-0.575 -0.101,-1.07 -0.301,-1.48 m -7.995,2.496 c -0.11,0.315 -0.273,0.588 -0.483,0.826 -0.212,0.238 -0.467,0.426 -0.768,0.565 -0.301,0.14 -0.642,0.211 -1.023,0.211 -0.255,0 -0.501,-0.037 -0.744,-0.11 -0.241,-0.072 -0.463,-0.177 -0.668,-0.316 -0.202,-0.139 -0.384,-0.314 -0.545,-0.523 -0.16,-0.206 -0.283,-0.45 -0.367,-0.727 -0.026,-0.088 -0.051,-0.175 -0.078,-0.268 -0.024,-0.093 -0.038,-0.182 -0.038,-0.267 v -1.08 c 0,-0.152 0.021,-0.315 0.065,-0.483 0.058,-0.221 0.16,-0.428 0.304,-0.623 0.144,-0.193 0.315,-0.364 0.515,-0.508 0.199,-0.144 0.422,-0.259 0.672,-0.348 0.251,-0.09 0.52,-0.134 0.808,-0.134 0.389,0 0.739,0.066 1.048,0.197 0.309,0.131 0.571,0.317 0.787,0.558 0.215,0.241 0.383,0.536 0.501,0.884 0.119,0.345 0.178,0.732 0.178,1.156 0,0.346 -0.055,0.678 -0.164,0.99 m 0.54,-2.387 c -0.165,-0.416 -0.391,-0.763 -0.673,-1.043 -0.285,-0.279 -0.612,-0.493 -0.986,-0.64 -0.373,-0.149 -0.765,-0.223 -1.18,-0.223 -0.483,0 -0.938,0.1 -1.367,0.298 -0.428,0.198 -0.769,0.515 -1.022,0.946 h -0.026 v -2.362 c 0,-0.169 -0.017,-0.337 -0.057,-0.501 -0.038,-0.166 -0.082,-0.315 -0.133,-0.452 -0.051,-0.136 -0.115,-0.284 -0.19,-0.445 l -0.624,0.127 c 0.009,0.018 0.042,0.08 0.102,0.191 0.06,0.11 0.123,0.266 0.19,0.471 0.069,0.202 0.104,0.405 0.104,0.609 v 1.371 1.436 c 0,0.466 -0.004,0.901 -0.007,1.302 -0.004,0.402 -0.007,0.714 -0.007,0.933 v 0.356 c 0,0.331 -0.006,0.66 -0.013,0.986 -0.008,0.325 -0.021,0.654 -0.039,0.983 h 0.598 l 0.052,-1.27 h 0.024 c 0.231,0.416 0.556,0.756 0.979,1.022 0.423,0.267 0.953,0.401 1.587,0.401 0.451,0 0.855,-0.082 1.213,-0.248 0.361,-0.165 0.668,-0.386 0.921,-0.666 0.255,-0.279 0.452,-0.607 0.593,-0.978 0.139,-0.373 0.207,-0.768 0.207,-1.184 0,-0.531 -0.081,-1.008 -0.246,-1.42 m -8.327,2.387 c -0.111,0.315 -0.273,0.588 -0.484,0.826 -0.21,0.238 -0.466,0.426 -0.767,0.565 -0.301,0.14 -0.644,0.211 -1.024,0.211 -0.252,0 -0.501,-0.037 -0.743,-0.11 -0.241,-0.072 -0.463,-0.177 -0.666,-0.316 -0.204,-0.139 -0.385,-0.314 -0.547,-0.523 -0.162,-0.206 -0.283,-0.45 -0.367,-0.727 -0.026,-0.088 -0.052,-0.175 -0.076,-0.268 -0.026,-0.093 -0.038,-0.182 -0.038,-0.267 v -1.08 c 0,-0.152 0.02,-0.315 0.062,-0.483 0.061,-0.221 0.161,-0.428 0.305,-0.623 0.144,-0.193 0.317,-0.364 0.515,-0.508 0.199,-0.144 0.424,-0.259 0.674,-0.348 0.249,-0.09 0.518,-0.134 0.806,-0.134 0.389,0 0.739,0.066 1.048,0.197 0.309,0.131 0.571,0.317 0.787,0.558 0.216,0.241 0.383,0.536 0.501,0.884 0.118,0.345 0.18,0.732 0.18,1.156 0,0.346 -0.057,0.678 -0.166,0.99 m 0.54,-2.387 c -0.165,-0.416 -0.391,-0.763 -0.673,-1.043 -0.285,-0.279 -0.614,-0.493 -0.984,-0.64 -0.373,-0.149 -0.769,-0.223 -1.182,-0.223 -0.483,0 -0.938,0.1 -1.366,0.298 -0.429,0.198 -0.768,0.515 -1.023,0.946 h -0.024 v -2.362 c 0,-0.169 -0.02,-0.337 -0.059,-0.501 -0.038,-0.166 -0.082,-0.315 -0.133,-0.452 -0.051,-0.136 -0.113,-0.284 -0.19,-0.445 l -0.624,0.127 c 0.009,0.018 0.044,0.08 0.104,0.191 0.058,0.11 0.121,0.266 0.19,0.471 0.068,0.202 0.102,0.405 0.102,0.609 v 1.371 1.436 c 0,0.466 -0.002,0.901 -0.007,1.302 -0.004,0.402 -0.007,0.714 -0.007,0.933 v 0.356 c 0,0.331 -0.004,0.66 -0.013,0.986 -0.007,0.325 -0.021,0.654 -0.037,0.983 h 0.596 l 0.052,-1.27 h 0.026 c 0.226,0.416 0.554,0.756 0.976,1.022 0.424,0.267 0.954,0.401 1.588,0.401 0.449,0 0.855,-0.082 1.213,-0.248 0.363,-0.165 0.668,-0.386 0.921,-0.666 0.255,-0.279 0.452,-0.607 0.591,-0.978 0.141,-0.373 0.211,-0.768 0.211,-1.184 0,-0.531 -0.083,-1.008 -0.248,-1.42 m -8.137,-1.881 c -0.094,0.297 -0.156,0.512 -0.19,0.649 -0.018,0.093 -0.033,0.196 -0.051,0.31 -0.018,0.116 -0.029,0.208 -0.038,0.279 -0.009,0.073 -0.013,0.112 -0.013,0.121 h -0.024 c -0.095,-0.169 -0.213,-0.337 -0.358,-0.501 -0.143,-0.166 -0.312,-0.315 -0.507,-0.445 -0.196,-0.131 -0.418,-0.239 -0.673,-0.317 -0.255,-0.082 -0.534,-0.121 -0.839,-0.121 -0.178,0 -0.396,0.025 -0.654,0.076 -0.258,0.051 -0.509,0.174 -0.755,0.369 -0.246,0.194 -0.456,0.477 -0.63,0.851 -0.172,0.372 -0.26,0.884 -0.26,1.536 v 3.417 h 0.622 v -3.288 c 0,-0.357 0.031,-0.684 0.095,-0.979 0.065,-0.296 0.169,-0.552 0.318,-0.761 0.148,-0.213 0.339,-0.379 0.571,-0.497 0.233,-0.118 0.519,-0.177 0.858,-0.177 0.466,0 0.881,0.127 1.245,0.38 0.363,0.254 0.627,0.558 0.787,0.915 0.042,0.093 0.079,0.201 0.109,0.324 0.029,0.122 0.044,0.251 0.044,0.387 v 3.696 h 0.622 v -4.624 c 0,-0.245 0.029,-0.496 0.083,-0.755 0.054,-0.259 0.13,-0.497 0.223,-0.719 z m -6.521,1.035 c -0.099,-0.216 -0.242,-0.402 -0.433,-0.558 -0.189,-0.157 -0.422,-0.279 -0.692,-0.369 -0.271,-0.088 -0.58,-0.133 -0.927,-0.133 -0.323,0 -0.629,0.039 -0.921,0.121 -0.292,0.078 -0.554,0.188 -0.782,0.324 l 0.228,0.532 c 0.189,-0.117 0.411,-0.225 0.673,-0.317 0.264,-0.094 0.549,-0.139 0.852,-0.139 0.534,0 0.923,0.118 1.17,0.354 0.245,0.238 0.368,0.514 0.368,0.828 0,0.354 -0.118,0.631 -0.358,0.832 -0.235,0.198 -0.595,0.373 -1.079,0.528 -1.1,0.353 -1.65,0.906 -1.65,1.65 0,0.211 0.042,0.418 0.126,0.622 0.087,0.202 0.213,0.386 0.382,0.546 0.169,0.162 0.38,0.287 0.629,0.382 0.25,0.093 0.538,0.139 0.87,0.139 0.296,0 0.571,-0.038 0.825,-0.115 0.255,-0.076 0.471,-0.172 0.648,-0.291 l -0.241,-0.508 c -0.101,0.067 -0.262,0.151 -0.483,0.247 -0.22,0.097 -0.508,0.146 -0.864,0.146 -0.422,0 -0.745,-0.107 -0.959,-0.324 -0.214,-0.215 -0.324,-0.473 -0.324,-0.769 0,-0.169 0.033,-0.317 0.096,-0.444 0.062,-0.125 0.156,-0.236 0.279,-0.33 0.123,-0.094 0.273,-0.178 0.445,-0.254 0.172,-0.076 0.375,-0.152 0.603,-0.23 0.559,-0.194 0.976,-0.425 1.251,-0.69 0.276,-0.268 0.413,-0.629 0.413,-1.088 0,-0.244 -0.049,-0.475 -0.145,-0.692 m -8.233,0 c -0.096,-0.216 -0.242,-0.402 -0.43,-0.558 -0.192,-0.157 -0.422,-0.279 -0.693,-0.369 -0.272,-0.088 -0.582,-0.133 -0.928,-0.133 -0.322,0 -0.627,0.039 -0.92,0.121 -0.292,0.078 -0.554,0.188 -0.782,0.324 l 0.228,0.532 c 0.187,-0.117 0.411,-0.225 0.675,-0.317 0.261,-0.094 0.545,-0.139 0.85,-0.139 0.534,0 0.923,0.118 1.169,0.354 0.246,0.238 0.367,0.514 0.367,0.828 0,0.354 -0.119,0.631 -0.354,0.832 -0.237,0.198 -0.598,0.373 -1.08,0.528 -1.102,0.353 -1.653,0.906 -1.653,1.65 0,0.211 0.043,0.418 0.127,0.622 0.086,0.202 0.213,0.386 0.382,0.546 0.17,0.162 0.379,0.287 0.629,0.382 0.25,0.093 0.54,0.139 0.87,0.139 0.295,0 0.572,-0.038 0.826,-0.115 0.253,-0.076 0.47,-0.172 0.649,-0.291 l -0.242,-0.508 c -0.101,0.067 -0.264,0.151 -0.484,0.247 -0.217,0.097 -0.507,0.146 -0.863,0.146 -0.424,0 -0.743,-0.107 -0.96,-0.324 -0.216,-0.215 -0.323,-0.473 -0.323,-0.769 0,-0.169 0.031,-0.317 0.095,-0.444 0.065,-0.125 0.158,-0.236 0.279,-0.33 0.123,-0.094 0.271,-0.178 0.445,-0.254 0.174,-0.076 0.374,-0.152 0.603,-0.23 0.56,-0.194 0.977,-0.425 1.252,-0.69 0.274,-0.268 0.413,-0.629 0.413,-1.088 0,-0.244 -0.05,-0.475 -0.147,-0.692 m -5.183,0 c -0.095,-0.216 -0.241,-0.402 -0.431,-0.558 -0.189,-0.157 -0.422,-0.279 -0.692,-0.369 -0.271,-0.088 -0.58,-0.133 -0.928,-0.133 -0.32,0 -0.628,0.039 -0.922,0.121 -0.291,0.078 -0.552,0.188 -0.78,0.324 l 0.228,0.532 c 0.187,-0.117 0.411,-0.225 0.674,-0.317 0.264,-0.094 0.546,-0.139 0.853,-0.139 0.532,0 0.922,0.118 1.167,0.354 0.246,0.238 0.369,0.514 0.369,0.828 0,0.354 -0.12,0.631 -0.356,0.832 -0.237,0.198 -0.597,0.373 -1.081,0.528 -1.1,0.353 -1.65,0.906 -1.65,1.65 0,0.211 0.042,0.418 0.127,0.622 0.084,0.202 0.211,0.386 0.381,0.546 0.169,0.162 0.38,0.287 0.63,0.382 0.249,0.093 0.539,0.139 0.87,0.139 0.295,0 0.571,-0.038 0.826,-0.115 0.253,-0.076 0.469,-0.172 0.646,-0.291 l -0.241,-0.508 c -0.101,0.067 -0.264,0.151 -0.483,0.247 -0.22,0.097 -0.508,0.146 -0.863,0.146 -0.425,0 -0.744,-0.107 -0.96,-0.324 -0.216,-0.215 -0.323,-0.473 -0.323,-0.769 0,-0.169 0.031,-0.317 0.095,-0.444 0.064,-0.125 0.156,-0.236 0.279,-0.33 0.123,-0.094 0.271,-0.178 0.445,-0.254 0.174,-0.076 0.375,-0.152 0.603,-0.23 0.559,-0.194 0.976,-0.425 1.251,-0.69 0.274,-0.268 0.413,-0.629 0.413,-1.088 0,-0.244 -0.049,-0.475 -0.147,-0.692 m -5.671,3.246 c -0.042,0.247 -0.137,0.487 -0.284,0.723 -0.15,0.239 -0.361,0.442 -0.637,0.61 -0.275,0.171 -0.64,0.256 -1.099,0.256 -0.388,0 -0.723,-0.073 -1.004,-0.217 -0.279,-0.144 -0.509,-0.324 -0.692,-0.539 -0.183,-0.217 -0.323,-0.454 -0.425,-0.713 -0.102,-0.258 -0.169,-0.502 -0.202,-0.731 h 4.408 c 0,0.163 -0.022,0.366 -0.065,0.611 m 0.712,-0.952 c 0,-0.051 -0.009,-0.103 -0.025,-0.153 h -5.069 c 0,-0.45 0.065,-0.839 0.197,-1.17 0.13,-0.328 0.313,-0.606 0.545,-0.83 0.234,-0.225 0.508,-0.392 0.82,-0.503 0.314,-0.11 0.651,-0.166 1.017,-0.166 0.271,0 0.508,0.015 0.712,0.04 l 0.051,-0.522 c -0.12,-0.017 -0.25,-0.028 -0.389,-0.037 -0.139,-0.009 -0.286,-0.013 -0.437,-0.013 -0.475,0 -0.904,0.076 -1.29,0.228 -0.386,0.153 -0.714,0.365 -0.985,0.635 -0.271,0.271 -0.48,0.593 -0.628,0.965 -0.149,0.374 -0.223,0.78 -0.223,1.22 0,0.517 0.079,0.981 0.236,1.397 0.156,0.415 0.37,0.767 0.642,1.055 0.27,0.287 0.591,0.51 0.964,0.666 0.372,0.158 0.776,0.236 1.207,0.236 0.569,0 1.024,-0.109 1.371,-0.324 0.347,-0.217 0.616,-0.476 0.808,-0.781 0.19,-0.306 0.317,-0.615 0.379,-0.935 0.065,-0.317 0.097,-0.577 0.097,-0.78 z m -7.546,-3.455 c -0.009,0.017 -0.039,0.082 -0.093,0.196 -0.057,0.114 -0.118,0.292 -0.185,0.534 -0.069,0.241 -0.102,0.502 -0.102,0.78 v 2.211 c 0,0.296 -0.035,0.581 -0.102,0.851 -0.068,0.271 -0.177,0.511 -0.331,0.719 -0.15,0.207 -0.351,0.372 -0.597,0.494 -0.245,0.123 -0.541,0.185 -0.889,0.185 -0.245,0 -0.479,-0.039 -0.698,-0.115 -0.222,-0.076 -0.418,-0.182 -0.598,-0.318 -0.178,-0.134 -0.336,-0.289 -0.47,-0.463 -0.134,-0.174 -0.237,-0.357 -0.303,-0.552 -0.027,-0.068 -0.049,-0.153 -0.071,-0.255 -0.021,-0.101 -0.031,-0.197 -0.031,-0.293 v -3.722 h -0.623 v 4.625 c 0,0.246 -0.005,0.492 -0.014,0.738 -0.008,0.244 -0.021,0.49 -0.037,0.735 h 0.584 l 0.051,-1.22 h 0.024 c 0.094,0.186 0.217,0.364 0.37,0.528 0.153,0.166 0.329,0.312 0.527,0.439 0.199,0.125 0.422,0.227 0.666,0.297 0.246,0.073 0.509,0.109 0.788,0.109 0.093,0 0.216,-0.011 0.369,-0.033 0.152,-0.019 0.317,-0.062 0.495,-0.125 0.178,-0.064 0.356,-0.158 0.533,-0.281 0.179,-0.122 0.339,-0.287 0.484,-0.494 0.143,-0.209 0.262,-0.462 0.354,-0.764 0.094,-0.299 0.14,-0.661 0.14,-1.085 v -2.211 c 0,-0.16 0.035,-0.343 0.104,-0.546 0.066,-0.203 0.127,-0.369 0.182,-0.494 0.057,-0.128 0.086,-0.201 0.095,-0.218 z m -7.443,6.35 h 0.622 v -6.098 h -0.622 z m 0.686,1.552 c -0.094,-0.111 -0.22,-0.166 -0.382,-0.166 -0.152,0 -0.274,0.055 -0.367,0.166 -0.095,0.107 -0.141,0.235 -0.141,0.379 0,0.143 0.051,0.271 0.152,0.381 0.103,0.111 0.224,0.166 0.369,0.166 0.143,0 0.265,-0.055 0.362,-0.166 0.097,-0.11 0.148,-0.238 0.148,-0.381 0,-0.144 -0.048,-0.272 -0.141,-0.379 m -2.599,-6.741 c -0.096,-0.216 -0.24,-0.402 -0.43,-0.558 -0.192,-0.157 -0.422,-0.279 -0.695,-0.369 -0.27,-0.088 -0.578,-0.133 -0.925,-0.133 -0.323,0 -0.63,0.039 -0.921,0.121 -0.294,0.078 -0.553,0.188 -0.782,0.324 l 0.229,0.532 c 0.184,-0.117 0.41,-0.225 0.674,-0.317 0.261,-0.094 0.545,-0.139 0.85,-0.139 0.533,0 0.923,0.118 1.169,0.354 0.246,0.238 0.367,0.514 0.367,0.828 0,0.354 -0.117,0.631 -0.354,0.832 -0.237,0.198 -0.598,0.373 -1.08,0.528 -1.1,0.353 -1.652,0.906 -1.652,1.65 0,0.211 0.043,0.418 0.126,0.622 0.084,0.202 0.213,0.386 0.382,0.546 0.17,0.162 0.379,0.287 0.629,0.382 0.25,0.093 0.54,0.139 0.87,0.139 0.295,0 0.572,-0.038 0.827,-0.115 0.252,-0.076 0.469,-0.172 0.646,-0.291 l -0.24,-0.508 c -0.103,0.067 -0.262,0.151 -0.484,0.247 -0.219,0.097 -0.507,0.146 -0.863,0.146 -0.424,0 -0.743,-0.107 -0.96,-0.324 -0.214,-0.215 -0.323,-0.473 -0.323,-0.769 0,-0.169 0.031,-0.317 0.095,-0.444 0.065,-0.125 0.158,-0.236 0.281,-0.33 0.121,-0.094 0.269,-0.178 0.443,-0.254 0.174,-0.076 0.374,-0.152 0.605,-0.23 0.558,-0.194 0.975,-0.425 1.25,-0.69 0.275,-0.268 0.413,-0.629 0.413,-1.088 0,-0.244 -0.05,-0.475 -0.147,-0.692 m -5.784,-1.035 c -0.096,0.297 -0.157,0.512 -0.192,0.649 -0.018,0.093 -0.033,0.196 -0.051,0.31 -0.018,0.116 -0.029,0.208 -0.038,0.279 -0.008,0.073 -0.013,0.112 -0.013,0.121 h -0.024 c -0.095,-0.169 -0.213,-0.337 -0.356,-0.501 -0.145,-0.166 -0.314,-0.315 -0.509,-0.445 -0.196,-0.131 -0.418,-0.239 -0.673,-0.317 -0.253,-0.082 -0.534,-0.121 -0.837,-0.121 -0.18,0 -0.398,0.025 -0.655,0.076 -0.259,0.051 -0.51,0.174 -0.756,0.369 -0.245,0.194 -0.456,0.477 -0.63,0.851 -0.172,0.372 -0.26,0.884 -0.26,1.536 v 3.417 h 0.624 v -3.288 c 0,-0.357 0.031,-0.684 0.095,-0.979 0.063,-0.296 0.169,-0.552 0.316,-0.761 0.148,-0.213 0.339,-0.379 0.571,-0.497 0.234,-0.118 0.521,-0.177 0.858,-0.177 0.466,0 0.883,0.127 1.245,0.38 0.363,0.254 0.627,0.558 0.787,0.915 0.044,0.093 0.079,0.201 0.109,0.324 0.03,0.122 0.044,0.251 0.044,0.387 v 3.696 h 0.622 v -4.624 c 0,-0.245 0.029,-0.496 0.083,-0.755 0.056,-0.259 0.13,-0.497 0.223,-0.719 z m -7.382,4.25 c -0.11,0.317 -0.27,0.596 -0.483,0.836 -0.211,0.243 -0.469,0.434 -0.768,0.573 -0.3,0.14 -0.641,0.211 -1.023,0.211 -0.253,0 -0.503,-0.037 -0.743,-0.11 -0.241,-0.072 -0.464,-0.177 -0.674,-0.316 -0.205,-0.139 -0.39,-0.319 -0.552,-0.534 -0.161,-0.216 -0.283,-0.464 -0.367,-0.743 -0.026,-0.075 -0.049,-0.159 -0.072,-0.249 -0.02,-0.089 -0.03,-0.193 -0.03,-0.311 v -1.055 c 0,-0.142 0.021,-0.3 0.063,-0.468 0.058,-0.212 0.158,-0.416 0.299,-0.611 0.139,-0.193 0.307,-0.364 0.509,-0.508 0.198,-0.144 0.421,-0.259 0.672,-0.348 0.25,-0.09 0.523,-0.134 0.82,-0.134 0.388,0 0.738,0.066 1.048,0.197 0.308,0.131 0.571,0.317 0.787,0.558 0.215,0.241 0.382,0.532 0.503,0.87 0.117,0.34 0.177,0.717 0.177,1.133 0,0.354 -0.056,0.689 -0.166,1.009 m 0.528,-2.414 c -0.174,-0.412 -0.406,-0.755 -0.695,-1.029 -0.286,-0.275 -0.611,-0.482 -0.969,-0.623 -0.361,-0.14 -0.732,-0.209 -1.114,-0.209 -0.532,0 -1.008,0.102 -1.426,0.305 -0.42,0.203 -0.778,0.547 -1.075,1.029 h -0.024 l -0.039,-1.183 h -0.573 c 0.019,0.248 0.03,0.492 0.039,0.738 0.008,0.245 0.012,0.491 0.012,0.736 v 7.621 h 0.624 v -4.255 h 0.025 c 0.22,0.408 0.539,0.744 0.96,1.01 0.418,0.267 0.945,0.401 1.58,0.401 0.45,0 0.852,-0.082 1.213,-0.248 0.36,-0.165 0.668,-0.388 0.923,-0.673 0.253,-0.285 0.45,-0.614 0.588,-0.991 0.141,-0.377 0.211,-0.777 0.211,-1.201 0,-0.541 -0.086,-1.017 -0.26,-1.428 m -11.402,2.546 c -0.092,0.28 -0.254,0.53 -0.482,0.749 -0.195,0.188 -0.441,0.358 -0.737,0.508 -0.297,0.154 -0.666,0.231 -1.104,0.231 -0.425,0 -0.794,-0.085 -1.107,-0.256 -0.313,-0.168 -0.572,-0.387 -0.774,-0.653 -0.204,-0.267 -0.355,-0.563 -0.452,-0.888 -0.098,-0.328 -0.145,-0.647 -0.145,-0.96 0,-0.424 0.07,-0.798 0.21,-1.125 0.139,-0.325 0.321,-0.599 0.545,-0.819 0.225,-0.22 0.482,-0.389 0.769,-0.508 0.288,-0.12 0.585,-0.178 0.889,-0.178 0.355,0 0.685,0.058 0.992,0.178 0.304,0.119 0.571,0.295 0.8,0.527 0.228,0.232 0.407,0.521 0.539,0.87 0.131,0.347 0.197,0.744 0.197,1.194 0,0.473 -0.046,0.852 -0.14,1.13 m 0.509,-2.579 c -0.186,-0.422 -0.431,-0.769 -0.731,-1.041 -0.301,-0.27 -0.637,-0.471 -1.009,-0.597 -0.373,-0.125 -0.749,-0.19 -1.131,-0.19 -0.449,0 -0.862,0.078 -1.239,0.234 -0.378,0.157 -0.7,0.375 -0.965,0.655 -0.267,0.279 -0.475,0.607 -0.623,0.984 -0.149,0.377 -0.223,0.791 -0.223,1.238 0,0.509 0.09,0.965 0.268,1.372 0.177,0.407 0.413,0.753 0.705,1.036 0.292,0.284 0.622,0.502 0.99,0.655 0.368,0.15 0.744,0.228 1.126,0.228 0.362,0 0.719,-0.058 1.065,-0.171 0.348,-0.114 0.704,-0.354 1.067,-0.717 l 0.026,0.037 c -0.237,0.414 -0.518,0.815 -0.838,1.199 -0.322,0.387 -0.724,0.739 -1.208,1.063 l -0.47,0.316 c -0.203,0.145 -0.442,0.283 -0.716,0.414 -0.276,0.131 -0.554,0.248 -0.832,0.35 l 0.253,0.507 c 0.322,-0.126 0.644,-0.273 0.966,-0.439 0.321,-0.165 0.617,-0.348 0.889,-0.551 l 0.445,-0.332 c 0.126,-0.092 0.25,-0.19 0.368,-0.292 0.117,-0.101 0.233,-0.212 0.343,-0.329 0.246,-0.246 0.466,-0.505 0.667,-0.775 0.199,-0.271 0.371,-0.555 0.513,-0.852 0.187,-0.371 0.329,-0.762 0.426,-1.168 0.099,-0.406 0.147,-0.839 0.147,-1.295 0,-0.601 -0.092,-1.115 -0.279,-1.539 m -7.763,2.478 c -0.04,0.247 -0.136,0.487 -0.285,0.723 -0.149,0.239 -0.36,0.442 -0.634,0.61 -0.276,0.171 -0.641,0.256 -1.1,0.256 -0.389,0 -0.723,-0.073 -1.002,-0.217 -0.281,-0.144 -0.512,-0.324 -0.692,-0.539 -0.184,-0.217 -0.325,-0.454 -0.426,-0.713 -0.102,-0.258 -0.171,-0.502 -0.204,-0.731 h 4.407 c 0,0.163 -0.02,0.366 -0.064,0.611 m 0.712,-0.952 c 0,-0.051 -0.009,-0.103 -0.024,-0.153 h -5.068 c 0,-0.45 0.065,-0.839 0.196,-1.17 0.131,-0.328 0.313,-0.606 0.546,-0.83 0.232,-0.225 0.506,-0.392 0.819,-0.503 0.313,-0.11 0.652,-0.166 1.016,-0.166 0.271,0 0.507,0.015 0.712,0.04 l 0.05,-0.522 c -0.119,-0.017 -0.247,-0.028 -0.386,-0.037 -0.141,-0.009 -0.286,-0.013 -0.44,-0.013 -0.474,0 -0.903,0.076 -1.289,0.228 -0.385,0.153 -0.713,0.365 -0.983,0.635 -0.272,0.271 -0.482,0.593 -0.629,0.965 -0.149,0.374 -0.223,0.78 -0.223,1.22 0,0.517 0.078,0.981 0.235,1.397 0.156,0.415 0.371,0.767 0.641,1.055 0.271,0.287 0.593,0.51 0.967,0.666 0.371,0.158 0.773,0.236 1.205,0.236 0.567,0 1.025,-0.109 1.372,-0.324 0.348,-0.217 0.616,-0.476 0.809,-0.781 0.188,-0.306 0.316,-0.615 0.38,-0.935 0.063,-0.317 0.094,-0.577 0.094,-0.78 z m -6.402,2.4 h -1.803 v -3.899 c 0,-0.373 0.071,-0.687 0.209,-0.941 0.139,-0.254 0.398,-0.382 0.768,-0.382 0.186,0 0.343,0.013 0.471,0.034 0.126,0.02 0.237,0.047 0.331,0.083 l 0.076,-0.483 c -0.112,-0.043 -0.244,-0.082 -0.4,-0.116 -0.158,-0.032 -0.338,-0.05 -0.541,-0.05 -0.5,0 -0.876,0.151 -1.131,0.457 -0.151,0.168 -0.257,0.385 -0.316,0.648 -0.06,0.263 -0.09,0.538 -0.09,0.825 V 0 h -0.457 -0.787 l 0.127,0.495 h 1.117 V 1.65 l 0.623,0.192 V 0.495 h 1.93 z m -5.08,-1.448 c -0.043,0.247 -0.139,0.487 -0.285,0.723 -0.149,0.239 -0.36,0.442 -0.636,0.61 -0.275,0.171 -0.642,0.256 -1.1,0.256 -0.388,0 -0.722,-0.073 -1.003,-0.217 -0.279,-0.144 -0.509,-0.324 -0.692,-0.539 -0.183,-0.217 -0.324,-0.454 -0.425,-0.713 -0.102,-0.258 -0.169,-0.502 -0.204,-0.731 h 4.408 c 0,0.163 -0.02,0.366 -0.063,0.611 m 0.712,-0.952 c 0,-0.051 -0.009,-0.103 -0.027,-0.153 h -5.068 c 0,-0.45 0.066,-0.839 0.196,-1.17 0.132,-0.328 0.315,-0.606 0.547,-0.83 0.233,-0.225 0.506,-0.392 0.821,-0.503 0.311,-0.11 0.65,-0.166 1.015,-0.166 0.272,0 0.509,0.015 0.711,0.04 l 0.051,-0.522 c -0.118,-0.017 -0.248,-0.028 -0.388,-0.037 -0.139,-0.009 -0.285,-0.013 -0.437,-0.013 -0.475,0 -0.905,0.076 -1.289,0.228 -0.386,0.153 -0.714,0.365 -0.985,0.635 -0.271,0.271 -0.482,0.593 -0.63,0.965 -0.147,0.374 -0.221,0.78 -0.221,1.22 0,0.517 0.078,0.981 0.235,1.397 0.155,0.415 0.37,0.767 0.641,1.055 0.271,0.287 0.593,0.51 0.964,0.666 0.374,0.158 0.776,0.236 1.209,0.236 0.567,0 1.024,-0.109 1.372,-0.324 0.346,-0.217 0.615,-0.476 0.805,-0.781 0.192,-0.306 0.319,-0.615 0.381,-0.935 0.065,-0.317 0.097,-0.577 0.097,-0.78 z m -7.318,1.378 c -0.059,0.19 -0.154,0.366 -0.285,0.526 -0.132,0.161 -0.297,0.295 -0.495,0.4 -0.2,0.108 -0.439,0.16 -0.718,0.16 -0.272,0 -0.506,-0.049 -0.701,-0.146 -0.193,-0.098 -0.358,-0.227 -0.494,-0.381 -0.135,-0.156 -0.235,-0.336 -0.299,-0.533 -0.062,-0.201 -0.095,-0.4 -0.095,-0.604 0,-0.272 0.05,-0.506 0.147,-0.707 0.098,-0.197 0.222,-0.365 0.374,-0.501 0.153,-0.133 0.321,-0.235 0.508,-0.305 0.186,-0.067 0.374,-0.101 0.56,-0.101 0.202,0 0.4,0.034 0.591,0.101 0.191,0.07 0.359,0.172 0.507,0.305 0.149,0.136 0.267,0.305 0.356,0.509 0.09,0.203 0.134,0.444 0.134,0.724 0,0.179 -0.032,0.362 -0.09,0.553 m -0.191,1.137 c 0.264,-0.195 0.466,-0.437 0.61,-0.73 0.146,-0.294 0.212,-0.604 0.203,-0.935 0,-0.372 -0.066,-0.692 -0.203,-0.958 -0.133,-0.267 -0.306,-0.487 -0.513,-0.662 -0.208,-0.174 -0.438,-0.299 -0.686,-0.381 -0.251,-0.08 -0.494,-0.12 -0.731,-0.12 -0.382,0 -0.716,0.075 -1.004,0.23 0.009,-0.043 0.007,-0.116 -0.007,-0.217 -0.012,-0.103 -0.024,-0.19 -0.038,-0.268 -0.011,-0.076 -0.019,-0.117 -0.019,-0.125 0,-0.172 0.037,-0.297 0.115,-0.381 0.078,-0.088 0.181,-0.152 0.311,-0.199 0.131,-0.047 0.29,-0.088 0.477,-0.125 0.187,-0.04 0.393,-0.098 0.622,-0.173 0.558,-0.194 0.975,-0.425 1.252,-0.692 0.275,-0.268 0.413,-0.629 0.413,-1.086 0,-0.246 -0.05,-0.477 -0.147,-0.692 -0.097,-0.216 -0.24,-0.402 -0.432,-0.558 -0.19,-0.157 -0.42,-0.281 -0.693,-0.369 -0.27,-0.09 -0.578,-0.135 -0.926,-0.135 -0.322,0 -0.629,0.042 -0.921,0.121 -0.291,0.081 -0.553,0.19 -0.783,0.323 l 0.23,0.536 c 0.185,-0.121 0.411,-0.224 0.675,-0.318 0.261,-0.093 0.545,-0.139 0.85,-0.139 0.532,0 0.923,0.118 1.167,0.354 0.246,0.238 0.369,0.514 0.369,0.825 0,0.357 -0.118,0.634 -0.355,0.833 -0.237,0.199 -0.598,0.375 -1.079,0.528 -0.279,0.084 -0.515,0.146 -0.706,0.183 -0.191,0.038 -0.351,0.083 -0.483,0.135 -0.131,0.05 -0.237,0.126 -0.317,0.226 -0.081,0.102 -0.142,0.26 -0.185,0.471 -0.017,0.059 -0.019,0.154 -0.005,0.279 0.012,0.128 0.028,0.256 0.05,0.381 0.02,0.127 0.044,0.245 0.07,0.35 0.026,0.107 0.042,0.176 0.05,0.211 -0.211,0.194 -0.376,0.42 -0.494,0.678 -0.119,0.259 -0.179,0.545 -0.179,0.859 0,0.33 0.061,0.629 0.184,0.895 0.122,0.267 0.285,0.494 0.484,0.679 0.199,0.186 0.423,0.329 0.679,0.426 0.253,0.098 0.512,0.146 0.775,0.146 h 0.024 l 2.287,0.026 V 0 Z m -3.925,-0.051 h -0.177 c -0.431,0 -0.798,-0.162 -1.099,-0.483 -0.301,-0.323 -0.501,-0.751 -0.604,-1.282 -0.042,-0.195 -0.063,-0.395 -0.063,-0.598 v -3.304 h -0.622 v 4.129 c 0,0.331 -0.005,0.66 -0.012,0.986 -0.009,0.325 -0.022,0.654 -0.039,0.983 h 0.571 l 0.027,-1.321 h 0.037 c 0.152,0.432 0.388,0.785 0.705,1.061 0.317,0.276 0.704,0.413 1.163,0.413 0.102,0 0.198,-0.013 0.29,-0.038 V 0.039 c -0.058,0.017 -0.117,0.025 -0.177,0.025 m -5.321,-2.414 c -0.408,0.009 -0.816,-0.004 -1.226,-0.037 -0.411,-0.035 -0.782,-0.109 -1.112,-0.222 -0.33,-0.116 -0.602,-0.282 -0.812,-0.496 -0.211,-0.215 -0.319,-0.502 -0.319,-0.859 0,-0.431 0.134,-0.753 0.401,-0.965 0.266,-0.212 0.577,-0.317 0.934,-0.317 0.297,0 0.559,0.04 0.787,0.121 0.229,0.08 0.427,0.18 0.596,0.298 0.169,0.119 0.309,0.251 0.42,0.4 0.11,0.148 0.195,0.291 0.255,0.425 0.05,0.128 0.076,0.246 0.076,0.357 z m 0.279,-3.379 -0.228,1.067 h -0.025 c -0.077,-0.118 -0.183,-0.24 -0.318,-0.368 -0.136,-0.127 -0.297,-0.247 -0.483,-0.355 -0.187,-0.111 -0.4,-0.201 -0.635,-0.267 -0.238,-0.069 -0.495,-0.102 -0.776,-0.102 -0.068,0 -0.131,0.002 -0.191,0.005 -0.058,0.005 -0.117,0.013 -0.178,0.02 h -0.024 c -0.178,0.025 -0.339,0.068 -0.484,0.126 -0.143,0.061 -0.274,0.132 -0.391,0.218 -0.239,0.168 -0.41,0.371 -0.516,0.608 -0.106,0.238 -0.158,0.47 -0.158,0.699 0,0.695 0.332,1.248 0.997,1.658 0.664,0.41 1.707,0.608 3.131,0.59 v 0.141 c 0,0.11 -0.015,0.268 -0.046,0.476 -0.028,0.207 -0.101,0.41 -0.215,0.609 -0.114,0.2 -0.286,0.371 -0.514,0.514 -0.229,0.146 -0.547,0.217 -0.954,0.217 -0.066,0 -0.132,-0.002 -0.196,-0.006 -0.063,-0.005 -0.129,-0.012 -0.197,-0.019 -0.025,0.195 -0.051,0.364 -0.076,0.508 0.178,0.025 0.352,0.038 0.521,0.038 0.517,0 0.926,-0.089 1.232,-0.267 0.306,-0.176 0.536,-0.396 0.693,-0.654 0.156,-0.258 0.258,-0.538 0.304,-0.838 0.048,-0.301 0.07,-0.57 0.07,-0.807 v -2.211 c 0,-0.245 0.027,-0.491 0.083,-0.736 0.054,-0.246 0.103,-0.49 0.145,-0.738 z M -137.874,0 h -1.804 v -3.899 c 0,-0.373 0.069,-0.687 0.209,-0.941 0.14,-0.254 0.396,-0.382 0.769,-0.382 0.186,0 0.343,0.013 0.471,0.034 0.126,0.02 0.236,0.047 0.331,0.083 l 0.075,-0.483 c -0.111,-0.043 -0.244,-0.082 -0.401,-0.116 -0.156,-0.032 -0.338,-0.05 -0.54,-0.05 -0.5,0 -0.875,0.151 -1.13,0.457 -0.153,0.168 -0.258,0.385 -0.318,0.648 -0.059,0.263 -0.09,0.538 -0.09,0.825 V 0 h -0.455 -0.787 l 0.126,0.495 h 1.116 V 1.65 l 0.624,0.192 V 0.495 h 1.931 z" /></g><g
           transform="translate(163.7979,78.6201)"
           id="g24"><path
             id="path26"
             style="fill:#f58025;fill-opacity:1;fill-rule:nonzero;stroke:none"
             d="m 0,0 -10.035,-48.535 c -0.098,-0.446 -0.369,-0.669 -0.816,-0.669 h -2.751 c -0.397,0 -0.643,0.223 -0.742,0.669 l -5.799,28.392 c -0.247,1.338 -0.456,2.39 -0.629,3.159 -0.174,0.768 -0.326,1.487 -0.447,2.157 -0.124,0.668 -0.25,1.373 -0.374,2.117 -0.123,0.742 -0.282,1.735 -0.48,2.972 -0.25,-1.783 -0.532,-3.543 -0.857,-5.275 -0.321,-1.736 -0.679,-3.544 -1.076,-5.426 -0.943,-4.658 -1.909,-9.34 -2.899,-14.048 -0.991,-4.707 -1.956,-9.389 -2.899,-14.048 -0.1,-0.446 -0.347,-0.669 -0.744,-0.669 h -2.675 c -0.446,0 -0.719,0.223 -0.815,0.669 L -43.999,0 c -0.102,0.643 0.174,0.967 0.817,0.967 h 3.196 c 0.395,0 0.643,-0.224 0.743,-0.669 l 5.205,-25.941 c 0.443,-2.181 0.841,-4.298 1.188,-6.355 0.344,-2.056 0.692,-4.149 1.039,-6.278 0.248,1.732 0.533,3.455 0.855,5.164 0.322,1.71 0.656,3.43 1.005,5.167 0.097,0.396 0.184,0.79 0.256,1.189 0.077,0.394 0.164,0.818 0.263,1.262 l 5.128,25.792 c 0.101,0.445 0.373,0.669 0.818,0.669 h 2.825 c 0.442,0 0.716,-0.224 0.816,-0.669 l 5.277,-25.123 c 0.049,-0.247 0.1,-0.458 0.147,-0.631 0.051,-0.175 0.103,-0.385 0.15,-0.633 0.248,-1.337 0.472,-2.403 0.669,-3.196 0.199,-0.792 0.373,-1.56 0.521,-2.303 0.147,-0.743 0.298,-1.598 0.445,-2.564 0.151,-0.964 0.346,-2.266 0.596,-3.902 0.345,2.379 0.718,4.608 1.113,6.689 0.399,2.08 0.794,4.136 1.19,6.169 0.842,4.162 1.684,8.411 2.53,12.744 0.841,4.338 1.682,8.585 2.525,12.75 0.098,0.445 0.346,0.669 0.743,0.669 h 3.124 C -0.175,0.967 0.1,0.643 0,0 m -69.297,-24.007 c 0,1.376 -0.471,2.522 -1.413,3.427 -0.18,0.173 -0.374,0.316 -0.568,0.458 -0.822,0.592 -1.751,0.903 -2.804,0.903 -1.2,0 -2.207,-0.364 -3.048,-1.048 1.869,-2.603 3.776,-5.168 5.73,-7.688 0.24,0.167 0.471,0.355 0.69,0.574 0.942,0.943 1.413,2.068 1.413,3.374 m 13.97,-18.954 c -0.625,-0.599 -1.283,-1.156 -1.969,-1.683 -2.129,2.313 -4.217,4.665 -6.265,7.061 0.501,0.412 0.986,0.846 1.426,1.323 1.387,1.504 2.452,3.293 3.197,5.367 0.743,2.073 1.115,4.32 1.115,6.736 0,2.14 -0.347,4.213 -1.04,6.219 -0.696,2.006 -1.725,3.786 -3.084,5.334 -0.233,0.264 -0.486,0.504 -0.736,0.75 -1.223,1.199 -2.653,2.2 -4.319,2.977 -2.008,0.932 -4.301,1.399 -6.875,1.399 -2.626,0 -4.942,-0.454 -6.947,-1.365 -1.078,-0.488 -2.052,-1.075 -2.943,-1.746 -0.089,0.14 -0.184,0.277 -0.277,0.418 -1.645,2.527 -3.319,5.025 -5.006,7.507 1.465,0.984 3.05,1.83 4.774,2.514 3.243,1.289 6.775,1.933 10.589,1.933 3.964,0 7.544,-0.644 10.741,-1.933 2.102,-0.848 3.98,-1.926 5.676,-3.192 0.881,-0.656 1.727,-1.351 2.499,-2.122 2.254,-2.256 3.988,-4.942 5.203,-8.065 1.213,-3.119 1.821,-6.49 1.821,-10.106 0,-4.065 -0.67,-7.73 -2.008,-11.001 -1.338,-3.271 -3.194,-6.046 -5.572,-8.325" /></g><g
           transform="translate(34.9229,56.9902)"
           id="g28"><path
             id="path30"
             style="fill:#533019;fill-opacity:1;fill-rule:nonzero;stroke:none"
             d="m 0,0 h -12.041 v 18.283 h 11.519 c 0.497,0 0.744,0.249 0.744,0.745 v 2.75 c 0,0.545 -0.247,0.819 -0.744,0.819 H -15.98 c -0.497,0 -0.744,-0.274 -0.744,-0.819 v -48.532 c 0,-0.549 0.247,-0.82 0.744,-0.82 h 3.122 c 0.544,0 0.817,0.271 0.817,0.82 V -4.309 H 0 c 0.494,0 0.742,0.272 0.742,0.815 v 2.751 C 0.742,-0.248 0.494,0 0,0 m 24.376,-16.946 h -2.897 c -0.546,0 -0.819,-0.248 -0.819,-0.739 v -5.651 h -9.885 v 45.114 c 0,0.545 -0.271,0.819 -0.817,0.819 H 6.911 c -0.547,0 -0.817,-0.274 -0.817,-0.819 v -48.532 c 0,-0.549 0.27,-0.82 0.817,-0.82 h 17.465 c 0.546,0 0.819,0.271 0.819,0.82 v 9.069 c 0,0.491 -0.273,0.739 -0.819,0.739 m 37.274,-1.239 c -2.007,-0.867 -4.275,-1.297 -6.801,-1.297 -2.477,0 -4.709,0.43 -6.69,1.297 -1.98,0.866 -3.652,2.049 -5.017,3.555 -0.138,0.153 -0.261,0.321 -0.394,0.482 -1.165,1.395 -2.096,2.981 -2.764,4.783 -0.742,2.006 -1.115,4.148 -1.115,6.427 0,2.322 0.347,4.522 1.043,6.596 0.691,2.074 1.721,3.885 3.084,5.436 0.633,0.719 1.342,1.364 2.112,1.947 -0.089,0.14 -0.184,0.277 -0.277,0.417 -1.645,2.528 -3.319,5.026 -5.006,7.508 C 38.532,18.096 37.33,17.12 36.236,16.018 33.907,13.664 32.086,10.865 30.775,7.62 29.462,4.374 28.804,0.795 28.804,-3.122 c 0,-3.616 0.618,-6.973 1.858,-10.069 1.236,-3.098 2.985,-5.774 5.241,-8.027 0.008,-0.011 0.021,-0.016 0.03,-0.028 2.247,-2.24 4.948,-4.005 8.108,-5.289 3.171,-1.285 6.689,-1.932 10.554,-1.932 3.765,0 7.27,0.623 10.516,1.862 2.393,0.912 4.545,2.111 6.468,3.591 -2.129,2.313 -4.217,4.664 -6.265,7.061 -1.081,-0.891 -2.294,-1.641 -3.664,-2.232 M 51.745,1.363 c 1.869,-2.603 3.776,-5.168 5.73,-7.688 -0.789,-0.557 -1.682,-0.842 -2.682,-0.842 -1.382,0 -2.523,0.474 -3.43,1.416 -0.05,0.055 -0.087,0.116 -0.137,0.17 -0.805,0.91 -1.223,1.973 -1.223,3.204 0,1.376 0.452,2.522 1.36,3.427 0.118,0.119 0.255,0.209 0.382,0.313" /></g></g></g></g></svg>