<?xml version="1.0" encoding="UTF-8" standalone="no"?>
<svg
   xmlns:dc="http://purl.org/dc/elements/1.1/"
   xmlns:cc="http://creativecommons.org/ns#"
   xmlns:rdf="http://www.w3.org/1999/02/22-rdf-syntax-ns#"
   xmlns:svg="http://www.w3.org/2000/svg"
   xmlns="http://www.w3.org/2000/svg"
   id="svg3311"
   version="1.1"
   viewBox="0 0 76.389793 43.830872"
   height="43.830872mm"
   width="76.389793mm">
  <defs
     id="defs3305">
    <clipPath
       id="clipPath272"
       clipPathUnits="userSpaceOnUse">
      <path
         id="path270"
         d="M 348.108,719.656 H 564.646 V 595.411 H 348.108 Z" />
    </clipPath>
  </defs>
  <metadata
     id="metadata3308">
    <rdf:RDF>
      <cc:Work
         rdf:about="">
        <dc:format>image/svg+xml</dc:format>
        <dc:type
           rdf:resource="http://purl.org/dc/dcmitype/StillImage" />
        <dc:title></dc:title>
      </cc:Work>
    </rdf:RDF>
  </metadata>
  <g
     transform="translate(-40.424151,-107.26313)"
     id="layer1">
    <g
       id="g304"
       transform="matrix(0.35277777,0,0,-0.35277777,-82.380613,361.14177)">
      <g
         style="opacity:0.69999701"
         id="g302"
         clip-path="url(#clipPath272)">
        <g
           id="g276"
           transform="translate(407.04,700.4639)">
          <path
             id="path274"
             style="fill:#ffffff;fill-opacity:1;fill-rule:nonzero;stroke:none"
             d="m 0,0 c -1.567,-6.428 -3.78,-15.123 1.53,-20.277 2.393,-2.323 5.751,-3.004 8.855,-3.213 3.388,-0.229 6.776,0.178 10.156,0.379 4.659,0.276 9.345,0.266 14.009,0.335 4.959,0.073 9.918,0.113 14.877,0.149 9.917,0.071 19.835,0.127 29.749,0.389 9.919,0.261 19.83,0.45 29.753,0.455 4.021,0.002 8.032,-0.426 12.053,-0.318 1.906,0.052 3.818,0.245 5.673,0.728 1.298,0.339 2.779,0.834 3.572,2.085 0.623,0.981 0.405,2.306 0.188,3.386 -0.379,1.877 -0.833,3.743 -1.242,5.613 -0.967,4.422 -2.083,8.823 -3.837,12.964 -1.407,3.327 -3.241,6.361 -5.931,8.619 -2.336,1.959 -5.075,3.267 -7.881,4.211 -6.122,2.058 -12.66,2.407 -19.022,2.697 -8.023,0.365 -16.02,0.999 -24.055,0.99 C 58.646,19.182 48.853,18.578 39.084,17.751 34.222,17.34 29.366,16.819 24.502,16.432 19.769,16.057 15.029,15.772 10.298,15.353 7.141,15.073 3.89,14.656 1.339,12.434 -1.548,9.917 -2.562,5.669 -2.937,1.859 c -0.396,-4.03 -0.144,-8.157 0.007,-12.198 0.11,-2.927 0.427,-6.418 2.75,-8.338 1.362,-1.124 3.053,-1.445 4.712,-1.683 2.099,-0.303 4.233,-0.271 6.344,-0.169 2.166,0.106 4.325,0.324 6.488,0.49 2.182,0.166 4.358,0.186 6.544,0.195 9.902,0.043 19.801,0.35 29.698,0.593 9.903,0.242 19.806,0.474 29.708,0.67 4.953,0.098 9.904,0.181 14.856,0.242 2.475,0.031 4.951,0.055 7.428,0.073 2.269,0.017 4.574,0.152 6.84,-0.029 3.239,-0.261 7.036,-1.124 9.196,2.227 1.762,2.738 1.25,6.688 0.773,9.764 -0.583,3.769 -1.328,7.562 -2.719,11.088 -0.689,1.754 -1.603,3.437 -2.837,4.809 -1.087,1.21 -2.458,2.097 -3.87,2.789 -3.075,1.507 -6.484,2.086 -9.81,2.504 -3.971,0.5 -7.969,0.837 -11.957,1.15 -9.755,0.767 -19.54,1.068 -29.319,1.066 C 52.125,17.1 42.357,16.762 32.598,16.301 27.694,16.069 22.794,15.762 17.907,15.271 14.472,14.925 10.994,14.82 7.576,14.307 4.566,13.854 1.255,13.06 -0.695,10.314 -2.66,7.549 -2.776,3.564 -2.856,0.231 c -0.08,-3.256 -0.351,-6.621 0.239,-9.839 0.525,-2.87 2.101,-5.096 4.486,-6.449 1.654,-0.938 3.527,-1.436 5.336,-1.881 2.077,-0.51 4.191,-0.833 6.308,-1.083 4.372,-0.515 8.784,-0.646 13.176,-0.81 9.833,-0.365 19.673,0.146 29.497,0.613 9.864,0.468 19.72,1.01 29.576,1.678 4.934,0.335 9.868,0.669 14.803,0.962 4.902,0.291 9.797,0.4 14.702,0.553 0.868,0.027 1.736,0.054 2.604,0.082 0.464,0.015 0.921,0.06 1.34,0.288 0.945,0.512 1.41,2.148 1.756,3.128 1.15,3.267 1.167,7.024 0.797,10.45 -0.368,3.418 -1.225,6.936 -2.948,9.86 -1.548,2.628 -4.018,4.467 -6.636,5.655 -5.968,2.711 -12.733,2.798 -19.104,2.9 -8.904,0.143 -17.793,0.334 -26.699,0.249 C 61.415,16.54 56.453,16.468 51.49,16.431 46.538,16.394 41.586,16.437 36.635,16.271 31.724,16.107 26.813,15.786 21.9,15.722 17.202,15.66 12.493,15.941 7.831,15.153 4.839,14.647 1.912,13.432 -0.092,10.878 -1.843,8.646 -2.599,5.731 -3.008,2.892 c -0.485,-3.37 -0.675,-6.893 -0.561,-10.3 0.115,-3.461 0.827,-7.139 3.251,-9.593 4.304,-4.359 11.083,-2.939 16.341,-4.445 0.466,-0.134 0.664,0.647 0.199,0.78 -3.738,1.071 -7.67,0.779 -11.418,1.783 -1.863,0.498 -3.677,1.398 -5.021,2.91 -1.198,1.347 -1.838,3.153 -2.211,4.95 -0.727,3.507 -0.426,7.282 -0.159,10.833 0.233,3.098 0.664,6.322 2.107,9.062 1.518,2.882 4.181,4.467 7.089,5.207 4.598,1.169 9.474,0.825 14.156,0.826 4.896,0.001 9.793,0.332 14.684,0.515 4.951,0.184 9.898,0.164 14.85,0.193 9.924,0.058 19.847,0.281 29.772,0.186 4.097,-0.04 8.191,-0.197 12.284,-0.26 3.225,-0.049 6.452,-0.114 9.665,-0.443 6.014,-0.616 13.219,-2.24 16.512,-8.364 1.703,-3.169 2.425,-7.003 2.636,-10.625 0.204,-3.495 -0.141,-7.108 -1.695,-10.227 -0.211,-0.423 -0.446,-0.803 -0.892,-0.936 -0.601,-0.178 -1.311,-0.09 -1.927,-0.108 -2.415,-0.074 -4.829,-0.129 -7.245,-0.187 -4.927,-0.115 -9.848,-0.467 -14.765,-0.785 -9.871,-0.639 -19.735,-1.38 -29.611,-1.867 -9.828,-0.484 -19.668,-1.045 -29.506,-1.13 -4.701,-0.041 -9.394,0.118 -14.09,0.334 -4.446,0.204 -8.908,0.511 -13.277,1.467 -3.212,0.703 -7.013,1.642 -8.936,4.808 -1.588,2.615 -1.492,6.092 -1.415,9.09 0.089,3.556 -0.072,7.26 0.919,10.694 0.495,1.715 1.401,3.219 2.8,4.21 1.366,0.966 3.009,1.426 4.59,1.764 3.305,0.707 6.692,0.665 10.03,1.039 4.882,0.549 9.783,0.878 14.684,1.131 9.759,0.503 19.53,0.838 29.301,0.884 9.782,0.045 19.57,-0.226 29.332,-0.93 4.176,-0.301 8.348,-0.687 12.511,-1.142 3.444,-0.376 6.936,-0.919 10.168,-2.32 1.541,-0.668 2.996,-1.608 4.179,-2.876 1.348,-1.443 2.248,-3.359 2.95,-5.244 1.311,-3.522 2.004,-7.359 2.534,-11.103 0.46,-3.254 0.761,-7.907 -2.31,-9.821 -1.615,-1.005 -3.783,-0.68 -5.547,-0.493 -2.096,0.223 -4.169,0.21 -6.273,0.199 -19.807,-0.109 -39.614,-0.627 -59.416,-1.135 -4.948,-0.127 -9.897,-0.255 -14.846,-0.344 -4.759,-0.087 -9.543,0.06 -14.296,-0.192 -4.288,-0.227 -8.562,-0.87 -12.863,-0.61 -1.88,0.114 -3.994,0.323 -5.632,1.417 -1.298,0.867 -1.986,2.385 -2.357,3.932 -0.393,1.642 -0.436,3.371 -0.483,5.057 -0.055,1.985 -0.127,3.969 -0.15,5.956 -0.052,4.301 0.164,8.907 2.241,12.699 1.903,3.475 5.269,4.618 8.772,5.039 4.487,0.539 9.015,0.739 13.517,1.068 9.752,0.713 19.472,1.817 29.234,2.391 9.774,0.575 19.574,0.763 29.352,0.232 3.432,-0.186 6.853,-0.462 10.287,-0.611 3.181,-0.14 6.361,-0.289 9.532,-0.608 6.184,-0.624 12.803,-1.851 17.963,-5.853 2.847,-2.206 4.697,-5.337 6.16,-8.729 1.82,-4.221 2.894,-8.784 3.875,-13.302 0.394,-1.804 0.847,-3.603 1.193,-5.419 0.265,-1.389 0.104,-2.52 -1.091,-3.279 -1.586,-1.009 -3.716,-1.25 -5.511,-1.427 -2.04,-0.202 -4.098,-0.171 -6.143,-0.1 -1.993,0.068 -3.98,0.2 -5.971,0.262 -2.291,0.072 -4.587,0.024 -6.879,0.017 -4.959,-0.014 -9.918,-0.058 -14.875,-0.163 -9.916,-0.21 -19.827,-0.511 -29.748,-0.598 -9.917,-0.086 -19.835,-0.113 -29.752,-0.306 -4.107,-0.079 -8.209,-0.168 -12.31,-0.468 -3.467,-0.254 -7.02,-0.479 -10.445,0.307 -1.936,0.445 -3.797,1.303 -5.255,2.78 -1.546,1.569 -2.364,3.707 -2.691,5.94 -0.65,4.43 0.597,9.027 1.632,13.274 C 0.844,0.291 0.123,0.504 0,0" />
        </g>
        <g
           id="g280"
           transform="translate(403.6426,658.8096)">
          <path
             id="path278"
             style="fill:#ffffff;fill-opacity:1;fill-rule:nonzero;stroke:none"
             d="m 0,0 c -1.574,-0.803 -2.689,-2.357 -3.616,-3.903 -1.035,-1.728 -1.822,-3.616 -2.627,-5.478 -0.143,-0.33 0.176,-0.811 0.512,-0.554 1.899,1.454 2.514,4.064 3.657,6.135 1.541,2.792 3.626,5.191 5.206,7.961 0.238,0.417 -0.276,0.765 -0.586,0.491 -3.873,-3.419 -6.45,-8.291 -9.247,-12.69 -0.67,-1.053 -1.381,-2.07 -2.001,-3.159 -0.229,-0.401 -0.455,-0.856 -0.83,-1.118 -0.445,-0.312 -1.104,0.192 -1.464,0.434 -1.856,1.239 -1.868,4.395 -2.446,6.413 -0.125,0.436 -0.726,0.355 -0.735,-0.108 -0.063,-3.757 -0.211,-11.315 4.735,-11.225 2.45,0.045 4.879,1.424 7.049,2.517 2.2,1.109 4.591,2.654 7.06,2.85 -0.089,0.231 -0.177,0.461 -0.265,0.692 -1.913,-1.879 -4.349,-3.23 -6.679,-4.386 -2.364,-1.173 -5.213,-2.441 -7.87,-2.135 -2.427,0.278 -3.166,3.455 -3.459,5.621 -0.312,2.308 -0.327,5.07 0.476,7.273 h -0.721 c 1.231,-3.616 -0.863,-9.46 3.157,-11.542 2.044,-1.058 4.388,-0.175 6.304,0.788 2.282,1.147 4.302,2.783 6.503,4.083 0.368,0.218 0.116,0.893 -0.288,0.74 -2.157,-0.814 -3.892,-2.572 -5.655,-4.083 -1.958,-1.678 -4.274,-3.446 -6.906,-3.013 -2.088,0.343 -2.757,3.046 -3.045,4.95 -0.329,2.178 -0.277,4.509 0.055,6.683 -0.244,0.035 -0.489,0.072 -0.733,0.108 0.126,-3.3 0.394,-7.246 2.611,-9.773 2.264,-2.578 5.972,-2.143 8.866,-1.426 0.468,0.116 0.27,0.896 -0.2,0.781 -2.721,-0.675 -6.102,-1.1 -8.222,1.314 -2.015,2.296 -2.195,6.132 -2.308,9.104 -0.017,0.435 -0.662,0.576 -0.734,0.107 -0.35,-2.284 -0.378,-4.64 -0.081,-6.931 0.264,-2.043 0.978,-4.67 2.942,-5.497 2.402,-1.01 5.026,0.453 6.954,1.93 2.165,1.658 4.103,4.003 6.655,4.966 -0.095,0.247 -0.192,0.493 -0.288,0.74 -1.953,-1.154 -3.768,-2.558 -5.742,-3.676 -1.907,-1.08 -4.358,-2.207 -6.464,-1.116 -1.806,0.935 -2.054,3.279 -2.134,5.201 -0.079,1.91 0.096,3.95 -0.526,5.778 -0.134,0.39 -0.584,0.376 -0.721,0 -0.857,-2.357 -0.783,-5.243 -0.476,-7.704 0.292,-2.335 1.132,-5.322 3.467,-6.075 1.123,-0.361 2.387,-0.164 3.511,0.074 1.532,0.322 3.016,0.908 4.452,1.559 2.626,1.19 5.261,2.678 7.469,4.645 0.123,0.11 0.241,0.224 0.359,0.339 0.234,0.229 0.059,0.716 -0.264,0.691 -2.112,-0.168 -4.126,-1.288 -6.015,-2.24 -2.259,-1.138 -4.534,-2.439 -6.994,-2.986 -0.927,-0.206 -1.982,-0.261 -2.841,0.239 -0.924,0.539 -1.355,1.803 -1.634,2.825 -0.633,2.31 -0.653,4.82 -0.612,7.21 -0.244,-0.036 -0.489,-0.071 -0.734,-0.107 0.638,-2.227 0.684,-4.951 2.415,-6.597 0.601,-0.571 1.675,-1.228 2.485,-0.793 0.845,0.455 1.277,1.622 1.77,2.43 1.557,2.548 3.195,5.062 4.813,7.566 1.673,2.59 3.479,5.148 5.753,7.156 C 2.878,4.242 2.683,4.406 2.487,4.57 0.986,1.939 -0.893,-0.399 -2.471,-2.971 -3.695,-4.967 -4.23,-7.798 -6.108,-9.236 c 0.17,-0.185 0.34,-0.369 0.51,-0.554 0.717,1.661 1.43,3.321 2.295,4.898 0.904,1.648 2.038,3.355 3.681,4.192 C 0.814,-0.478 0.434,0.221 0,0" />
        </g>
        <g
           id="g284"
           transform="translate(467.2393,657.3848)">
          <path
             id="path282"
             style="fill:#ffffff;fill-opacity:1;fill-rule:nonzero;stroke:none"
             d="M 0,0 C 0.264,1.25 0.505,2.505 0.772,3.754 0.881,4.262 0.186,4.473 0.052,3.969 -0.74,0.972 -0.677,-2.202 -0.687,-5.29 c -0.012,-3.192 0.036,-6.628 -1.246,-9.58 h 0.645 c -2.079,4.506 -1.666,9.917 -1.673,14.803 -0.001,0.523 -0.745,0.523 -0.747,0 -0.015,-4.725 -0.259,-9.443 -0.306,-14.168 -0.005,-0.446 0.668,-0.567 0.735,-0.107 0.561,3.913 -0.846,8.248 0.862,11.933 h -0.646 c 0.356,-0.768 0.487,-1.695 0.639,-2.529 0.253,-1.391 0.425,-2.797 0.561,-4.206 0.26,-2.712 0.509,-5.658 -0.021,-8.351 -0.118,-0.603 -0.303,-1.606 -1.038,-1.477 -1.049,0.185 -2.055,1.014 -2.911,1.641 -2.056,1.507 -3.92,3.479 -6.125,4.729 -0.05,0.027 -0.1,0.053 -0.149,0.079 -0.25,0.125 -0.564,-0.022 -0.563,-0.35 0.005,-1.889 1.64,-3.285 2.949,-4.247 1.562,-1.147 3.493,-2.172 5.381,-2.456 5.06,-0.759 8.584,3.694 11.356,7.602 -0.228,0.103 -0.455,0.208 -0.683,0.312 -0.357,-1.881 -1.409,-3.559 -2.575,-4.967 -1.161,-1.404 -2.663,-2.72 -4.403,-3.111 -1.995,-0.45 -4.048,0.669 -5.692,1.766 -1.716,1.146 -3.25,2.574 -4.921,3.791 -0.218,0.159 -0.596,-0.047 -0.561,-0.349 0.182,-1.589 1.569,-2.581 2.767,-3.281 1.687,-0.986 3.588,-1.614 5.466,-1.989 1.927,-0.385 3.773,-0.178 5.538,0.795 2.09,1.151 3.651,3.196 5.325,4.917 -0.195,0.163 -0.391,0.326 -0.587,0.491 -1.962,-2.993 -3.93,-5.848 -7.446,-6.604 -4.057,-0.871 -8.072,1.495 -11.966,2.321 -0.313,0.067 -0.593,-0.269 -0.422,-0.595 1.468,-2.782 5.107,-3.291 7.766,-3.385 1.698,-0.06 3.41,0.113 5.075,0.473 1.359,0.294 2.781,0.74 3.942,1.584 0.33,0.239 0.174,0.703 -0.189,0.755 -3.659,0.511 -5.946,4.308 -7.15,7.747 -1.204,3.436 -1.819,7.644 -0.768,11.218 h -0.72 c 1.396,-4.55 -1.234,-10.047 1.532,-14.192 0.279,-0.419 0.927,-0.015 0.643,0.409 -1.33,1.995 -1.25,4.502 -1.127,6.849 0.125,2.38 0.38,4.842 -0.328,7.149 -0.117,0.382 -0.606,0.389 -0.72,0 -1.146,-3.894 -0.414,-8.471 0.959,-12.181 1.347,-3.644 3.85,-7.274 7.679,-7.81 -0.063,0.252 -0.125,0.504 -0.188,0.755 -2.27,-1.648 -5.46,-1.954 -8.113,-1.956 -2.492,0 -6.251,0.348 -7.647,2.994 -0.141,-0.198 -0.281,-0.396 -0.422,-0.595 4.12,-0.874 8.066,-3.108 12.362,-2.32 3.691,0.676 5.867,3.884 7.894,6.975 0.254,0.387 -0.29,0.796 -0.587,0.49 -1.499,-1.54 -2.875,-3.258 -4.638,-4.46 -1.578,-1.075 -3.378,-1.403 -5.201,-1.098 -1.65,0.277 -3.294,0.817 -4.818,1.555 -1.104,0.534 -2.992,1.489 -3.164,2.989 -0.188,-0.116 -0.375,-0.234 -0.563,-0.35 3.297,-2.403 6.835,-6.429 11.189,-5.639 1.855,0.337 3.499,1.874 4.732,3.319 1.262,1.478 2.389,3.327 2.767,5.325 0.09,0.472 -0.429,0.669 -0.683,0.311 -2.577,-3.634 -5.717,-7.668 -10.38,-7.242 -1.642,0.15 -3.293,1.059 -4.689,1.948 -1.259,0.801 -3.219,2.187 -3.224,3.987 -0.187,-0.117 -0.375,-0.233 -0.561,-0.35 0.937,-0.475 1.772,-1.215 2.597,-1.881 1.131,-0.914 2.248,-1.85 3.407,-2.724 1.064,-0.805 3.611,-3.03 4.784,-1.364 0.502,0.714 0.606,1.771 0.705,2.628 0.154,1.363 0.14,2.749 0.095,4.118 -0.095,2.808 -0.384,5.65 -0.937,8.399 -0.139,0.691 -0.289,1.41 -0.584,2.047 -0.122,0.264 -0.523,0.264 -0.646,0 -1.771,-3.824 -0.358,-8.091 -0.937,-12.127 0.244,-0.036 0.489,-0.072 0.733,-0.108 0.047,4.725 0.292,9.443 0.306,14.168 h -0.747 c 0.007,-5.047 -0.372,-10.558 1.775,-15.212 0.12,-0.26 0.529,-0.269 0.645,0 C 1.29,-9.339 -0.86,-2.42 0.772,3.754 0.532,3.826 0.292,3.897 0.052,3.969 -0.216,2.72 -0.458,1.465 -0.721,0.216 -0.828,-0.293 -0.107,-0.508 0,0" />
        </g>
        <g
           id="g288"
           transform="translate(522.2266,662.6855)">
          <path
             id="path286"
             style="fill:#ffffff;fill-opacity:1;fill-rule:nonzero;stroke:none"
             d="m 0,0 c 2.57,-2.789 5.088,-5.635 7.736,-8.336 0.322,-0.328 0.766,0.082 0.587,0.49 C 7.216,-5.315 5.804,-2.928 4.104,-0.815 2.448,1.241 0.28,3.195 -2.292,3.588 -2.456,3.614 -2.627,3.577 -2.713,3.403 -3.145,2.536 -2.912,1.492 -2.642,0.611 c 0.445,-1.444 1.163,-2.795 1.879,-4.094 1.361,-2.469 3.061,-4.743 4.315,-7.277 0.207,-0.417 0.776,-0.123 0.682,0.313 C 3.691,-7.89 2.422,-5.598 1.903,-3.034 1.695,-3.165 1.488,-3.296 1.28,-3.427 c 2.311,-3.016 4.831,-5.852 6.904,-9.076 0.019,0.164 0.039,0.327 0.057,0.491 -3.122,-3.743 -8.738,-1.325 -12.528,-0.405 -0.394,0.095 -0.692,-0.544 -0.287,-0.741 2.26,-1.099 4.652,-1.823 7.108,-2.172 2.356,-0.335 4.945,-0.261 7.113,0.905 3.768,2.027 3.973,7.84 3.779,11.759 -0.027,0.519 -0.738,0.525 -0.748,0 -0.063,-3.522 -0.461,-8.387 -3.445,-10.532 -3.743,-2.691 -8.203,1.454 -11.847,2.408 -0.305,0.081 -0.607,-0.283 -0.422,-0.594 0.975,-1.643 2.667,-2.703 4.291,-3.44 1.769,-0.802 3.747,-1.388 5.681,-1.231 1.825,0.149 3.56,0.971 4.781,2.463 1.202,1.47 1.786,3.433 2.237,5.298 -0.24,0.072 -0.479,0.143 -0.721,0.215 -0.799,-3.584 -4.021,-6.193 -7.4,-5.988 -2.909,0.177 -5.897,2.15 -8.825,1.223 -0.377,-0.119 -0.335,-0.645 0,-0.781 4.136,-1.686 8.416,-0.747 12.576,0.307 0.468,0.119 0.269,0.899 -0.2,0.781 -4.037,-1.023 -8.162,-1.943 -12.177,-0.307 v -0.781 c 1.575,0.5 3.248,-0.029 4.788,-0.451 1.612,-0.442 3.246,-0.901 4.924,-0.805 3.269,0.187 6.281,3.207 7.035,6.587 0.114,0.506 -0.598,0.721 -0.721,0.215 -0.408,-1.692 -0.917,-3.415 -1.938,-4.801 -1.1,-1.497 -2.788,-2.236 -4.517,-2.378 -1.672,-0.136 -3.401,0.398 -4.942,1.045 -1.564,0.657 -3.295,1.668 -4.226,3.237 -0.14,-0.197 -0.281,-0.396 -0.422,-0.594 4.031,-1.056 8.239,-5.088 12.422,-2.327 3.279,2.163 3.747,7.505 3.816,11.231 h -0.748 c 0.185,-3.739 0.068,-9.022 -3.408,-11.06 -1.99,-1.166 -4.565,-1.075 -6.736,-0.794 -2.308,0.299 -4.614,1.032 -6.731,2.062 -0.096,-0.247 -0.193,-0.493 -0.287,-0.74 4.077,-0.99 9.902,-3.405 13.254,0.613 0.107,0.128 0.158,0.337 0.06,0.491 -2.11,3.28 -4.669,6.17 -7.022,9.24 -0.256,0.334 -0.699,-0.031 -0.624,-0.395 0.516,-2.564 1.786,-4.856 2.33,-7.414 0.228,0.104 0.456,0.209 0.683,0.313 -1.142,2.306 -2.67,4.398 -3.944,6.62 C -0.45,-2.506 -1.12,-1.25 -1.654,0.073 -1.974,0.864 -2.49,2.146 -2.068,2.994 -2.209,2.932 -2.35,2.87 -2.49,2.808 c 2.476,-0.38 4.458,-2.239 6.065,-4.196 1.673,-2.034 3.029,-4.41 4.104,-6.866 0.194,0.163 0.39,0.327 0.586,0.491 C 5.616,-5.062 3.099,-2.216 0.529,0.573 0.187,0.942 -0.341,0.37 0,0" />
        </g>
        <g
           id="g292"
           transform="translate(513.0381,623.8672)">
          <path
             id="path290"
             style="fill:#ffffff;fill-opacity:1;fill-rule:nonzero;stroke:none"
             d="M 0,0 C 0.242,0.954 0.536,1.883 0.897,2.792 0.669,2.825 0.442,2.856 0.214,2.889 1.364,-1.282 -0.673,-5.679 0.68,-9.859 c 0.919,-2.846 3.727,-3.712 6.233,-3.9 3.094,-0.231 6.202,0.415 9.282,0.619 4.869,0.321 9.751,0.112 14.623,0.004 1.992,-0.044 4.005,0.049 5.992,-0.117 1.541,-0.13 3.075,-0.369 4.613,-0.526 2.698,-0.275 6.181,-0.642 8.453,1.316 2.144,1.846 1.819,5.758 1.502,8.332 -0.372,3.018 -1.011,6.198 -1.981,9.063 -0.915,2.708 -2.574,4.613 -5.077,5.615 -1.63,0.653 -3.395,0.919 -5.112,1.134 -2.254,0.281 -4.528,0.322 -6.794,0.262 C 27.832,11.825 23.276,11.203 18.722,10.704 15.766,10.381 12.79,10.46 9.829,10.206 7.467,10.004 4.255,9.811 2.742,7.523 1.964,6.345 1.722,4.79 1.581,3.384 1.417,1.753 1.48,0.095 1.612,-1.536 c 0.231,-2.892 0.613,-6.016 2.185,-8.45 1.722,-2.667 4.682,-3.541 7.512,-3.945 4.655,-0.666 9.358,-0.369 14.03,-0.065 2.162,0.142 4.323,0.288 6.491,0.284 2.1,-0.004 4.198,-0.071 6.297,0.026 3.201,0.148 6.99,0.609 9.404,3.142 1.741,1.828 2.448,4.513 2.562,7.068 0.223,5.057 -2.012,11.53 -6.65,13.547 -3.693,1.607 -7.9,1.488 -11.787,1.052 C 27.496,10.655 23.379,9.731 19.248,9.031 16.82,8.621 14.388,8.244 11.946,7.941 10.235,7.728 8.517,7.745 6.804,7.577 5.448,7.443 4.017,7.196 2.979,6.167 2.094,5.287 1.646,3.954 1.366,2.723 0.675,-0.312 0.894,-3.625 1.339,-6.682 c 0.38,-2.613 1.149,-5.096 3.582,-6.182 2.495,-1.115 5.403,-0.712 7.999,-0.335 1.379,0.2 2.752,0.449 4.134,0.617 1.727,0.21 3.477,0.194 5.213,0.164 4.303,-0.075 8.6,-0.452 12.905,-0.27 2.022,0.086 4.045,0.32 6.024,0.784 1.284,0.301 2.386,0.734 3.473,1.532 2.892,2.123 8.034,8.612 2.741,11.152 -0.435,0.21 -0.817,-0.488 -0.377,-0.699 1.142,-0.548 1.977,-1.423 1.938,-2.846 -0.038,-1.319 -0.784,-2.58 -1.487,-3.604 -0.815,-1.192 -1.848,-2.246 -2.951,-3.12 -1.102,-0.872 -2.209,-1.308 -3.536,-1.635 -7.992,-1.963 -16.204,0.333 -24.252,-0.687 -4.391,-0.557 -12.783,-3.238 -14.327,3.397 -0.687,2.951 -0.892,6.15 -0.606,9.174 0.14,1.471 0.459,3.001 1.228,4.244 0.879,1.418 2.524,1.64 3.975,1.784 1.739,0.17 3.48,0.163 5.217,0.379 2.318,0.288 4.626,0.65 6.932,1.036 4.245,0.71 8.47,1.658 12.746,2.138 3.782,0.425 8.245,0.623 11.75,-1.261 2.287,-1.23 3.819,-3.746 4.713,-6.259 1.834,-5.152 1.394,-12.361 -4.052,-14.544 -3.943,-1.582 -8.367,-1.198 -12.491,-1.18 -4.519,0.022 -9.026,-0.55 -13.545,-0.616 -2.388,-0.035 -4.784,0.065 -7.151,0.425 -1.63,0.247 -3.257,0.644 -4.694,1.549 -2.606,1.64 -3.456,4.888 -3.86,7.92 -0.399,3.019 -0.679,6.368 0.178,9.319 0.411,1.414 1.22,2.321 2.493,2.822 1.394,0.547 2.917,0.722 4.385,0.863 2.935,0.281 5.889,0.172 8.822,0.487 4.554,0.488 9.101,1.102 13.681,1.26 3.987,0.137 8.349,0.095 12.14,-1.423 2.841,-1.138 4.159,-3.761 4.922,-6.782 0.764,-3.03 1.489,-6.151 1.62,-9.3 0.065,-1.524 -0.024,-3.166 -0.717,-4.529 -0.677,-1.333 -2.051,-1.83 -3.355,-2.071 -3.154,-0.586 -6.472,0.189 -9.618,0.505 -1.9,0.191 -3.821,0.099 -5.727,0.136 -2.437,0.047 -4.872,0.125 -7.308,0.16 -3.622,0.051 -7.252,-0.01 -10.857,-0.413 -2.457,-0.275 -4.973,-0.622 -7.436,-0.234 -1.128,0.178 -2.275,0.553 -3.178,1.331 -1.128,0.973 -1.526,2.522 -1.671,4.017 C 0.613,-3.952 1.894,-0.37 0.935,3.104 0.852,3.407 0.388,3.542 0.253,3.201 -0.136,2.228 -0.461,1.238 -0.721,0.216 -0.849,-0.289 -0.127,-0.502 0,0" />
        </g>
        <g
           id="g296"
           transform="translate(432.6162,610.3315)">
          <path
             id="path294"
             style="fill:#ffffff;fill-opacity:1;fill-rule:nonzero;stroke:none"
             d="m 0,0 c 1.256,-4.994 -0.291,-13.01 5.933,-14.392 2.126,-0.473 4.409,-0.46 6.571,-0.464 2.373,-0.005 4.743,0.139 7.11,0.294 4.576,0.301 9.17,0.697 13.752,0.318 4.004,-0.331 8.037,-1.069 12.047,-0.416 1.549,0.252 3.189,0.751 4.235,2.093 0.87,1.113 1.076,2.621 1.129,4.029 0.06,1.577 -0.101,3.152 -0.068,4.729 0.034,1.631 0.128,3.258 0.148,4.889 0.038,2.8 0.088,6.458 -1.77,8.674 -1.793,2.139 -5.071,2.482 -7.555,2.668 -3.062,0.228 -6.129,-0.023 -9.193,-0.069 -1.86,-0.029 -3.723,0.107 -5.581,0.148 -2.368,0.053 -4.737,0.051 -7.104,-0.02 -2.363,-0.07 -4.723,-0.224 -7.075,-0.475 C 10.669,11.802 8.731,11.58 6.866,11.08 4.536,10.455 2.621,9.144 1.706,6.667 1.184,5.25 1.042,3.673 0.957,2.165 0.876,0.72 0.757,-0.722 0.677,-2.166 0.513,-5.105 0.396,-8.581 1.911,-11.17 c 1.991,-3.404 6.1,-2.12 9.152,-1.999 4.881,0.192 9.778,0.45 14.665,0.311 3.81,-0.108 7.519,-0.933 11.287,-1.489 3.427,-0.506 7.161,-0.92 10.49,0.366 2.809,1.085 3.378,4.056 3.004,6.968 -0.388,3.031 -1.287,6.307 -2.709,8.96 C 46.47,4.425 44.433,6.329 42.046,7.532 36.942,10.105 30.884,9.705 25.416,9.344 22.625,9.161 19.835,8.904 17.038,8.893 13.868,8.88 10.727,9.468 7.55,9.216 6.177,9.107 4.746,8.843 3.553,8.058 2.641,7.458 2.09,6.377 1.685,5.346 0.565,2.499 0.252,-0.743 0.04,-3.801 c -0.18,-2.575 -0.6,-5.882 0.759,-8.16 1.383,-2.318 4.344,-2.221 6.576,-2.076 4.15,0.271 8.271,0.497 12.434,0.452 4.878,-0.054 9.751,-0.309 14.626,-0.484 2.876,-0.104 5.797,-0.306 8.669,-0.008 2.404,0.249 4.995,0.947 6.642,3 1.762,2.197 2.018,5.597 0.99,8.204 -1.1,2.801 -3.713,4.638 -6.262,5.627 -0.455,0.177 -0.65,-0.606 -0.2,-0.781 3.201,-1.241 6.258,-3.948 6.333,-7.903 0.036,-1.847 -0.609,-3.804 -1.844,-5.091 -1.066,-1.112 -2.549,-1.646 -3.965,-1.972 -3.17,-0.729 -6.565,-0.397 -9.777,-0.287 -4.875,0.165 -9.749,0.421 -14.627,0.496 -4.236,0.066 -8.444,-0.092 -12.667,-0.418 -2.416,-0.186 -5.682,-0.4 -6.711,2.569 -0.466,1.344 -0.386,2.855 -0.351,4.268 0.038,1.496 0.135,2.991 0.283,4.479 0.164,1.655 0.413,3.304 0.804,4.914 0.314,1.299 0.734,2.685 1.544,3.728 0.87,1.12 2.406,1.425 3.676,1.591 1.682,0.219 3.397,0.139 5.086,0.035 2.865,-0.176 5.657,-0.34 8.527,-0.174 5.753,0.332 11.67,1.177 17.375,-0.096 2.623,-0.584 5.144,-1.737 7.117,-3.735 2.179,-2.207 3.195,-5.168 4.014,-8.196 0.712,-2.641 1.739,-6.9 -0.76,-8.83 -1.337,-1.032 -3.309,-1.232 -4.892,-1.325 -1.877,-0.109 -3.768,0.078 -5.63,0.326 -3.643,0.481 -7.241,1.376 -10.914,1.555 -4.887,0.238 -9.781,-0.061 -14.666,-0.23 -2.019,-0.07 -4.048,-0.46 -6.067,-0.386 -1.724,0.062 -3.111,0.857 -3.908,2.518 -1.343,2.794 -0.947,6.51 -0.734,9.53 0.195,2.796 0.029,6.033 1.566,8.44 1.692,2.651 5.442,2.909 8.095,3.253 4.695,0.608 9.437,0.739 14.162,0.684 3.473,-0.041 6.916,-0.185 10.389,-0.068 3.155,0.106 6.423,0.214 9.509,-0.624 1.248,-0.338 2.528,-0.9 3.41,-1.952 0.924,-1.104 1.178,-2.832 1.328,-4.256 0.341,-3.238 -0.056,-6.488 -0.026,-9.732 0.016,-1.678 0.215,-3.368 -0.051,-5.037 -0.286,-1.804 -1.339,-2.944 -2.925,-3.495 -3.858,-1.341 -8.259,-0.522 -12.199,-0.119 -4.489,0.459 -8.961,0.234 -13.452,-0.07 -4.709,-0.318 -9.44,-0.658 -14.148,-0.129 -1.541,0.173 -2.992,0.61 -4.041,1.914 C 2.298,-10.81 1.965,-9.369 1.745,-8.041 1.293,-5.303 1.399,-2.484 0.72,0.216 0.594,0.719 -0.128,0.505 0,0" />
        </g>
        <g
           id="g300"
           transform="translate(349.0352,624.9419)">
          <path
             id="path298"
             style="fill:#ffffff;fill-opacity:1;fill-rule:nonzero;stroke:none"
             d="m 0,0 c -0.313,-2.936 -1.432,-6.117 -0.663,-9.064 0.951,-3.645 5.221,-3.351 7.952,-3.073 2.169,0.221 4.3,0.42 6.482,0.448 2.453,0.032 4.905,-0.033 7.355,-0.138 4.624,-0.197 9.169,-0.826 13.769,-1.334 2.243,-0.248 4.498,-0.399 6.752,-0.303 1.488,0.064 3.233,0.124 4.535,1.008 0.854,0.579 1.177,1.567 1.287,2.603 0.161,1.555 -0.031,3.184 -0.07,4.743 -0.092,3.867 -0.153,7.947 -1.91,11.427 -1.716,3.4 -4.97,4.933 -8.372,5.419 -1.782,0.255 -3.579,0.305 -5.372,0.399 -2.227,0.116 -4.448,0.358 -6.675,0.488 -4.894,0.283 -9.799,0.301 -14.697,0.101 C 8.909,12.664 7.35,12.981 5.925,12.516 4.632,12.093 3.828,10.768 3.434,9.443 2.932,7.755 2.857,5.905 2.672,4.154 2.451,2.073 1.875,0.067 1.493,-1.981 c -0.544,-2.922 -0.885,-7.356 2.185,-8.8 1.165,-0.548 2.499,-0.546 3.744,-0.496 1.79,0.072 3.575,0.254 5.366,0.327 4.77,0.194 9.549,0.065 14.301,-0.431 2.293,-0.24 4.599,-0.539 6.864,-1.004 1.36,-0.28 2.7,-0.659 4.061,-0.931 2.438,-0.488 5.923,-1.055 7.768,1.241 0.781,0.971 0.922,2.368 0.945,3.601 0.032,1.668 -0.244,3.351 -0.567,4.974 -0.582,2.915 -1.359,6.2 -2.983,8.653 -1.944,2.935 -5.501,3.792 -8.601,4.34 C 24.894,11.207 15.01,8.187 5.367,10.428 5.082,10.495 4.731,10.143 4.946,9.834 6.781,7.175 5.514,3.55 4.864,0.672 4.204,-2.251 3.742,-5.546 5.723,-8.009 c 1.978,-2.463 5.763,-2.516 8.52,-2.616 4.198,-0.151 8.42,-0.311 12.601,-0.753 2.414,-0.255 4.807,-0.691 7.146,-1.387 1.571,-0.467 3.091,-0.971 4.723,-1.117 2.583,-0.23 5.03,0.662 6.755,2.797 1.848,2.286 2.881,5.59 3.148,8.586 0.182,2.02 -0.203,4.104 -1.364,5.728 C 44.805,6.647 40.164,7.314 36.456,7.537 31.989,7.806 27.5,7.285 23.077,6.653 22.052,6.507 21.027,6.35 20.002,6.206 c -0.472,-0.065 -0.478,-0.876 0,-0.81 3.974,0.557 7.935,1.171 11.944,1.347 4.17,0.183 9.026,0.186 12.742,-2.169 1.552,-0.983 2.667,-2.497 3.065,-4.408 0.571,-2.74 -0.323,-5.844 -1.408,-8.293 -1.25,-2.824 -3.38,-4.786 -6.328,-4.968 -1.496,-0.092 -2.991,0.233 -4.424,0.663 -2.219,0.666 -4.404,1.258 -6.689,1.6 -4.36,0.655 -8.825,0.809 -13.221,0.971 -2.965,0.11 -6.838,-0.162 -9.197,2.163 -2.4,2.369 -1.309,6.419 -0.631,9.329 C 6.502,4.408 7.33,7.725 5.591,10.243 5.45,10.044 5.31,9.846 5.169,9.647 c 8.726,-2.028 17.638,0.13 26.442,-0.586 2.202,-0.18 4.392,-0.578 6.507,-1.27 1.481,-0.483 2.875,-1.21 3.948,-2.439 1.039,-1.19 1.636,-2.779 2.128,-4.303 0.461,-1.426 0.842,-2.884 1.16,-4.355 0.366,-1.693 0.633,-3.426 0.626,-5.168 -0.006,-1.42 -0.262,-2.867 -1.425,-3.694 -1.199,-0.853 -2.833,-0.802 -4.201,-0.687 -1.551,0.13 -3.081,0.507 -4.594,0.875 -3.962,0.962 -8.039,1.423 -12.086,1.706 -4.612,0.321 -9.266,0.313 -13.876,-0.028 -2.419,-0.178 -6.08,-0.944 -7.413,1.938 -0.893,1.931 -0.493,4.437 -0.119,6.448 0.365,1.961 0.905,3.874 1.13,5.864 0.207,1.823 0.288,3.698 0.812,5.459 0.523,1.76 1.767,2.509 3.391,2.535 2.007,0.034 4.015,0.03 6.026,0.074 2.446,0.053 4.893,0.04 7.339,-0.028 4.387,-0.121 8.758,-0.54 13.138,-0.78 3.647,-0.2 7.487,-0.766 9.948,-4.009 2.446,-3.222 2.495,-7.883 2.592,-11.838 0.039,-1.633 0.18,-3.289 0.1,-4.923 -0.062,-1.297 -0.572,-2.167 -1.725,-2.595 -1.863,-0.694 -4.097,-0.568 -6.037,-0.507 -2.284,0.072 -4.56,0.353 -6.827,0.643 -4.655,0.597 -9.28,0.982 -13.968,1.107 -2.428,0.064 -4.862,0.071 -7.288,-0.043 -2.044,-0.096 -4.063,-0.511 -6.114,-0.524 -1.605,-0.01 -3.517,0.247 -4.426,1.871 -0.7,1.252 -0.553,2.936 -0.401,4.322 C 0.151,-3.514 0.558,-1.775 0.748,0 0.803,0.518 0.056,0.513 0,0" />
        </g>
      </g>
    </g>
  </g>
</svg>
