<?xml version="1.0" encoding="UTF-8" standalone="no"?>
<svg
   xmlns:dc="http://purl.org/dc/elements/1.1/"
   xmlns:cc="http://creativecommons.org/ns#"
   xmlns:rdf="http://www.w3.org/1999/02/22-rdf-syntax-ns#"
   xmlns:svg="http://www.w3.org/2000/svg"
   xmlns="http://www.w3.org/2000/svg"
   id="svg2333"
   version="1.1"
   viewBox="0 0 47.448132 26.883932"
   height="26.883932mm"
   width="47.448132mm">
  <defs
     id="defs2327">
    <clipPath
       id="clipPath28"
       clipPathUnits="userSpaceOnUse">
      <path
         id="path26"
         d="M 415.122,140.668 H 549.621 V 64.4609 H 415.122 Z" />
    </clipPath>
  </defs>
  <metadata
     id="metadata2330">
    <rdf:RDF>
      <cc:Work
         rdf:about="">
        <dc:format>image/svg+xml</dc:format>
        <dc:type
           rdf:resource="http://purl.org/dc/dcmitype/StillImage" />
        <dc:title></dc:title>
      </cc:Work>
    </rdf:RDF>
  </metadata>
  <g
     transform="translate(-65.478315,-97.593747)"
     id="layer1">
    <g
       id="g22"
       transform="matrix(0.35277777,0,0,-0.35277777,-80.967498,147.21829)">
      <g
         id="g24" />
      <g
         id="g108">
        <g
           style="opacity:0.69999701"
           id="g106"
           clip-path="url(#clipPath28)">
          <g
             id="g32"
             transform="translate(497.6221,108.6729)">
            <path
               id="path30"
               style="fill:#ffffff;fill-opacity:1;fill-rule:nonzero;stroke:none"
               d="m 0,0 c 1.337,2.692 2.477,5.473 3.108,8.396 0.591,2.809 0.623,5.716 0.16,8.556 -0.795,4.867 -2.956,10.1 -7.096,13.039 -3.399,2.381 -7.929,2.684 -11.56,0.676 -3.424,-1.862 -5.749,-5.311 -7.369,-8.725 -1.661,-3.501 -2.764,-7.323 -3.155,-11.138 -0.413,-4.2 0.827,-8.618 3.1,-12.168 2.234,-3.5 5.929,-6.366 10.282,-6.097 2.323,0.122 4.532,1.218 6.417,2.554 2.049,1.444 3.819,3.297 5.264,5.314 5.597,7.831 3.839,19.526 -2.275,26.551 -1.573,1.864 -3.588,3.418 -5.905,4.207 -2.028,0.689 -4.209,0.558 -6.167,-0.21 -4.235,-1.661 -7.097,-6.002 -8.515,-10.121 -1.784,-5.242 -1.032,-11.063 0.436,-16.293 0.676,-2.463 1.468,-5.183 3.152,-7.16 1.629,-1.934 3.913,-3.369 6.289,-4.114 1.232,-0.355 2.437,-0.443 3.694,-0.1 1.343,0.34 2.587,1.076 3.766,1.826 1.122,0.776 2.224,1.547 3.2,2.47 0.995,0.933 1.834,2.014 2.562,3.173 1.313,2.071 2.335,4.475 2.803,6.866 0.371,1.73 0.408,3.511 0.245,5.224 -0.362,3.829 -1.55,7.619 -3.506,10.927 -1.727,2.903 -4.275,5.668 -7.681,6.58 -4.046,1.074 -7.847,-1.17 -10.831,-3.718 -2.08,-1.729 -3.767,-3.861 -4.323,-6.548 -0.601,-2.848 -0.189,-5.806 0.315,-8.604 0.825,-4.579 1.767,-9.384 4.551,-13.206 1.166,-1.597 2.741,-2.94 4.646,-3.586 2.139,-0.764 4.537,-0.426 6.618,0.326 2.256,0.844 4.257,2.28 5.606,4.278 0.784,1.134 1.174,2.422 1.621,3.692 0.513,1.507 1.027,3.046 1.38,4.611 0.671,2.945 0.475,5.836 -0.061,8.779 -0.474,2.57 -1.368,5.074 -2.845,7.25 -2.738,4.065 -7.74,6.985 -12.731,5.737 -2.447,-0.636 -4.508,-2.392 -5.609,-4.646 -1.133,-2.315 -1.277,-4.905 -1.324,-7.407 -0.061,-5.178 -0.417,-10.644 1.221,-15.618 0.718,-2.129 1.927,-4.088 3.782,-5.365 1.639,-1.125 3.66,-1.486 5.64,-1.371 4.529,0.363 8.671,3.373 11.081,7.079 2.846,4.418 3.45,9.836 2.202,14.877 -1.321,5.339 -4.626,9.953 -9.507,12.584 -2.201,1.151 -4.901,1.865 -7.216,0.692 -1.938,-0.967 -3.099,-3.039 -4.146,-4.847 -0.193,-0.354 -0.396,-0.694 -0.599,-1.047 -0.163,-0.289 0.273,-0.553 0.446,-0.27 1.106,1.894 2.139,4.084 4.002,5.359 2.362,1.67 5.405,0.672 7.705,-0.593 2.467,-1.4 4.633,-3.414 6.196,-5.825 C 0.57,20.527 1.478,17.87 2.016,15.208 3.026,9.99 1.576,4.266 -1.938,0.259 c -2.84,-3.248 -7.559,-5.671 -11.952,-4.703 -5.128,1.156 -6.642,6.616 -7.109,11.181 -0.306,2.748 -0.279,5.476 -0.223,8.24 0.038,2.54 -0.082,5.168 0.63,7.674 0.727,2.658 2.597,4.865 5.19,5.845 2.419,0.879 5.104,0.536 7.414,-0.486 2.485,-1.139 4.473,-3.129 5.879,-5.439 1.444,-2.287 2.163,-4.909 2.547,-7.575 0.249,-1.52 0.411,-3.037 0.323,-4.599 C 0.651,8.768 0.269,7.162 -0.199,5.587 -0.653,4.112 -1.158,2.572 -1.726,1.125 c -0.472,-1.199 -1.235,-2.273 -2.143,-3.199 -1.797,-1.79 -4.329,-2.898 -6.82,-3.195 -2.16,-0.29 -4.274,0.347 -5.982,1.708 -1.708,1.324 -2.862,3.235 -3.75,5.182 -0.956,2.112 -1.517,4.377 -1.983,6.633 -0.623,2.903 -1.293,5.85 -1.266,8.849 0.017,1.461 0.223,2.904 0.741,4.305 0.458,1.314 1.356,2.472 2.344,3.462 1.692,1.78 3.873,3.413 6.181,4.377 1.633,0.709 3.456,0.931 5.21,0.547 3.505,-0.778 6.122,-3.736 7.827,-6.685 C 0.598,19.742 1.734,15.836 1.97,11.954 2.22,7.473 0.633,2.941 -2.141,-0.599 -2.991,-1.722 -4.033,-2.633 -5.166,-3.47 -6.351,-4.366 -7.561,-5.2 -8.904,-5.834 c -1.326,-0.62 -2.752,-0.885 -4.213,-0.545 -1.272,0.295 -2.458,0.861 -3.545,1.521 -1.143,0.697 -2.193,1.579 -3.078,2.571 -0.865,1.002 -1.383,2.157 -1.85,3.391 -1.064,2.783 -1.847,5.706 -2.269,8.677 -0.427,2.81 -0.537,5.741 0.015,8.534 0.489,2.386 1.411,4.662 2.723,6.708 2.423,3.777 6.581,6.962 11.243,5.841 2.488,-0.573 4.619,-2.287 6.29,-4.145 1.632,-1.83 2.882,-3.982 3.803,-6.283 C 2.05,15.887 2.583,10.582 1.226,5.8 0.589,3.519 -0.61,1.459 -2.104,-0.386 c -1.617,-2.031 -3.623,-3.828 -5.893,-5.083 -2.079,-1.181 -4.401,-1.769 -6.798,-1.318 -2.104,0.406 -3.979,1.594 -5.482,3.081 -3.107,3.101 -4.912,7.658 -5.159,12.016 -0.1,1.89 0.162,3.762 0.563,5.595 0.405,1.968 0.962,3.89 1.697,5.749 1.45,3.676 3.574,7.365 6.791,9.763 3.422,2.537 7.971,2.689 11.634,0.528 4.352,-2.586 6.473,-7.845 7.398,-12.57 0.568,-2.845 0.543,-5.784 0,-8.63 C 2.062,5.797 0.909,2.946 -0.436,0.297 -0.58,-0.034 -0.152,-0.283 0,0" />
          </g>
          <g
             id="g36"
             transform="translate(453.0479,89.1348)">
            <path
               id="path34"
               style="fill:#ffffff;fill-opacity:1;fill-rule:nonzero;stroke:none"
               d="m 0,0 c 1.775,4.511 4.076,8.853 7.293,12.515 3.256,3.722 7.372,6.539 12.016,8.199 -0.041,0.158 -0.11,0.35 -0.181,0.505 C 14.863,18.984 10.904,16.324 7.662,12.743 4.218,8.942 1.797,4.349 -1.389,0.352 c 0.155,-0.048 0.32,-0.098 0.493,-0.157 -0.094,1.659 0.977,3.229 1.847,4.541 0.955,1.375 2.063,2.646 3.086,3.971 2.542,3.279 5.351,6.713 8.939,8.87 0.301,0.165 0.043,0.63 -0.24,0.47 C 9.11,15.874 6.271,12.411 3.688,9.139 2.579,7.702 1.444,6.343 0.43,4.884 -0.48,3.54 -1.502,1.905 -1.437,0.216 c 0.018,-0.267 0.315,-0.349 0.48,-0.122 3.168,3.882 5.532,8.369 8.856,12.123 3.215,3.61 7.222,6.297 11.479,8.546 0.268,0.094 0.097,0.571 -0.192,0.468 C 14.504,19.554 10.35,16.729 7.018,13.015 3.748,9.336 1.361,4.905 -0.449,0.316 -0.451,0.274 -0.491,0.204 -0.493,0.171 -0.619,-0.152 -0.126,-0.313 0,0" />
          </g>
          <g
             id="g40"
             transform="translate(518.0889,87.4717)">
            <path
               id="path38"
               style="fill:#ffffff;fill-opacity:1;fill-rule:nonzero;stroke:none"
               d="m 0,0 c -2.231,4.855 -5.852,8.722 -9.699,12.292 -0.974,0.93 -1.947,1.836 -2.949,2.72 -0.818,0.738 -1.757,1.32 -2.695,1.906 -1.903,1.207 -4.104,2.307 -5.489,4.174 -0.024,-0.156 -0.059,-0.307 -0.111,-0.447 1.867,0.38 3.609,-0.564 5.059,-1.673 1.747,-1.325 3.21,-3.109 4.446,-4.895 1.174,-1.636 2.193,-3.351 3.106,-5.12 1.302,-2.534 2.168,-5.27 3.181,-7.932 0.32,-0.848 0.555,-1.678 0.787,-2.581 0.21,-0.73 0.44,-1.452 0.979,-2.018 0.156,-0.154 0.427,-0.045 0.445,0.183 0.223,2.162 -0.579,4.356 -1.495,6.29 -1.024,2.096 -2.346,4.076 -3.849,5.829 -1.765,2.09 -3.491,4.231 -5.471,6.164 -0.925,0.927 -1.94,1.754 -3.034,2.479 -1.122,0.751 -2.322,1.437 -3.088,2.549 -0.042,-0.103 -0.123,-0.219 -0.175,-0.355 0.784,0.157 1.726,-0.353 2.406,-0.707 0.943,-0.454 1.862,-1.044 2.735,-1.595 2.06,-1.313 4.056,-2.589 5.788,-4.304 1.936,-1.859 3.638,-4.108 4.733,-6.583 1.176,-2.614 1.562,-5.514 2.361,-8.276 0.075,-0.269 0.476,-0.222 0.524,0.046 0.22,1.561 -0.45,2.945 -1.189,4.26 -0.874,1.521 -1.855,3.017 -2.875,4.443 -2.086,2.915 -4.416,5.682 -6.943,8.233 -0.229,0.251 -0.594,-0.11 -0.366,-0.347 2.343,-2.412 4.537,-4.999 6.554,-7.721 1.004,-1.377 1.911,-2.794 2.797,-4.257 0.851,-1.367 1.735,-2.889 1.5,-4.591 0.173,0.036 0.335,0.045 0.487,0.063 -0.807,2.8 -1.211,5.701 -2.384,8.41 -1.102,2.546 -2.916,4.876 -4.933,6.814 -1.789,1.711 -3.794,2.989 -5.865,4.307 -0.937,0.605 -1.866,1.168 -2.883,1.667 -0.701,0.34 -1.607,0.777 -2.428,0.646 -0.029,0.002 -0.075,0.003 -0.153,0.006 -0.143,-0.047 -0.256,-0.242 -0.156,-0.364 0.639,-0.966 1.517,-1.635 2.436,-2.235 1.14,-0.751 2.233,-1.514 3.244,-2.451 2.076,-1.912 3.816,-4.181 5.666,-6.285 1.497,-1.667 2.766,-3.554 3.823,-5.527 1.019,-1.987 1.94,-4.297 1.701,-6.588 0.155,0.051 0.298,0.107 0.462,0.173 -0.849,0.901 -0.929,2.325 -1.286,3.469 -0.514,1.501 -1.113,3.011 -1.703,4.512 -0.785,2.111 -1.669,4.163 -2.792,6.125 -1.052,1.851 -2.249,3.644 -3.595,5.295 -1.281,1.574 -2.78,3.133 -4.586,4.16 -1.237,0.698 -2.658,1.087 -4.085,0.804 -0.22,-0.039 -0.229,-0.281 -0.13,-0.433 1.283,-1.773 3.342,-2.885 5.164,-3.99 0.957,-0.597 1.866,-1.173 2.752,-1.871 1.004,-0.84 1.966,-1.804 2.921,-2.704 C -6.445,8.568 -2.686,4.668 -0.465,-0.22 -0.324,-0.548 0.15,-0.295 0,0" />
          </g>
          <g
             id="g44"
             transform="translate(458.2412,85.3242)">
            <path
               id="path42"
               style="fill:#ffffff;fill-opacity:1;fill-rule:nonzero;stroke:none"
               d="M 0,0 C -0.926,1.798 -2.83,2.586 -4.592,3.398 -4.862,3.522 -5.045,3.083 -4.823,2.918 -2.073,1.1 1.09,0.03 3.889,-1.639 3.979,-1.484 4.062,-1.325 4.124,-1.152 2.401,-0.46 0.731,0.367 -0.777,1.454 -0.854,1.296 -0.918,1.113 -0.999,0.983 1.361,0.167 3.922,-0.751 5.815,-2.442 6.082,-2.68 6.457,-2.318 6.199,-2.1 4.23,-0.344 1.616,0.629 -0.848,1.481 -1.143,1.573 -1.306,1.181 -1.069,1.015 0.495,-0.104 2.204,-0.933 3.972,-1.67 4.253,-1.779 4.439,-1.369 4.171,-1.192 1.372,0.447 -1.767,1.554 -4.536,3.358 -4.599,3.204 -4.662,3.03 -4.753,2.887 -3.138,2.128 -1.325,1.414 -0.471,-0.244 -0.311,-0.545 0.154,-0.319 0,0" />
          </g>
          <g
             id="g48"
             transform="translate(464.4014,83.6865)">
            <path
               id="path46"
               style="fill:#ffffff;fill-opacity:1;fill-rule:nonzero;stroke:none"
               d="m 0,0 c -0.317,-1.608 -0.406,-3.226 -0.658,-4.847 -0.24,-1.611 -0.556,-3.437 -1.604,-4.748 0.171,-0.021 0.322,-0.054 0.482,-0.075 -0.683,2.316 -0.011,5.032 0.653,7.274 0.676,2.299 1.646,4.834 3.272,6.617 C 2.014,4.296 1.854,4.369 1.733,4.44 1.749,3.09 1.243,1.755 0.778,0.498 0.29,-0.866 -0.104,-2.22 -0.423,-3.672 c -0.356,-1.644 -0.685,-3.286 -0.955,-4.925 -0.219,-1.541 -0.326,-3.119 -0.555,-4.65 -0.137,-0.884 -0.42,-1.829 -0.246,-2.747 0.158,-0.9 0.967,-1.339 1.758,-1.563 1.44,-0.386 2.982,-0.331 4.463,-0.343 1.651,-0.062 3.29,-0.228 4.954,-0.452 1.948,-0.239 3.888,-0.483 5.871,-0.557 2.051,-0.077 4.098,0.017 6.136,0.136 3.993,0.272 7.976,0.798 11.999,0.885 -0.05,0.178 -0.083,0.341 -0.134,0.485 -0.93,-0.445 -2.027,-0.342 -3.034,-0.305 -1.216,0.013 -2.424,-0.008 -3.649,-0.005 -2.528,0.019 -5.093,0.034 -7.597,0.171 -4.812,0.188 -9.65,0.689 -14.391,-0.036 -0.23,-0.034 -0.287,-0.318 -0.159,-0.426 0.566,-0.635 1.553,-0.672 2.359,-0.702 1.028,0.019 2.07,0.165 3.109,0.269 1.48,0.172 3.001,0.177 4.515,0.272 1.686,0.113 3.412,0.233 5.119,0.383 3.432,0.285 6.846,0.604 10.276,0.837 1.715,0.106 3.448,0.188 5.154,0.31 0.858,0.053 1.701,0.003 2.539,0.057 0.647,0.009 1.569,0.008 2.136,0.424 0.44,0.315 0.493,0.984 0.512,1.482 0.066,1.776 -0.456,3.577 -0.897,5.261 -0.499,1.89 -0.953,3.747 -1.701,5.553 -1.054,2.577 -2.514,4.955 -3.762,7.444 -0.127,-0.128 -0.246,-0.232 -0.364,-0.357 1.335,-0.63 2.21,-1.908 2.885,-3.167 0.755,-1.416 1.25,-2.904 1.648,-4.435 0.49,-1.899 0.477,-3.776 0.299,-5.719 -0.198,-2.002 -0.5,-3.971 -0.145,-5.933 0.046,-0.274 0.398,-0.258 0.512,-0.02 0.509,1.411 0.51,2.975 0.433,4.475 -0.12,1.587 -0.385,3.141 -0.648,4.738 -0.625,3.635 -1.261,7.218 -2.663,10.64 -0.155,-0.089 -0.3,-0.151 -0.464,-0.24 1.516,-3.155 3.413,-6.309 4.138,-9.773 0.136,0.075 0.29,0.145 0.465,0.239 -0.721,0.787 -0.099,1.914 0.394,2.638 0.517,0.869 1.22,1.636 1.961,2.359 2.108,1.992 5.12,3.724 8.09,3.874 C 49.887,3.063 49.855,3.24 49.814,3.413 47.795,1.997 45.177,1.139 42.758,0.75 c 0.08,-0.155 0.18,-0.263 0.289,-0.4 0.523,1.02 1.752,1.587 2.766,2.048 1.092,0.478 2.353,0.892 3.572,0.936 -0.062,0.163 -0.14,0.328 -0.182,0.491 C 47.69,2.514 45.654,1.963 43.838,1.143 42.224,0.419 40.756,-0.69 39.03,-1.092 c -3.289,-0.746 -4.532,4.1 -5.961,6.045 -0.19,0.245 -0.562,-0.031 -0.428,-0.283 1.578,-2.749 4.014,-4.95 5.068,-8.017 0.625,-1.843 0.911,-3.845 1.047,-5.803 0.144,-1.988 0.041,-4.003 -0.394,-5.968 0.2,-0.008 0.361,-0.014 0.522,-0.02 -0.542,5.309 -1.523,10.616 -1.283,15.967 -0.155,-0.042 -0.317,-0.073 -0.48,-0.11 1.558,-3.299 2.95,-6.991 2.973,-10.708 0.023,-1.636 -0.318,-3.387 -1.468,-4.65 -1.527,-1.729 -4.005,-1.874 -6.115,-2.161 -10.79,-1.345 -21.66,-1.004 -32.477,-1.786 -0.343,-0.025 -0.381,-0.51 -0.019,-0.522 12.992,-0.753 25.884,2.408 38.876,1.618 0.005,0.161 0.012,0.345 0.019,0.535 -6.282,-0.011 -12.569,-0.878 -18.864,-1.217 -3.15,-0.157 -6.325,-0.153 -9.45,0.135 -1.582,0.136 -3.169,0.429 -4.705,0.776 -1.338,0.296 -2.664,0.665 -3.897,1.242 -1.036,0.501 -1.969,1.253 -2.549,2.264 -0.814,1.332 -1.065,2.99 -1.179,4.529 -0.174,3.738 1.086,7.416 2.803,10.664 -0.121,0.071 -0.307,0.145 -0.446,0.245 -2.444,-6.115 -4.08,-12.754 -3.186,-19.335 0.053,-0.345 0.56,-0.259 0.516,0.09 -0.421,3.47 -0.621,6.98 -0.272,10.468 0.367,3.48 1.286,7.204 3.806,9.789 -0.148,0.087 -0.278,0.172 -0.436,0.269 -0.764,-3.92 -2.49,-7.623 -2.804,-11.67 -0.135,-1.819 0.067,-3.785 1.102,-5.359 1.286,-1.94 3.603,-2.749 5.796,-3.097 1.407,-0.214 2.823,-0.225 4.267,-0.231 1.607,-0.013 3.211,-0.026 4.828,0.014 3.461,0.026 6.925,0.125 10.39,0.024 3.408,-0.089 6.76,-0.709 10.184,-0.601 1.582,0.102 3.299,0.266 4.699,1.084 1.35,0.805 1.629,2.139 1.437,3.639 -0.286,2.234 -1.268,4.409 -2.026,6.524 -0.599,1.762 -0.94,3.579 -1.502,5.326 -0.542,1.778 -1.22,3.971 -2.675,5.214 -0.441,0.391 -1.39,0.959 -1.901,0.475 -0.502,-0.438 -0.082,-1.418 0.081,-1.88 0.298,-0.691 0.692,-1.291 1.107,-1.9 0.512,-0.784 1.063,-1.566 1.654,-2.31 0.472,-0.569 1.035,-1.279 1.736,-1.605 0.522,-0.224 0.916,0.104 1.326,0.407 1.37,1.061 2.55,2.38 3.915,3.536 0.874,0.752 2.122,1.066 3.227,1.385 1.153,0.361 2.401,0.69 3.425,1.388 2.059,1.405 0.736,4.163 -0.297,5.752 -1.848,2.934 -4.454,5.427 -7.04,7.701 -2.273,1.966 -4.699,3.963 -7.414,5.306 -0.306,0.178 -0.634,0.317 -0.982,0.411 -0.328,0.117 -0.471,-0.382 -0.151,-0.488 2.755,-1.026 5.176,-2.879 7.445,-4.713 1.81,-1.412 3.581,-2.858 5.125,-4.521 1.495,-1.691 2.92,-3.506 3.793,-5.56 C 50.154,6.365 50.47,5.408 50.265,4.514 50.047,3.5 48.872,2.859 48.02,2.42 47.446,2.109 46.82,1.862 46.191,1.582 45.438,1.268 44.729,0.848 43.955,0.492 c -0.948,-0.45 -1.914,-0.846 -2.949,-1.097 -0.48,-0.111 -0.958,-0.207 -1.462,-0.231 -0.231,-0.029 -0.448,-0.02 -0.657,-0.013 -0.061,-0.102 -0.062,-0.117 -10e-4,-0.038 0.051,0.075 0.081,0.145 0.114,0.262 0.116,0.305 -0.401,0.457 -0.509,0.129 -0.053,-0.142 -0.197,-0.221 -0.205,-0.411 -0.035,-0.155 0.177,-0.349 0.279,-0.409 0.186,-0.136 0.558,-0.06 0.805,-0.069 0.362,0.025 0.726,0.069 1.079,0.131 1.425,0.212 2.787,0.822 4.083,1.425 1.018,0.504 1.995,0.998 3.039,1.444 0.919,0.412 1.897,0.903 2.6,1.681 1.307,1.376 0.464,3.498 -0.308,4.963 -0.972,1.946 -2.408,3.701 -3.889,5.277 -1.544,1.651 -3.317,3.032 -5.071,4.434 -2.232,1.79 -4.61,3.528 -7.319,4.527 -0.044,-0.16 -0.098,-0.319 -0.151,-0.488 0.996,-0.322 1.933,-0.914 2.795,-1.512 1.374,-0.864 2.668,-1.834 3.904,-2.845 2.775,-2.276 5.475,-4.776 7.609,-7.67 C 48.83,8.587 51.052,5.477 49.205,3.878 48.331,3.122 46.989,2.835 45.932,2.499 44.778,2.166 43.501,1.83 42.544,1.134 41.175,0.11 40.032,-1.225 38.747,-2.308 c -0.245,-0.209 -0.5,-0.398 -0.772,-0.564 -0.213,-0.131 -0.371,-0.001 -0.567,0.125 -0.751,0.484 -1.337,1.31 -1.872,2.015 -0.497,0.698 -0.964,1.399 -1.44,2.134 -0.404,0.648 -0.815,1.357 -0.938,2.132 -0.151,1.022 1.324,-0.165 1.59,-0.44 0.676,-0.747 1.086,-1.709 1.481,-2.613 0.755,-1.88 1.243,-3.834 1.731,-5.8 0.51,-2.095 1.453,-4.056 2.051,-6.118 0.446,-1.531 1.006,-3.577 -0.426,-4.758 -1.226,-1.01 -3.141,-1.143 -4.645,-1.2 -1.866,-0.106 -3.762,0.022 -5.638,0.183 -1.488,0.137 -2.972,0.339 -4.453,0.38 -3.456,0.102 -6.919,-0.011 -10.379,-0.023 -3.025,-0.048 -6.148,-0.204 -9.146,0.194 -2.354,0.331 -4.771,1.249 -5.885,3.5 -1.257,2.475 -0.656,5.589 -0.045,8.146 0.63,2.638 1.627,5.162 2.183,7.823 C 1.614,3.053 1.33,3.291 1.122,3.071 -1.37,0.475 -2.39,-3.137 -2.787,-6.619 c -0.441,-3.672 -0.22,-7.405 0.224,-11.033 0.171,0.021 0.363,0.066 0.516,0.09 -0.887,6.505 0.765,13.053 3.157,19.065 0.133,0.267 -0.334,0.469 -0.466,0.236 -1.419,-2.641 -2.438,-5.454 -2.796,-8.411 -0.3,-2.441 -0.116,-5.37 1.249,-7.531 1.137,-1.839 3.199,-2.614 5.184,-3.164 2.97,-0.891 6.016,-1.262 9.089,-1.415 8.561,-0.349 17.006,1.331 25.521,1.292 0.36,-0.014 0.379,0.494 0.019,0.535 -12.991,0.797 -25.884,-2.39 -38.876,-1.631 -0.007,-0.166 -0.013,-0.365 -0.019,-0.522 6.727,0.47 13.478,0.546 20.227,0.843 3.323,0.146 6.649,0.369 9.987,0.701 1.641,0.166 3.274,0.365 4.917,0.613 0.948,0.159 1.863,0.468 2.678,0.945 2.665,1.601 3.026,4.891 2.685,7.721 -0.364,3.212 -1.577,6.342 -2.941,9.272 -0.105,0.223 -0.49,0.109 -0.5,-0.137 -0.219,-5.381 0.776,-10.754 1.289,-16.096 0.029,-0.259 0.484,-0.275 0.522,-0.021 0.819,3.857 0.569,8.096 -0.628,11.9 -0.984,3.174 -3.512,5.463 -5.155,8.266 -0.136,-0.075 -0.264,-0.194 -0.429,-0.283 1.647,-2.215 2.655,-6.738 6.237,-6.268 1.797,0.256 3.401,1.474 4.997,2.245 1.909,0.936 4.036,1.408 5.686,2.829 0.167,0.137 0.036,0.469 -0.183,0.448 C 48.118,3.81 46.849,3.405 45.688,2.884 44.541,2.446 43.187,1.779 42.583,0.643 c -0.095,-0.235 0.069,-0.44 0.298,-0.411 1.292,0.209 2.541,0.589 3.755,1.024 1.195,0.439 2.392,0.97 3.408,1.692 0.195,0.141 0.209,0.491 -0.085,0.488 -3.201,-0.165 -6.366,-1.971 -8.615,-4.148 -0.867,-0.833 -1.655,-1.792 -2.245,-2.849 -0.432,-0.886 -0.73,-1.978 -0.018,-2.751 0.172,-0.224 0.503,-0.018 0.456,0.24 -0.715,3.496 -2.63,6.68 -4.183,9.88 -0.16,0.296 -0.577,0.064 -0.464,-0.24 1.367,-3.349 1.966,-6.883 2.567,-10.379 0.266,-1.526 0.522,-3.047 0.645,-4.582 0.125,-1.492 0.131,-3.074 -0.377,-4.501 0.161,-0.005 0.323,-0.011 0.512,-0.019 -0.379,2.087 0.008,4.267 0.209,6.347 0.158,1.932 0.047,3.78 -0.463,5.667 -0.398,1.545 -0.951,3.039 -1.714,4.446 -0.704,1.275 -1.626,2.513 -2.971,3.139 -0.226,0.097 -0.479,-0.092 -0.375,-0.362 1.327,-2.644 2.895,-5.165 3.998,-7.933 0.757,-1.878 1.183,-3.942 1.65,-5.927 0.259,-0.955 0.459,-1.942 0.622,-2.95 0.042,-0.648 0.188,-1.562 -0.205,-2.16 -0.152,-0.26 -0.618,-0.272 -0.877,-0.319 -0.515,-0.085 -1.058,-0.107 -1.591,-0.126 -0.99,-0.006 -1.96,-0.03 -2.969,-0.078 -2.8,-0.171 -5.62,-0.337 -8.422,-0.545 -2.804,-0.236 -5.618,-0.535 -8.429,-0.749 -2.47,-0.173 -4.969,-0.183 -7.44,-0.457 -0.851,-0.116 -1.729,-0.215 -2.604,-0.235 -0.695,-0.055 -1.714,-0.069 -2.244,0.498 -0.043,-0.147 -0.077,-0.297 -0.14,-0.437 4.933,0.77 9.93,0.179 14.883,-0.007 2.516,-0.094 5.081,-0.128 7.656,-0.139 1.141,0.014 2.319,0.003 3.497,-0.027 0.929,-0.035 1.938,-0.006 2.801,0.437 0.241,0.091 0.18,0.497 -0.087,0.478 -6.811,-0.177 -13.57,-1.468 -20.372,-0.871 -1.686,0.144 -3.387,0.369 -5.063,0.561 -1.619,0.175 -3.203,0.262 -4.827,0.295 -0.74,0.013 -1.471,0.04 -2.228,0.169 -0.614,0.07 -1.369,0.236 -1.845,0.668 -0.671,0.623 -0.353,1.781 -0.229,2.546 0.271,1.424 0.355,2.89 0.543,4.341 0.261,1.882 0.616,3.741 1.019,5.626 0.34,1.485 0.717,2.915 1.276,4.377 0.457,1.281 0.993,2.667 0.94,4.061 -0.02,0.2 -0.261,0.381 -0.429,0.202 -1.724,-1.875 -2.704,-4.461 -3.432,-6.852 -0.704,-2.331 -1.371,-5.167 -0.663,-7.565 0.077,-0.23 0.332,-0.254 0.481,-0.103 1.009,1.307 1.339,3.019 1.608,4.601 0.263,1.716 0.367,3.442 0.695,5.125 C 0.566,0.165 0.069,0.345 0,0" />
          </g>
          <g
             id="g52"
             transform="translate(467.5088,107.2881)">
            <path
               id="path50"
               style="fill:#ffffff;fill-opacity:1;fill-rule:nonzero;stroke:none"
               d="m 0,0 c -2.523,-1.653 -4.975,-3.401 -7.288,-5.306 -2.184,-1.819 -4.078,-3.825 -6.022,-5.847 -0.777,-0.803 -1.505,-1.607 -2.128,-2.496 -0.517,-0.737 -0.973,-1.622 -0.764,-2.509 0.218,-0.93 1.111,-1.672 1.815,-2.274 0.827,-0.633 1.724,-1.195 2.555,-1.839 1.622,-1.249 3.636,-2.151 4.885,-3.818 0.109,0.143 0.2,0.282 0.282,0.426 -2.003,0.588 -3.282,2.457 -4.493,3.994 -1.261,1.625 -2.586,3.391 -4.538,4.214 -0.182,0.064 -0.409,-0.147 -0.33,-0.334 0.461,-1.286 1.524,-2.201 2.644,-2.96 1.337,-0.887 2.827,-1.556 4.275,-2.246 0.638,-0.338 1.253,-0.651 1.866,-1.044 0.649,-0.425 1.239,-0.898 1.992,-1.135 1.342,-0.426 2.395,1.041 3.234,1.87 0.256,0.218 -0.092,0.577 -0.346,0.383 -0.932,-0.768 -1.912,-1.544 -3.108,-1.755 -1.244,-0.234 -2.596,0.206 -3.727,0.714 -2.285,1.026 -4.335,3.014 -4.903,5.511 -0.598,2.65 1.002,5.3 2.542,7.328 1.747,2.248 3.955,4.104 6.271,5.762 1.513,1.05 3.088,1.994 4.788,2.748 1.769,0.807 3.583,1.529 5.13,2.725 -0.152,0.034 -0.283,0.054 -0.406,0.086 1.545,-3.175 4.958,-5.423 8.401,-5.87 4.002,-0.496 7.482,1.86 11.239,2.683 -0.081,0.127 -0.162,0.243 -0.271,0.381 -0.674,-1.254 -2.062,-1.744 -3.399,-1.926 -1.434,-0.232 -2.962,-0.16 -4.37,0.035 C 12.338,-2.007 9.72,0.667 6.402,1.699 6.168,1.765 5.987,1.529 6.095,1.311 c 0.849,-1.653 2.669,-2.557 4.348,-3.132 1.999,-0.694 4.116,-1.015 6.232,-1.118 2.115,-0.103 4.249,0.026 6.329,0.499 1.208,0.259 2.402,0.685 3.425,1.355 1.011,0.604 1.796,1.51 2.459,2.459 0.773,1.117 1.435,2.322 2.041,3.521 0.615,1.199 1.222,2.407 1.603,3.723 0.81,2.812 0.658,5.887 -0.226,8.657 -0.819,2.506 -2.076,4.967 -3.671,7.033 -1.523,1.981 -3.527,3.796 -5.953,4.466 -2.418,0.666 -5.078,0.423 -7.45,-0.176 C 12.901,28.015 10.627,26.931 8.974,25.149 5.686,21.633 5.859,16.374 5.69,11.867 5.597,10.107 5.53,8.342 5.684,6.573 5.811,4.915 6.087,3.155 7.004,1.733 7.168,1.812 7.333,1.906 7.459,1.978 5.736,4.451 4.902,7.291 4.919,10.289 c -0.014,2.661 0.662,5.25 1.422,7.764 1.087,3.623 2.299,7.565 4.949,10.331 1.257,1.316 2.885,2.164 4.737,2.122 1.064,0.003 2.124,-0.364 3.109,-0.734 0.994,-0.356 1.994,-0.793 2.865,-1.385 3.445,-2.163 5.572,-5.792 6.626,-9.62 C 30.043,13.458 29.606,7.61 27.872,2.43 27.808,2.232 28.036,2.005 28.231,2.141 c 1.178,0.729 1.544,2.379 1.754,3.665 0.311,1.955 0.358,3.987 0.299,5.956 -0.094,3.843 -0.412,7.786 -2.598,11.065 -2.628,3.939 -7.266,5.719 -11.87,5.862 C 13.747,28.767 11.614,28.387 9.779,27.366 7.816,26.237 6.446,24.408 5.59,22.377 4.402,19.594 4.256,16.435 4.41,13.459 4.49,12.021 4.654,10.565 4.953,9.167 5.287,7.695 5.761,6.123 5.448,4.615 5.582,4.643 5.745,4.693 5.89,4.73 4.687,5.86 4.377,7.743 4.179,9.314 c -0.231,1.938 -0.148,3.926 0.116,5.87 0.26,2.114 0.987,4.031 2.063,5.877 1.33,2.254 3.021,4.258 4.371,6.513 0.171,0.282 -0.257,0.541 -0.438,0.268 C 7.762,24.235 5.308,20.644 4.241,16.307 3.685,14.108 3.333,11.851 3.173,9.604 3.001,7.301 3.141,4.924 3.799,2.709 3.962,2.75 4.128,2.844 4.291,2.895 3.147,4.848 2.923,7.247 2.844,9.431 c -0.073,2.397 0.134,4.851 0.537,7.222 0.479,2.681 1.457,5.144 3.088,7.345 0.871,1.17 1.902,2.319 3.202,3.03 1.058,0.56 2.269,0.704 3.412,0.746 0.991,0.079 1.962,0.118 2.928,0.267 0.352,0.039 0.211,0.563 -0.133,0.518 C 13.594,28.212 11.134,28.532 9.054,27.266 7.904,26.553 6.952,25.481 6.134,24.438 5.234,23.278 4.522,22.013 3.959,20.686 3.053,18.547 2.726,16.193 2.488,13.901 2.246,11.502 2.212,9.056 2.559,6.647 2.755,5.286 3.111,3.885 3.825,2.65 3.978,2.407 4.41,2.534 4.308,2.837 c -1.314,4.278 -0.565,9.051 0.44,13.304 1.018,4.31 3.499,7.857 5.981,11.433 -0.141,0.081 -0.289,0.186 -0.438,0.268 C 8.854,25.529 7.123,23.427 5.741,21.046 4.662,19.171 4.02,17.228 3.722,15.101 3.495,13.104 3.457,11.071 3.695,9.07 3.861,7.439 4.246,5.52 5.515,4.355 5.634,4.242 5.891,4.256 5.945,4.453 6.242,5.787 5.979,7.132 5.667,8.422 5.323,9.898 5.093,11.353 4.987,12.853 4.741,15.941 4.9,19.148 6.044,22.051 c 0.863,2.216 2.405,4.078 4.526,5.138 2.005,0.98 4.301,1.137 6.459,0.894 2.444,-0.233 4.88,-0.914 6.93,-2.265 1.948,-1.275 3.436,-3.151 4.373,-5.281 0.799,-1.765 1.097,-3.701 1.233,-5.631 0.177,-1.878 0.248,-3.786 0.186,-5.704 C 29.719,7.849 29.603,6.494 29.314,5.15 29.12,4.269 28.819,3.106 28.002,2.604 c 0.11,-0.098 0.238,-0.221 0.359,-0.298 1.293,3.81 1.836,7.906 1.531,11.919 -0.29,3.93 -1.406,7.879 -3.788,11.047 -1.148,1.554 -2.637,2.893 -4.322,3.87 -1.729,1.001 -3.836,1.849 -5.878,1.896 C 12.086,31.12 9.608,27.63 8.143,24.515 6.739,21.593 5.754,18.355 5.009,15.214 3.922,10.563 4.196,5.712 7.004,1.733 7.174,1.466 7.657,1.709 7.459,1.978 6.139,4.032 6.118,6.78 6.12,9.123 c 0.023,2.365 0.13,4.728 0.276,7.103 0.165,2.361 0.541,4.813 1.761,6.915 1.252,2.219 3.388,3.666 5.758,4.517 2.408,0.842 5.12,1.205 7.681,0.815 2.656,-0.418 4.784,-2.199 6.447,-4.243 1.705,-2.154 3.024,-4.775 3.855,-7.429 0.898,-2.943 0.853,-6.167 -0.214,-9.055 C 31.198,6.481 30.515,5.238 29.89,4.045 29.246,2.82 28.536,1.644 27.633,0.618 25.906,-1.341 23.24,-1.982 20.737,-2.293 18.752,-2.523 16.739,-2.49 14.725,-2.225 12.615,-1.96 10.408,-1.502 8.549,-0.401 7.711,0.071 6.983,0.712 6.569,1.574 6.451,1.459 6.342,1.326 6.223,1.212 c 1.776,-0.547 3.316,-1.541 4.946,-2.447 1.544,-0.9 3.199,-1.619 4.986,-1.851 2.537,-0.29 6.467,-0.413 7.905,2.184 0.084,0.211 -0.079,0.46 -0.289,0.411 C 20.195,-1.285 16.953,-3.367 13.187,-3.188 9.705,-3.016 6.22,-0.676 4.673,2.434 4.603,2.598 4.412,2.605 4.276,2.496 1.995,0.752 -0.883,0.032 -3.313,-1.439 c -2.286,-1.374 -4.476,-3.017 -6.405,-4.878 -1.896,-1.826 -3.56,-3.982 -4.552,-6.463 -0.902,-2.267 -0.426,-4.665 0.994,-6.596 1.31,-1.797 3.339,-3.066 5.457,-3.626 1.007,-0.274 2.078,-0.372 3.088,-0.034 1.019,0.317 1.883,1.05 2.716,1.732 -0.11,0.123 -0.238,0.237 -0.346,0.383 -0.553,-0.549 -1.061,-1.152 -1.694,-1.552 -0.489,-0.385 -0.988,-0.253 -1.493,-0.03 -0.642,0.339 -1.178,0.801 -1.773,1.126 -0.557,0.35 -1.145,0.647 -1.734,0.911 -1.305,0.662 -2.604,1.263 -3.84,2.017 -1.034,0.676 -2.185,1.536 -2.618,2.788 -0.108,-0.087 -0.222,-0.211 -0.33,-0.311 1.969,-0.829 3.267,-2.732 4.541,-4.352 1.188,-1.546 2.52,-3.264 4.485,-3.827 0.254,-0.081 0.426,0.213 0.273,0.422 -0.78,1.003 -1.874,1.738 -2.889,2.431 -0.986,0.679 -1.953,1.404 -2.925,2.049 -0.941,0.683 -1.92,1.303 -2.705,2.155 -0.305,0.349 -0.636,0.779 -0.67,1.265 -0.067,0.512 0.195,1.038 0.453,1.446 0.56,1.011 1.376,1.845 2.149,2.671 0.851,0.891 1.688,1.81 2.552,2.691 2.136,2.181 4.512,4.087 6.945,5.902 1.288,0.902 2.577,1.78 3.893,2.653 C 0.531,-0.263 0.293,0.188 0,0" />
          </g>
          <g
             id="g56"
             transform="translate(429.5518,118.3809)">
            <path
               id="path54"
               style="fill:#ffffff;fill-opacity:1;fill-rule:nonzero;stroke:none"
               d="M 0,0 C 0.337,-0.013 0.357,0.524 0.02,0.537 -0.312,0.549 -0.333,0.013 0,0" />
          </g>
          <g
             id="g60"
             transform="translate(431.1689,104.6201)">
            <path
               id="path58"
               style="fill:#ffffff;fill-opacity:1;fill-rule:nonzero;stroke:none"
               d="m 0,0 c 1.468,-1.789 2.844,-3.775 4.759,-5.154 1.896,-1.382 4.102,-1.503 6.2,-0.432 4.381,2.269 6.714,7.09 7.508,11.774 0.679,3.82 0.626,8.084 -1.172,11.617 -1.744,3.41 -5.74,5.713 -9.608,4.968 C 3.926,22.064 1.653,18.353 0.388,15.026 -1.096,11.199 -2.014,6.605 -0.341,2.693 0.615,0.419 2.45,-1.337 4.401,-2.77 c 1.98,-1.466 4.432,-2.845 6.976,-2.56 1.955,0.178 3.592,1.746 4.753,3.191 1.28,1.577 2.184,3.53 2.842,5.457 1.274,3.812 1.69,8.326 0.458,12.202 -1.22,3.866 -4.715,6.986 -8.904,6.54 C 6.682,21.666 3.229,18.678 1.959,15.101 0.775,11.804 0.739,8.042 1.229,4.649 1.66,1.425 2.784,-2.31 5.605,-4.235 c 3.916,-2.665 8.602,0.624 10.892,3.907 1.517,2.167 2.147,4.913 2.231,7.544 0.093,2.748 -0.514,5.427 -1.695,7.923 -0.987,2.028 -2.379,4.204 -4.464,5.261 -1.911,0.998 -3.937,0.428 -5.577,-0.832 -0.758,-0.569 -1.388,-1.302 -1.986,-2.03 -0.215,-0.268 0.237,-0.527 0.441,-0.273 1.54,1.905 3.778,3.797 6.373,2.916 2.275,-0.803 3.731,-3.267 4.757,-5.31 C 18.955,9.991 18.972,3.305 15.341,-1.003 13.707,-2.895 11.314,-4.706 8.734,-4.714 7.056,-4.731 5.571,-3.764 4.528,-2.551 2.175,0.204 1.568,4.29 1.485,7.79 c -0.063,3.371 0.333,6.996 2.419,9.774 2.565,3.388 7.265,5.284 11.17,2.957 3.764,-2.276 4.713,-6.997 4.517,-11.076 C 19.368,5.271 18.024,0.731 15.196,-2.432 14.571,-3.136 13.841,-3.746 13.034,-4.219 11.896,-4.913 10.61,-4.998 9.296,-4.682 7.953,-4.381 6.724,-3.702 5.573,-2.951 4.479,-2.254 3.43,-1.436 2.509,-0.522 0.687,1.31 -0.466,3.662 -0.692,6.237 c -0.175,2.055 0.265,4.162 0.767,6.149 0.937,3.581 2.722,7.715 6.264,9.403 3.75,1.783 8.304,-0.469 10.282,-3.841 2.023,-3.472 1.988,-7.943 1.322,-11.782 C 17.547,3.861 16.829,1.684 15.624,-0.295 14.246,-2.577 12.069,-4.866 9.459,-5.653 5.399,-6.837 2.543,-2.291 0.36,0.348 0.156,0.612 -0.232,0.256 0,0" />
          </g>
          <g
             id="g64"
             transform="translate(523.5654,108.3281)">
            <path
               id="path62"
               style="fill:#ffffff;fill-opacity:1;fill-rule:nonzero;stroke:none"
               d="m 0,0 c 0.441,-3.686 1.169,-8.616 5.263,-9.957 2.093,-0.702 4.19,-0.034 5.628,1.561 1.3,1.476 2.095,3.443 2.434,5.36 0.209,1.255 0.191,2.53 0.154,3.819 -0.045,1.609 -0.231,3.269 -0.501,4.885 -0.525,2.766 -1.386,6.172 -3.692,8.051 -2.6,2.116 -5.899,0.083 -7.808,-1.956 -2.78,-2.88 -3.937,-7.122 -3.571,-11.058 0.364,-3.999 2.429,-7.746 5.975,-9.709 1.341,-0.744 2.864,-1.171 4.389,-0.829 1.303,0.298 2.345,1.205 3.155,2.253 1.921,2.56 2.556,6.11 2.817,9.247 0.103,1.493 0.113,3.013 -0.107,4.499 -0.254,1.863 -0.887,3.721 -1.698,5.43 -0.873,1.838 -2.204,3.836 -4.281,4.436 C 6.239,16.599 4.462,15.354 3.27,13.944 1.108,11.331 -0.031,8.061 -0.478,4.756 -1.136,-0.114 -0.752,-9.923 6.519,-8.66 c 8.589,1.47 11.346,12.652 7.257,19.426 -1.191,1.94 -3.11,3.737 -5.462,4.153 C 5.83,15.302 3.481,14.021 1.864,12.191 -1.008,8.872 -1.558,3.847 -0.764,-0.342 c 0.036,-0.314 0.544,-0.205 0.508,0.11 -0.853,4.376 -0.119,9.769 3.325,12.896 1.022,0.883 2.243,1.522 3.563,1.743 1.406,0.237 2.823,-0.233 3.993,-0.991 1.938,-1.298 3.216,-3.452 3.913,-5.64 C 15.778,3.823 15.167,-0.82 12.692,-4.191 11.44,-5.907 9.683,-7.157 7.69,-7.806 6.237,-8.317 4.576,-8.502 3.196,-7.774 c -2.636,1.385 -3.221,5.076 -3.369,7.728 -0.153,3.015 0.188,6.257 1.281,9.081 0.708,1.899 1.721,3.822 3.191,5.246 0.719,0.681 1.597,1.261 2.616,1.351 1.078,0.097 2.084,-0.439 2.887,-1.106 1.69,-1.547 2.628,-3.923 3.279,-6.077 0.421,-1.456 0.661,-2.914 0.689,-4.441 0.081,-4.684 -1.612,-15.863 -8.764,-12.968 -3.895,1.576 -6.131,5.576 -6.569,9.594 -0.457,4.061 0.905,8.439 3.881,11.268 1.203,1.12 2.783,2.205 4.454,2.201 1.266,0.023 2.33,-0.753 3.072,-1.736 C 10.808,11.2 11.37,9.72 11.791,8.278 12.282,6.658 12.59,4.988 12.765,3.31 13.107,0.284 13.181,-2.846 11.952,-5.694 11.097,-7.72 9.467,-9.635 7.116,-9.709 4.832,-9.784 3.025,-8.301 2.053,-6.34 1.053,-4.359 0.769,-2.048 0.499,0.129 0.483,0.472 -0.054,0.335 0,0" />
          </g>
          <g
             id="g68"
             transform="translate(415.5674,93.4336)">
            <path
               id="path66"
               style="fill:#ffffff;fill-opacity:1;fill-rule:nonzero;stroke:none"
               d="m 0,0 c -0.35,-0.575 -0.505,-1.159 -0.425,-1.842 0.022,-0.177 0.317,-0.273 0.45,-0.14 1.814,1.989 3.268,4.253 4.954,6.367 1.794,2.261 4.098,3.985 6.164,5.985 0.226,0.215 -0.039,0.514 -0.313,0.41 C 4.667,8.27 3.203,1.272 0.08,-3.933 0.222,-3.98 0.396,-4.002 0.539,-4.021 c -0.12,1.369 0.718,2.687 1.428,3.762 0.82,1.215 1.769,2.315 2.644,3.484 1.042,1.411 1.979,2.825 3.149,4.135 1.229,1.352 2.568,2.579 3.943,3.774 -0.128,0.123 -0.261,0.252 -0.359,0.402 C 8.011,7.835 4.488,4.247 2.285,-0.271 1.788,-1.354 1.386,-2.461 0.955,-3.557 0.78,-4.03 0.542,-4.54 0.901,-4.98 c 0.21,-0.25 0.551,-0.411 0.84,-0.544 0.475,-0.286 0.973,-0.532 1.47,-0.736 1.217,-0.488 2.516,-0.835 3.75,-1.229 0.241,-0.052 0.495,0.281 0.26,0.447 -1.06,0.896 -2.558,1.621 -3.999,1.462 -0.225,-0.034 -0.267,-0.381 -0.085,-0.491 0.735,-0.413 1.554,-0.743 2.345,-1.063 0.736,-0.298 1.582,-0.639 2.368,-0.359 0.896,0.342 1.574,1.29 2.125,2.034 0.684,0.888 1.229,1.869 1.955,2.735 0.197,0.193 -0.012,0.553 -0.303,0.411 C 10.56,-2.914 9.959,-3.989 9.526,-5.119 9.069,-6.407 8.786,-7.742 8.476,-9.052 7.6,-12.649 7.647,-16.448 6.482,-20.002 c 0.175,-0.05 0.35,-0.069 0.521,-0.091 0.338,3.946 -0.495,8.103 1.086,11.873 -0.175,0.026 -0.35,0.061 -0.519,0.091 -0.252,-3.546 -0.819,-7.268 0.05,-10.813 0.399,-1.55 1.213,-3.044 2.597,-3.894 0.812,-0.511 1.676,-0.69 2.579,-0.791 1.452,-0.178 2.898,-0.269 4.338,-0.271 2.269,-0.042 4.629,0.011 6.845,0.56 2.375,0.624 4.54,1.798 6.861,2.509 -0.065,0.169 -0.116,0.327 -0.181,0.506 -2.238,-1.133 -4.868,-1.705 -7.372,-1.559 -2.3,0.144 -4.699,1.037 -6.943,0.346 -0.218,-0.077 -0.284,-0.364 -0.105,-0.495 1.762,-1.172 4.255,-0.839 6.213,-0.565 2.18,0.323 4.298,0.917 6.474,1.15 1.998,0.186 4.258,0.529 4.991,2.725 0.333,1.005 0.364,2.101 0.361,3.171 -0.031,1.194 -0.154,2.359 -0.308,3.561 -0.212,1.433 -0.441,2.835 -1.083,4.175 -0.718,1.662 -1.841,3.129 -2.438,4.838 -0.145,-0.084 -0.296,-0.164 -0.441,-0.244 1.812,-1.826 2.485,-4.408 2.853,-6.898 0.406,-2.528 0.44,-5.13 0.935,-7.653 0.069,-0.32 0.499,-0.246 0.511,0.052 0.241,5.167 -2.963,9.573 -3.969,14.548 -0.147,-0.085 -0.292,-0.174 -0.452,-0.254 1.771,-1.804 2.485,-4.427 3.2,-6.777 0.361,-1.14 0.689,-2.278 1.163,-3.356 0.552,-1.256 1.329,-2.46 1.538,-3.84 0.243,-1.492 -0.879,-2.41 -2.04,-3.079 -1.069,-0.621 -2.276,-1.007 -3.461,-1.319 -2.418,-0.599 -4.93,-0.809 -7.395,-0.897 -1.619,-0.063 -3.211,-0.099 -4.801,-0.039 -0.815,0.064 -1.616,0.108 -2.424,0.229 -0.775,0.123 -1.521,0.261 -2.3,0.033 -0.229,-0.044 -0.286,-0.417 -0.018,-0.483 2.857,-0.735 5.846,-0.495 8.762,-0.273 1.41,0.077 2.807,0.191 4.213,0.185 1.012,0.01 2.003,-0.074 3.031,-0.042 1.887,0.034 4.275,0.226 4.999,2.288 0.373,1.084 0.187,2.322 -0.015,3.403 -0.214,1.273 -0.512,2.572 -0.788,3.818 -0.756,3.297 -2.055,6.44 -3.095,9.624 -0.149,-0.08 -0.309,-0.163 -0.441,-0.244 1.174,-1.123 1.854,-2.878 2.41,-4.41 0.729,-1.961 1.255,-4.058 1.361,-6.172 0.089,-1.534 -0.023,-3.536 -1.52,-4.419 -0.87,-0.524 -1.938,-0.727 -2.947,-0.893 -1.08,-0.183 -2.172,-0.299 -3.252,-0.425 -2.844,-0.321 -5.568,-1.102 -8.424,-1.257 -2.415,-0.151 -4.853,0.253 -7.163,0.987 -0.964,0.278 -1.953,0.661 -2.774,1.292 -0.879,0.664 -1.09,1.874 -1.156,2.893 -0.136,2.577 1.122,5.096 2.277,7.277 0.907,1.728 1.948,3.395 2.691,5.192 0.078,0.184 -0.129,0.381 -0.321,0.335 -3.184,-0.897 -3.668,-5.052 -3.819,-7.83 -0.22,-3.561 0.267,-7.072 0.318,-10.633 0.02,-0.258 0.011,-0.485 0.002,-0.726 0.158,0.031 0.322,0.082 0.494,0.118 -1.527,2.999 -1.773,6.582 -1.393,9.875 0.381,3.302 1.576,6.912 4.238,9.098 0.274,0.213 -0.089,0.559 -0.357,0.36 C 9.324,-4.55 7.274,-4.849 5.618,-4.925 4.119,-4.973 1.505,-4.728 1.2,-2.854 1.048,-1.831 1.656,-0.68 2.117,0.196 2.608,1.147 3.176,2.077 3.742,2.992 5.175,5.333 6.987,7.413 8.988,9.31 9.233,9.515 8.878,9.918 8.638,9.714 6.574,7.785 4.784,5.685 3.302,3.274 2.709,2.294 2.131,1.342 1.62,0.367 1.124,-0.569 0.652,-1.602 0.675,-2.677 c 0.029,-1.869 2.17,-2.576 3.694,-2.733 1.908,-0.176 3.964,0.161 5.704,0.96 0.333,0.131 0.674,0.327 0.963,0.558 -0.119,0.123 -0.242,0.261 -0.357,0.36 -2.72,-2.197 -3.915,-5.793 -4.372,-9.15 -0.473,-3.456 -0.185,-7.297 1.414,-10.436 0.119,-0.247 0.484,-0.147 0.494,0.115 0.053,1.428 -0.093,2.868 -0.172,4.307 -0.113,1.915 -0.227,3.847 -0.197,5.771 0.03,1.833 0.153,3.701 0.722,5.448 0.426,1.362 1.246,2.695 2.679,3.144 0.01,0 0.068,0.027 0.068,0.027 -0.086,0.113 -0.182,0.221 -0.31,0.334 -0.928,-2.284 -2.327,-4.375 -3.4,-6.606 -1.025,-2.143 -1.845,-4.507 -1.465,-6.916 0.137,-0.908 0.465,-1.78 1.189,-2.383 0.752,-0.617 1.712,-0.986 2.632,-1.301 2.111,-0.711 4.452,-1.145 6.666,-1.158 2.998,0.003 5.843,0.818 8.766,1.208 2.073,0.297 4.275,0.343 6.279,1.085 0.737,0.258 1.39,0.675 1.869,1.308 0.428,0.631 0.608,1.383 0.711,2.089 0.271,1.932 -0.107,3.995 -0.598,5.867 -0.35,1.415 -0.854,2.811 -1.465,4.141 -0.485,0.992 -1.002,2.057 -1.799,2.819 -0.184,0.169 -0.537,0.02 -0.444,-0.249 0.991,-3.017 2.158,-5.984 2.95,-9.049 0.327,-1.32 0.572,-2.645 0.845,-3.962 0.246,-1.173 0.467,-2.503 0.048,-3.661 -0.393,-1.092 -1.472,-1.48 -2.481,-1.67 -1.111,-0.21 -2.268,-0.167 -3.389,-0.125 -2.62,0.06 -5.194,-0.152 -7.8,-0.32 -2.199,-0.118 -4.472,-0.128 -6.625,0.38 -0.005,-0.132 -0.012,-0.332 -0.017,-0.483 0.783,0.227 1.584,0.055 2.363,-0.089 0.869,-0.138 1.747,-0.171 2.615,-0.203 1.552,-0.058 3.117,-0.012 4.679,0.067 2.431,0.071 4.873,0.298 7.265,0.878 1.176,0.303 2.302,0.689 3.354,1.224 1.008,0.519 1.999,1.227 2.423,2.275 0.46,1.096 -0.03,2.345 -0.463,3.364 -0.529,1.221 -1.141,2.4 -1.589,3.647 -1.01,2.955 -1.606,6.428 -3.845,8.736 -0.197,0.193 -0.478,0.018 -0.436,-0.254 0.98,-4.899 4.171,-9.271 3.941,-14.386 0.172,0.023 0.354,0.016 0.525,0.038 -0.522,2.561 -0.561,5.21 -0.967,7.806 -0.376,2.519 -1.119,5.136 -2.946,6.992 -0.183,0.191 -0.536,0.019 -0.468,-0.211 0.905,-2.581 2.766,-4.657 3.246,-7.346 0.41,-2.239 0.748,-4.632 0.506,-6.914 -0.127,-1.102 -0.456,-2.136 -1.42,-2.773 -0.93,-0.584 -2.141,-0.696 -3.2,-0.797 -2.176,-0.224 -4.283,-0.791 -6.435,-1.138 -1.897,-0.305 -4.402,-0.695 -6.084,0.456 -0.033,-0.141 -0.078,-0.33 -0.084,-0.467 2.303,0.712 4.805,-0.232 7.128,-0.357 2.487,-0.109 5.119,0.515 7.326,1.593 0.263,0.141 0.094,0.599 -0.181,0.509 -2.925,-0.882 -5.576,-2.457 -8.616,-2.822 -2.922,-0.375 -5.9,-0.33 -8.801,-0.026 -1.014,0.094 -2.011,0.227 -2.903,0.798 -0.691,0.424 -1.214,1.09 -1.599,1.798 -0.881,1.606 -1.076,3.547 -1.117,5.355 -0.073,2.355 0.234,4.701 0.398,7.057 0.012,0.313 -0.41,0.352 -0.52,0.076 -1.593,-3.794 -0.766,-8.012 -1.092,-12.001 -0.048,-0.288 0.424,-0.377 0.491,-0.089 1.088,3.295 1.169,6.837 1.862,10.227 0.249,1.322 0.584,2.672 0.995,3.989 0.345,1.203 0.874,2.518 2.058,3.181 -0.11,0.128 -0.208,0.293 -0.313,0.408 C 10.341,-3.8 9.546,-5.86 7.845,-6.876 7.153,-7.325 6.322,-6.904 5.635,-6.622 4.881,-6.336 4.132,-6.019 3.42,-5.617 3.395,-5.791 3.374,-5.947 3.341,-6.094 c 1.221,0.116 2.602,-0.539 3.51,-1.319 0.1,0.139 0.181,0.282 0.267,0.433 -1.085,0.343 -2.195,0.656 -3.282,1.029 -0.801,0.315 -1.829,0.686 -2.49,1.282 -0.335,0.313 0.245,1.235 0.342,1.536 0.431,1.219 0.926,2.374 1.504,3.488 2.164,4.101 5.443,7.386 8.511,10.779 0.199,0.234 -0.109,0.607 -0.359,0.402 C 9.923,10.277 8.549,9.018 7.295,7.616 6.104,6.296 5.156,4.84 4.114,3.4 3.178,2.129 2.146,0.965 1.294,-0.348 0.563,-1.465 -0.103,-2.752 0.03,-4.13 0.064,-4.364 0.405,-4.406 0.502,-4.219 3.603,0.882 5.022,7.843 11.084,10.339 10.989,10.476 10.88,10.604 10.781,10.754 8.81,8.852 6.619,7.218 4.881,5.083 3.089,2.926 1.564,0.517 -0.334,-1.579 -0.189,-1.628 -0.035,-1.689 0.092,-1.728 0.027,-1.18 0.157,-0.732 0.437,-0.259 0.618,0.005 0.168,0.284 0,0" />
          </g>
          <g
             id="g72"
             transform="translate(449.792,102.0449)">
            <path
               id="path70"
               style="fill:#ffffff;fill-opacity:1;fill-rule:nonzero;stroke:none"
               d="M 0,0 C 0.607,-0.896 1.22,-1.804 1.575,-2.835 1.739,-2.759 1.881,-2.68 2.04,-2.613 0.899,-1.606 0.449,-0.05 -0.652,0.989 -0.892,1.202 -1.245,0.907 -1.008,0.632 0.305,-0.971 2.009,-2.181 3.39,-3.757 3.489,-3.628 3.609,-3.49 3.728,-3.366 2.493,-2.702 1.761,-1.435 0.515,-0.822 0.227,-0.669 -0.041,-1.086 0.243,-1.244 1.479,-1.885 2.205,-3.152 3.44,-3.788 3.706,-3.931 3.965,-3.632 3.755,-3.4 2.421,-1.825 0.68,-0.614 -0.652,0.989 -0.77,0.89 -0.89,0.751 -1.008,0.632 0.079,-0.397 0.511,-1.939 1.639,-2.946 1.822,-3.095 2.183,-2.994 2.103,-2.721 1.716,-1.637 1.104,-0.702 0.461,0.245 0.271,0.532 -0.194,0.283 0,0" />
          </g>
          <g
             id="g76"
             transform="translate(450.6562,88.0889)">
            <path
               id="path74"
               style="fill:#ffffff;fill-opacity:1;fill-rule:nonzero;stroke:none"
               d="M 0,0 C 1.205,-0.045 2.386,0.139 3.604,0.056 3.582,0.241 3.575,0.418 3.552,0.575 2.027,0.205 0.401,0.317 -1.057,-0.292 -1.273,-0.38 -1.229,-0.728 -1.017,-0.75 0.202,-1.091 1.54,-0.742 2.687,-0.328 2.961,-0.229 2.919,0.147 2.631,0.201 0.923,0.408 -0.858,0.313 -2.475,-0.35 c -0.264,-0.093 -0.108,-0.461 0.121,-0.479 0.955,-0.111 1.89,-0.128 2.853,-0.164 0.323,-0.012 0.343,0.519 0.021,0.531 -1.177,0.045 -2.324,0.13 -3.476,0.083 -0.299,0.011 -0.375,-0.38 -0.09,-0.5 0.922,-0.391 1.811,0.008 2.578,0.565 0.278,0.179 0.024,0.64 -0.25,0.441 -0.659,-0.46 -1.366,-0.822 -2.185,-0.508 -0.006,-0.151 -0.037,-0.335 -0.072,-0.501 1.152,0.033 2.297,-0.067 3.474,-0.111 0.008,0.2 0.013,0.342 0.021,0.531 -0.964,0.036 -1.9,0.043 -2.856,0.15 0.042,-0.176 0.079,-0.321 0.115,-0.489 1.515,0.6 3.219,0.674 4.832,0.475 C 2.593,-0.163 2.599,0.003 2.577,0.185 1.519,-0.176 0.25,-0.556 -0.852,-0.257 c 0.032,-0.182 0.026,-0.344 0.049,-0.487 1.409,0.579 3.001,0.448 4.475,0.835 0.292,0.06 0.25,0.471 -0.048,0.481 C 2.405,0.656 1.225,0.473 0.02,0.518 -0.327,0.531 -0.347,0.013 0,0" />
          </g>
          <g
             id="g80"
             transform="translate(449.7441,101.543)">
            <path
               id="path78"
               style="fill:#ffffff;fill-opacity:1;fill-rule:nonzero;stroke:none"
               d="M 0,0 C 0.34,-0.064 0.666,-0.11 0.998,-0.122 1.155,-0.128 1.317,0.031 1.266,0.181 1.082,0.726 0.706,0.967 0.232,1.241 -0.057,1.399 -0.325,0.963 -0.056,0.781 0.274,0.607 0.63,0.447 0.749,0.082 0.849,0.182 0.937,0.27 1.019,0.423 0.732,0.391 0.444,0.444 0.146,0.498 -0.169,0.567 -0.329,0.084 0,0" />
          </g>
          <g
             id="g84"
             transform="translate(429.2881,112.6367)">
            <path
               id="path82"
               style="fill:#ffffff;fill-opacity:1;fill-rule:nonzero;stroke:none"
               d="m 0,0 c 1.215,-4.765 3.253,-11.252 8.711,-12.578 0.33,-0.065 0.491,0.433 0.146,0.503 C 3.616,-10.805 1.691,-4.45 0.514,0.108 0.421,0.454 -0.096,0.331 0,0" />
          </g>
          <g
             id="g88"
             transform="translate(441.0352,124.7754)">
            <path
               id="path86"
               style="fill:#ffffff;fill-opacity:1;fill-rule:nonzero;stroke:none"
               d="m 0,0 c -2.022,-0.314 -3.933,-1.084 -5.539,-2.331 -1.444,-1.152 -2.567,-2.717 -3.328,-4.36 -1.692,-3.667 -1.969,-7.887 -1.727,-11.859 0.086,-1.262 0.223,-2.547 0.404,-3.799 0.172,0.047 0.315,0.151 0.479,0.225 -1.277,1.065 -1.626,2.799 -2.059,4.307 -0.075,0.25 -0.532,0.238 -0.515,-0.081 0.068,-1.076 -0.734,-1.821 -1.25,-2.652 0.114,-0.005 0.244,0.038 0.377,0.047 -0.574,0.383 -1.201,0.146 -1.795,0.006 -0.318,-0.068 -0.203,-0.591 0.112,-0.531 0.432,0.097 0.993,0.366 1.397,0.094 0.106,-0.075 0.293,-0.044 0.359,0.082 0.563,0.939 1.411,1.772 1.341,2.934 -0.182,-0.007 -0.358,-0.029 -0.543,-0.031 0.481,-1.601 0.846,-3.421 2.182,-4.535 0.212,-0.174 0.483,-0.033 0.451,0.234 -1.136,7.214 -0.927,17.751 7.065,21.04 0.868,0.338 1.79,0.574 2.702,0.711 C 0.468,-0.451 0.325,0.059 0,0" />
          </g>
          <g
             id="g92"
             transform="translate(513.9111,97.9736)">
            <path
               id="path90"
               style="fill:#ffffff;fill-opacity:1;fill-rule:nonzero;stroke:none"
               d="M 0,0 C 2.716,0.94 4.465,3.511 7.234,4.368 7.126,4.514 7.047,4.688 6.975,4.805 3.679,1.792 -1.989,0.712 -3.495,-3.975 c -0.095,-0.261 0.24,-0.46 0.428,-0.281 2.594,2.293 4.809,5.085 6.815,7.908 C 3.957,3.9 3.493,4.189 3.312,3.906 1.335,1.144 -0.859,-1.611 -3.434,-3.872 c 0.149,-0.081 0.288,-0.196 0.437,-0.269 0.73,2.245 2.714,3.701 4.621,4.883 C 3.569,1.91 5.669,2.905 7.313,4.421 7.51,4.6 7.333,4.963 7.092,4.886 4.342,4.029 2.591,1.443 -0.094,0.526 -0.431,0.435 -0.308,-0.078 0,0" />
          </g>
          <g
             id="g96"
             transform="translate(540.6455,101.0205)">
            <path
               id="path94"
               style="fill:#ffffff;fill-opacity:1;fill-rule:nonzero;stroke:none"
               d="m 0,0 c 3.403,-2.783 7.043,-5.585 8.303,-9.995 0.127,0.076 0.283,0.179 0.427,0.23 -1.806,2.264 -3.592,4.55 -5.803,6.448 C 0.83,-1.479 -1.69,-0.24 -3.959,1.36 -4.021,1.197 -4.104,1.058 -4.193,0.919 -0.023,-0.636 3.862,-3.484 6.415,-7.14 7.011,-7.979 7.527,-8.887 7.93,-9.83 c 0.19,-0.5 0.42,-0.965 0.515,-1.468 0.096,-0.478 -0.108,-0.861 -0.37,-1.251 -1.279,-1.904 -3.554,-2.988 -5.486,-4.108 0.131,-0.068 0.289,-0.155 0.39,-0.229 0.054,0.658 0.58,1 1.13,1.232 -0.109,0.136 -0.237,0.251 -0.357,0.359 -1.351,-2.796 -5.267,0.982 -6.968,1.735 -0.179,0.058 -0.347,-0.158 -0.326,-0.321 0.222,-1.191 1.802,-1.649 2.793,-1.815 0.237,-0.009 0.405,0.171 0.318,0.369 -0.227,0.536 -0.507,0.921 -0.98,1.248 -0.128,0.124 -0.399,-0.005 -0.389,-0.223 0.147,-1.431 0.867,-2.741 1.503,-4.039 0.612,-1.173 0.996,-2.337 1.349,-3.576 0.317,-1.162 0.595,-2.352 0.779,-3.565 0.097,-0.94 0.273,-2.339 -0.393,-3.108 0.141,-0.043 0.274,-0.057 0.406,-0.091 -1.458,2.412 -2.443,5.314 -2.567,8.113 -0.126,-0.077 -0.214,-0.159 -0.35,-0.229 1.19,-0.444 1.844,-1.746 2.202,-2.867 0.333,-0.982 0.582,-2.228 0.118,-3.185 -0.411,-0.82 -1.38,-1.079 -2.186,-1.262 -1.409,-0.323 -2.886,-0.423 -4.317,-0.556 -3.356,-0.306 -6.702,-0.31 -10.068,-0.345 -1.205,0.045 -2.405,-0.048 -3.613,-0.053 -1.178,0.005 -2.452,0.01 -3.533,0.586 -0.047,0.027 -0.084,0.042 -0.101,0.072 -0.035,-0.17 -0.108,-0.329 -0.144,-0.518 6.373,-0.106 12.792,-1.016 19.165,-0.124 -0.041,0.178 -0.082,0.346 -0.122,0.537 -2.888,-0.724 -5.911,-0.51 -8.838,-0.471 -3.068,0.029 -6.159,-0.297 -9.241,0.155 -1.221,0.164 -2.597,0.458 -3.575,1.241 -0.731,0.532 -1.158,1.303 -1.518,2.081 -0.778,1.821 -0.851,3.939 -0.626,5.884 0.189,1.732 0.688,3.629 1.748,5.057 -0.149,0.077 -0.318,0.135 -0.477,0.204 -1.156,-4.487 -2.505,-9.04 -1.187,-13.681 0.074,-0.316 0.591,-0.207 0.518,0.129 -0.465,2.284 -0.139,4.662 0.419,6.88 0.596,2.234 1.506,4.419 2.729,6.364 -0.152,0.025 -0.35,0.041 -0.473,0.075 0.295,-0.772 0.128,-1.692 -0.016,-2.49 -0.173,-0.786 -0.437,-1.76 -1.012,-2.375 0.149,-0.106 0.278,-0.201 0.408,-0.287 0.563,3.106 1.614,6.037 3.672,8.478 -0.13,0.081 -0.267,0.223 -0.406,0.305 -0.955,-1.129 -1.755,-2.447 -2.912,-3.392 0.147,-0.102 0.286,-0.226 0.386,-0.338 0.736,1.37 1.759,2.551 2.873,3.613 0.225,0.205 -0.044,0.591 -0.297,0.43 -1.054,-0.726 -1.838,-1.58 -2.328,-2.755 -0.65,-1.364 -0.889,-2.948 -1.238,-4.407 -0.879,-3.393 -1.749,-6.811 -1.32,-10.334 0.019,-0.262 0.409,-0.244 0.494,-0.018 0.615,1.968 0.343,4.083 0.401,6.129 0.03,2.338 0.576,4.725 1.212,6.973 -0.179,0.037 -0.37,0.057 -0.53,0.101 -0.035,-1.705 -0.268,-3.388 -0.379,-5.07 -0.062,-1.652 0.014,-3.417 0.68,-4.935 0.703,-1.522 2.109,-2.284 3.721,-2.415 1.498,-0.09 3.055,0.113 4.515,0.316 1.729,0.205 3.423,0.503 5.14,0.68 1.621,0.139 3.276,0.168 4.874,0.232 1.665,0.051 3.301,0.048 4.948,-0.11 -0.011,0.177 -0.063,0.34 -0.114,0.489 -0.84,-0.343 -1.713,-0.311 -2.626,-0.319 -0.997,0.008 -2.036,-0.067 -3.037,-0.138 -2.048,-0.11 -4.098,-0.293 -6.164,-0.387 -3.569,-0.132 -7.171,0.369 -10.713,-0.293 -0.268,-0.046 -0.263,-0.432 -0.018,-0.507 5.412,-1.662 10.979,1.056 16.452,0 -0.023,0.173 -0.035,0.33 -0.03,0.496 -2.158,-1.031 -4.671,-0.608 -6.93,-0.291 -2.249,0.336 -4.677,0.74 -6.9,-0.017 -0.203,-0.079 -0.279,-0.337 -0.066,-0.487 1.703,-1.224 4.066,-1.298 6.092,-1.274 2.218,0.088 4.416,0.395 6.561,0.856 2.224,0.492 4.698,0.575 6.747,1.743 1.009,0.561 1.786,1.497 1.981,2.634 0.198,1.23 -0.194,2.446 -0.609,3.564 -0.58,1.49 -1.229,2.94 -1.81,4.426 -0.67,1.66 -1.311,3.298 -2.059,4.919 -0.149,0.324 -0.606,0.061 -0.455,-0.249 0.971,-2.204 2.292,-4.244 3.331,-6.436 1.045,-2.286 1.776,-4.885 0.79,-7.337 0.144,0.022 0.315,0.016 0.458,0.049 -1.383,3.691 -1.88,7.654 -3.223,11.349 -0.155,-0.051 -0.311,-0.154 -0.475,-0.224 1.808,-1.969 3.253,-4.223 3.859,-6.826 0.661,-2.634 0.264,-5.375 -0.524,-7.913 0.16,-0.047 0.311,-0.067 0.5,-0.088 0.31,3.213 -0.491,6.428 -1.106,9.564 -0.242,1.397 -0.474,2.807 -0.917,4.163 -0.201,0.492 -0.895,1.969 -0.177,2.374 0.523,0.266 1.521,-0.489 1.901,-0.746 0.744,-0.427 1.46,-0.877 2.228,-1.19 1.685,-0.634 3.286,0.721 3.902,2.196 0.941,2.298 0.11,4.71 -1.225,6.628 -1.757,2.555 -4.408,4.365 -7.058,5.91 -0.289,0.143 -0.572,-0.27 -0.283,-0.446 3.165,-2.039 6.849,-3.636 9.198,-6.656 1.125,-1.434 1.562,-3.167 0.834,-4.878 -0.405,-0.931 -1.123,-2.068 -1.954,-2.678 -0.938,-0.664 -2.091,-0.255 -3.046,0.114 -1.979,0.743 -3.752,1.852 -5.66,2.659 -0.225,0.099 -0.425,-0.17 -0.299,-0.359 0.352,-0.727 1.064,-1.261 1.762,-1.687 0.882,-0.555 1.864,-0.982 2.87,-1.262 0.8,-0.192 1.756,-0.331 2.527,-0.028 0.859,0.343 1.565,1.191 2.003,1.973 0.99,1.815 0.778,4.029 0.039,5.872 -0.9,2.31 -2.941,3.669 -5.036,4.817 -1.202,0.659 -2.406,1.231 -3.657,1.829 -0.831,0.388 -1.395,0.094 -2.168,-0.265 -1.288,-0.642 -2.665,-1.146 -4.083,-1.192 -1.408,0 -2.682,0.499 -3.791,1.32 -1.6,1.173 -2.612,2.859 -3.313,4.677 -0.792,1.94 -1.245,4.057 -1.434,6.122 -0.178,2.084 -0.109,4.196 0.367,6.235 0.378,1.726 1.118,3.461 2.473,4.641 3.531,3.137 7.198,-1.719 8.852,-4.485 1.431,-2.426 2.469,-5.139 2.61,-7.959 0.119,-1.9 -0.446,-3.537 -1.538,-5.051 -0.971,-1.298 -2.109,-2.501 -2.691,-4.071 -0.071,-0.139 0.083,-0.349 0.234,-0.355 2.784,0 4.122,2.445 4.544,4.847 0.55,3.268 -0.003,6.758 -1.067,9.811 -0.904,2.543 -2.375,5.593 -5.025,6.67 -2.05,0.838 -4.442,0.152 -6.244,-0.996 -2.017,-1.346 -3.623,-3.358 -4.543,-5.585 -1.96,-4.631 0.525,-9.6 2.419,-13.8 0.107,-0.233 0.394,-0.168 0.458,0.03 0.344,0.804 0.534,1.814 -0.222,2.432 -0.728,0.626 -1.827,0.481 -2.651,0.266 -2.537,-0.723 -4.209,-3.007 -6.361,-4.353 0.073,-0.111 0.199,-0.265 0.3,-0.401 1.276,1.369 2.935,2.281 4.444,3.469 -0.138,0.119 -0.277,0.225 -0.405,0.333 -2.232,-3.256 -5.947,-4.985 -8.288,-8.109 -0.061,-0.112 -0.067,-0.255 0.016,-0.329 0.559,-0.548 0.856,-1.253 0.997,-2.043 0.093,-0.321 0.591,-0.207 0.508,0.109 -0.147,0.876 -0.507,1.678 -1.121,2.285 -0.003,-0.094 0.021,-0.195 0.055,-0.325 2.322,3.125 6.046,4.863 8.277,8.12 0.191,0.269 -0.181,0.505 -0.405,0.329 -1.469,-1.152 -3.118,-2.069 -4.435,-3.446 -0.189,-0.225 0.033,-0.619 0.308,-0.43 1.779,1.094 3.18,2.723 5.007,3.757 0.815,0.479 1.874,0.838 2.837,0.646 1.083,-0.245 1.014,-1.318 0.661,-2.135 0.172,0.002 0.324,0.025 0.485,0.024 -1.237,2.727 -2.503,5.468 -2.963,8.427 -0.406,2.853 0.464,5.504 2.211,7.758 1.548,2.009 3.884,3.732 6.511,3.805 1.617,0.04 2.885,-0.626 3.971,-1.803 2.154,-2.385 3.212,-5.837 3.704,-8.944 0.262,-1.63 0.314,-3.305 0.11,-4.932 -0.153,-1.301 -0.499,-2.656 -1.346,-3.704 -0.677,-0.844 -1.681,-1.248 -2.727,-1.252 0.072,-0.112 0.164,-0.205 0.234,-0.336 0.922,2.502 3.328,4.09 4.035,6.72 0.672,2.479 0,5.327 -0.949,7.657 -0.667,1.731 -1.593,3.392 -2.686,4.924 -1.074,1.501 -2.453,3.006 -4.213,3.704 -1.668,0.647 -3.326,0.044 -4.548,-1.127 -1.272,-1.24 -1.953,-2.94 -2.35,-4.627 -0.936,-3.951 -0.474,-8.369 0.865,-12.164 0.549,-1.574 1.327,-3.176 2.516,-4.404 1.831,-1.883 4.229,-2.828 6.871,-2.301 0.585,0.149 1.193,0.369 1.772,0.613 0.635,0.242 1.211,0.625 1.856,0.843 0.366,0.129 0.655,-0.024 0.962,-0.197 0.635,-0.31 1.269,-0.614 1.894,-0.912 2.288,-1.118 4.89,-2.422 6.133,-4.764 1.268,-2.443 1.329,-6.113 -1.286,-7.674 -1.05,-0.644 -2.689,-0.022 -3.719,0.42 -1.048,0.415 -2.447,1.137 -2.987,2.193 -0.108,-0.11 -0.219,-0.239 -0.308,-0.359 1.497,-0.631 2.912,-1.421 4.377,-2.117 1.066,-0.496 2.269,-1.087 3.479,-1.043 0.856,0.049 1.53,0.551 2.076,1.168 0.668,0.801 1.265,1.758 1.595,2.719 1.233,3.742 -2.619,6.723 -5.279,8.481 -1.689,1.128 -3.478,2.084 -5.176,3.165 -0.082,-0.154 -0.173,-0.299 -0.283,-0.446 2.381,-1.368 4.679,-2.96 6.432,-5.108 1.417,-1.768 2.373,-3.899 1.841,-6.184 -0.225,-0.914 -0.704,-1.785 -1.549,-2.266 -0.854,-0.491 -1.639,-0.4 -2.441,0.021 -0.784,0.394 -1.497,0.901 -2.261,1.31 -0.513,0.266 -1.156,0.575 -1.727,0.312 -0.705,-0.292 -0.602,-1.342 -0.454,-1.946 0.152,-0.533 0.38,-1.046 0.531,-1.564 0.265,-0.785 0.378,-1.607 0.527,-2.425 0.688,-3.437 1.646,-7.057 1.295,-10.584 -0.013,-0.327 0.441,-0.391 0.538,-0.11 0.812,2.622 1.171,5.392 0.597,8.071 -0.6,2.759 -2.183,5.157 -4.026,7.207 -0.165,0.177 -0.531,0.021 -0.445,-0.226 1.36,-3.772 1.865,-7.763 3.303,-11.509 0.077,-0.232 0.394,-0.139 0.458,0.05 2.06,5.002 -2.273,9.865 -4.145,14.173 -0.165,-0.085 -0.32,-0.173 -0.455,-0.249 1.335,-2.916 2.439,-5.936 3.64,-8.881 0.541,-1.269 1.049,-2.676 0.703,-4.042 -0.363,-1.326 -1.673,-2.055 -2.867,-2.467 -1.176,-0.408 -2.4,-0.604 -3.623,-0.801 -0.984,-0.148 -1.982,-0.377 -2.987,-0.582 -2.317,-0.441 -4.683,-0.68 -7.064,-0.553 -1.356,0.084 -2.838,0.336 -3.968,1.128 -0.033,-0.137 -0.067,-0.287 -0.093,-0.443 4.527,1.575 9.487,-1.748 13.938,0.352 0.174,0.098 0.168,0.45 -0.05,0.473 -5.475,1.018 -11.049,-1.648 -16.441,-0.002 -0.007,-0.171 -0.013,-0.337 -0.02,-0.508 3.6,0.678 7.333,0.153 10.979,0.297 2.046,0.071 4.106,0.27 6.145,0.398 1,0.056 2.019,0.113 3.008,0.114 0.893,0.024 1.73,0.045 2.561,0.403 0.241,0.082 0.104,0.467 -0.143,0.476 -1.705,0.154 -3.406,0.161 -5.157,0.079 -1.627,-0.053 -3.292,-0.085 -4.933,-0.239 -1.66,-0.183 -3.324,-0.454 -4.995,-0.676 -1.519,-0.176 -3.096,-0.411 -4.62,-0.25 -4.071,0.389 -3.783,5.307 -3.538,8.297 0.063,1.156 0.221,2.358 0.257,3.545 0.01,0.293 -0.434,0.368 -0.53,0.077 -0.615,-2.197 -1.1,-4.512 -1.214,-6.78 -0.088,-2.116 0.239,-4.295 -0.361,-6.335 0.152,-0.005 0.304,-0.01 0.494,-0.018 -0.396,3.38 0.42,6.651 1.263,9.86 0.365,1.379 0.599,2.772 1.085,4.104 0.417,1.22 1.205,2.231 2.268,2.966 -0.09,0.107 -0.199,0.264 -0.298,0.415 -1.143,-1.079 -2.205,-2.328 -2.914,-3.735 -0.171,-0.246 0.151,-0.496 0.386,-0.319 1.196,0.972 2.027,2.334 3.002,3.518 0.19,0.211 -0.198,0.554 -0.406,0.333 -2.126,-2.504 -3.218,-5.504 -3.794,-8.691 -0.037,-0.227 0.247,-0.499 0.417,-0.277 0.616,0.709 0.907,1.619 1.121,2.509 0.215,0.901 0.416,1.981 0.05,2.874 -0.077,0.202 -0.35,0.297 -0.463,0.069 -1.282,-2.024 -2.195,-4.304 -2.814,-6.618 -0.588,-2.269 -0.899,-4.719 -0.405,-7.014 0.153,0.027 0.335,0.059 0.518,0.129 -1.295,4.519 0.042,9.003 1.177,13.418 0.087,0.286 -0.306,0.454 -0.477,0.203 -1.061,-1.419 -1.508,-3.236 -1.792,-4.956 -0.291,-1.923 -0.197,-3.989 0.4,-5.826 0.518,-1.626 1.54,-3.019 3.191,-3.627 2.952,-1.099 6.181,-0.915 9.244,-0.846 3.836,0.156 7.826,-0.407 11.575,0.498 0.327,0.102 0.202,0.563 -0.122,0.537 -6.317,-0.927 -12.687,0.019 -19.022,0.119 -0.267,0.01 -0.403,-0.328 -0.171,-0.474 0.949,-0.571 2.094,-0.667 3.158,-0.707 1.177,-0.044 2.358,0.035 3.547,0.052 3.32,0.075 6.587,0.009 9.873,0.219 1.535,0.118 3.062,0.289 4.591,0.503 0.899,0.152 1.838,0.33 2.634,0.832 1.659,1.117 1.067,3.601 0.441,5.15 -0.454,1.077 -1.186,2.092 -2.301,2.509 -0.131,0.053 -0.327,-0.091 -0.332,-0.239 0.101,-2.897 1.118,-5.906 2.633,-8.367 0.09,-0.137 0.315,-0.202 0.425,-0.072 0.646,0.749 0.658,1.823 0.588,2.761 -0.056,1.3 -0.36,2.576 -0.684,3.832 -0.288,1.152 -0.587,2.323 -1.09,3.382 -0.683,1.503 -1.739,3.032 -1.867,4.69 -0.173,-0.052 -0.272,-0.133 -0.426,-0.194 0.38,-0.281 0.585,-0.64 0.769,-1.046 0.11,0.134 0.228,0.244 0.308,0.365 -0.792,0.153 -2.253,0.488 -2.425,1.444 -0.1,-0.129 -0.227,-0.219 -0.336,-0.319 1.898,-0.856 5.972,-4.748 7.566,-1.491 0.114,0.233 -0.095,0.498 -0.355,0.388 -0.746,-0.347 -1.305,-0.849 -1.405,-1.691 -0.008,-0.214 0.227,-0.326 0.42,-0.238 2.001,1.136 4.153,2.248 5.573,4.167 0.589,0.751 0.672,1.453 0.346,2.368 -0.387,1.112 -0.908,2.158 -1.545,3.16 -2.567,4.026 -6.793,7.18 -11.256,8.796 -0.299,0.12 -0.457,-0.273 -0.226,-0.467 2.287,-1.592 4.835,-2.848 6.951,-4.709 2.116,-1.871 3.875,-4.131 5.637,-6.313 0.144,-0.213 0.522,-0.019 0.466,0.24 C 7.52,-5.305 3.797,-2.408 0.294,0.45 0.026,0.688 -0.267,0.229 0,0" />
          </g>
          <g
             id="g100"
             transform="translate(434.5166,118.5938)">
            <path
               id="path98"
               style="fill:#ffffff;fill-opacity:1;fill-rule:nonzero;stroke:none"
               d="m 0,0 c -1.909,-3.749 -2.99,-7.732 -3.593,-11.888 0.173,0.033 0.34,0.034 0.512,0.057 -1.223,3.79 -0.248,8.112 1.624,11.524 1.894,3.508 5.225,6.515 9.393,6.535 4.163,0.014 6.535,-4.161 7.569,-7.645 0.523,-1.75 0.721,-3.582 0.778,-5.356 0.061,-1.799 0.066,-3.953 -0.849,-5.547 0.155,-0.049 0.31,-0.069 0.476,-0.094 -0.228,0.768 0.004,1.506 0.19,2.273 0.147,0.775 0.163,1.572 0.192,2.35 0.034,1.562 0.014,3.165 -0.112,4.733 -0.185,2.302 -1.091,4.503 -2.697,6.164 C 10.327,6.375 5.12,6.661 1.291,4.424 -2.392,2.257 -4.779,-1.864 -5.193,-6.059 c -0.215,-2.154 0.213,-4.209 1.026,-6.207 0.925,-2.206 2.211,-4.412 4.003,-6.042 0.744,-0.683 1.602,-1.234 2.613,-1.41 1.081,-0.174 2.22,0.255 3.177,0.722 1.091,0.549 2.056,1.316 2.988,2.108 0.795,0.673 1.59,1.347 2.314,2.137 2.637,2.795 4.181,6.725 4.122,10.565 -0.003,2.207 -0.597,4.4 -1.778,6.236 C 11.946,4.053 10.018,5.475 7.812,6.332 7.507,6.443 7.342,5.975 7.654,5.819 9.617,5.057 11.361,3.809 12.604,2.1 c 1.1,-1.581 1.715,-3.434 1.882,-5.341 0.366,-3.944 -1.123,-8.028 -3.771,-10.969 -0.684,-0.759 -1.47,-1.438 -2.246,-2.117 -0.953,-0.834 -1.972,-1.627 -3.091,-2.203 -1.066,-0.574 -2.311,-0.916 -3.492,-0.51 -1.033,0.361 -1.916,1.273 -2.659,2.091 -1.59,1.841 -2.786,4.176 -3.488,6.493 -0.648,2.11 -0.586,4.384 -0.013,6.502 1.094,4.212 4.359,8.038 8.675,9.079 2.284,0.556 4.759,0.163 6.831,-0.97 2.147,-1.186 3.587,-3.317 4.149,-5.691 0.442,-1.755 0.4,-3.654 0.381,-5.45 0.019,-0.99 0.018,-2.021 -0.175,-3.002 -0.17,-0.877 -0.451,-1.652 -0.191,-2.565 0.073,-0.202 0.36,-0.273 0.478,-0.064 1.063,1.861 1.022,4.324 0.919,6.394 -0.12,2.13 -0.457,4.175 -1.199,6.166 C 14.848,1.981 13.7,3.931 11.993,5.311 10.338,6.665 8.191,6.978 6.135,6.585 2.262,5.847 -0.654,2.596 -2.307,-0.792 c -1.646,-3.36 -2.472,-7.534 -1.288,-11.162 0.108,-0.299 0.485,-0.251 0.525,0.047 0.589,4.04 1.648,7.973 3.51,11.63 C 0.589,0.007 0.144,0.304 0,0" />
          </g>
          <g
             id="g104"
             transform="translate(450.0693,103.5127)">
            <path
               id="path102"
               style="fill:#ffffff;fill-opacity:1;fill-rule:nonzero;stroke:none"
               d="m 0,0 c 0.678,-0.829 1.377,-1.572 1.981,-2.426 0.652,-0.885 1.326,-1.942 1.174,-3.043 0.13,0.057 0.277,0.137 0.411,0.198 -1.129,0.522 -1.992,1.491 -2.749,2.456 -0.766,0.993 -1.444,2.059 -1.914,3.212 -0.094,-0.125 -0.194,-0.244 -0.308,-0.374 1.215,-0.53 2.214,-1.532 3.091,-2.481 0.877,-0.945 1.954,-2.255 2.008,-3.606 0.117,0.077 0.191,0.164 0.281,0.265 -0.995,-0.025 -1.82,0.785 -2.436,1.454 -0.666,0.757 -1.314,1.713 -1.534,2.667 -0.092,0.355 -0.582,0.222 -0.513,-0.099 0.258,-1.108 0.94,-2.07 1.659,-2.91 0.682,-0.804 1.691,-1.655 2.803,-1.659 0.134,0.01 0.265,0.11 0.271,0.262 -0.093,1.434 -1.077,2.73 -1.969,3.767 -0.946,1.118 -2.14,2.241 -3.49,2.843 -0.244,0.119 -0.397,-0.199 -0.319,-0.386 0.488,-1.202 1.22,-2.294 1.982,-3.312 0.77,-0.993 1.692,-1.992 2.845,-2.544 0.187,-0.092 0.376,0.015 0.399,0.228 0.156,1.13 -0.464,2.212 -1.071,3.11 C 1.944,-1.399 1.115,-0.556 0.405,0.384 0.186,0.64 -0.189,0.264 0,0" />
          </g>
        </g>
      </g>
    </g>
  </g>
</svg>
