<?xml version="1.0" encoding="UTF-8" standalone="no"?>
<svg
   xmlns:dc="http://purl.org/dc/elements/1.1/"
   xmlns:cc="http://creativecommons.org/ns#"
   xmlns:rdf="http://www.w3.org/1999/02/22-rdf-syntax-ns#"
   xmlns:svg="http://www.w3.org/2000/svg"
   xmlns="http://www.w3.org/2000/svg"
   id="svg12888"
   version="1.1"
   viewBox="0 0 3.8397803 6.7908916"
   height="6.7908916mm"
   width="3.8397803mm">
  <defs
     id="defs12882" />
  <metadata
     id="metadata12885">
    <rdf:RDF>
      <cc:Work
         rdf:about="">
        <dc:format>image/svg+xml</dc:format>
        <dc:type
           rdf:resource="http://purl.org/dc/dcmitype/StillImage" />
        <dc:title></dc:title>
      </cc:Work>
    </rdf:RDF>
  </metadata>
  <g
     transform="translate(-100.88963,-134.85455)"
     id="layer1">
    <g
       id="g4456"
       transform="matrix(0.35277777,0,0,-0.35277777,102.20294,138.12481)">
      <path
         d="m 0,0 c -0.011,0.518 -0.061,1.034 -0.053,1.552 0.01,0.531 0.08,1.066 0.174,1.588 0.17,0.937 0.475,1.84 0.931,2.677 C 1.761,7.123 2.813,8.296 4.125,9.016 4.105,9.034 4.086,9.052 4.067,9.069 4.01,8.987 3.916,8.94 3.828,8.895 3.729,8.844 3.641,8.786 3.554,8.717 3.367,8.568 3.2,8.395 3.038,8.221 2.694,7.854 2.376,7.461 2.073,7.06 1.474,6.268 0.994,5.371 0.694,4.423 0.566,4.019 0.528,3.591 0.456,3.175 0.383,2.756 0.269,2.346 0.219,1.923 0.198,1.738 0.191,1.55 0.176,1.364 0.161,1.175 0.145,0.985 0.138,0.795 0.133,0.628 0.129,0.457 0.171,0.293 0.213,0.127 0.305,-0.055 0.232,-0.226 0.253,-0.223 0.274,-0.22 0.295,-0.216 0.153,-0.106 0.145,0.076 0.149,0.242 0.155,0.433 0.165,0.617 0.153,0.809 0.138,1.056 0.111,1.303 0.101,1.551 0.091,1.808 0.111,2.062 0.136,2.317 0.234,3.32 0.442,4.33 0.907,5.231 1.304,5.999 1.801,6.705 2.345,7.375 2.612,7.702 2.886,8.008 3.209,8.282 3.525,8.549 3.859,8.793 4.164,9.072 4.142,9.088 4.12,9.104 4.099,9.12 4.017,8.933 3.833,8.8 3.678,8.676 3.51,8.54 3.355,8.395 3.211,8.233 2.886,7.87 2.604,7.465 2.302,7.082 1.711,6.332 1.192,5.526 0.822,4.646 0.469,3.808 0.309,2.928 0.22,2.027 0.198,1.815 0.181,1.603 0.165,1.39 0.15,1.2 0.162,1.008 0.175,0.818 0.199,0.432 0.251,0.017 0.119,-0.355 c 0.025,0.004 0.049,0.008 0.074,0.012 -0.173,0.333 -0.177,0.734 -0.167,1.1 0.011,0.38 0.054,0.758 0.056,1.139 0.006,1.041 0.286,2.035 0.726,2.972 0.383,0.816 0.817,1.62 1.37,2.336 0.138,0.18 0.289,0.35 0.434,0.525 0.147,0.175 0.291,0.353 0.446,0.522 0.15,0.164 0.307,0.313 0.495,0.433 C 3.722,8.793 3.899,8.888 4.047,9.026 4.085,9.062 4.026,9.118 3.988,9.082 3.827,8.931 3.627,8.832 3.444,8.71 3.252,8.583 3.092,8.412 2.938,8.241 2.772,8.055 2.618,7.86 2.458,7.671 2.299,7.483 2.143,7.295 1.997,7.098 1.718,6.722 1.473,6.322 1.249,5.912 1.007,5.473 0.78,5.023 0.583,4.564 0.392,4.119 0.238,3.658 0.138,3.184 0.037,2.709 0.009,2.233 0,1.749 -0.007,1.377 -0.053,1.007 -0.057,0.636 -0.062,0.291 -0.038,-0.075 0.125,-0.386 0.143,-0.421 0.187,-0.403 0.198,-0.374 0.338,0.021 0.278,0.464 0.253,0.874 0.224,1.345 0.274,1.813 0.328,2.282 0.385,2.787 0.467,3.29 0.602,3.779 0.733,4.256 0.926,4.716 1.147,5.158 1.536,5.934 2.048,6.622 2.581,7.303 2.852,7.649 3.103,8.011 3.41,8.328 3.539,8.462 3.684,8.574 3.827,8.692 3.959,8.8 4.1,8.921 4.17,9.081 4.188,9.124 4.139,9.161 4.104,9.128 3.766,8.818 3.392,8.55 3.046,8.249 2.684,7.932 2.383,7.558 2.086,7.181 1.496,6.432 0.941,5.617 0.589,4.726 0.241,3.849 0.096,2.904 0.025,1.967 -0.01,1.5 0.07,1.033 0.083,0.565 0.09,0.291 -0.016,-0.077 0.24,-0.275 0.258,-0.29 0.292,-0.292 0.303,-0.265 0.38,-0.086 0.314,0.095 0.261,0.271 0.198,0.486 0.214,0.719 0.226,0.94 c 0.026,0.496 0.06,0.996 0.158,1.483 0.052,0.255 0.112,0.508 0.156,0.764 0.045,0.261 0.078,0.524 0.127,0.784 0.097,0.51 0.297,1 0.518,1.468 C 1.537,6.186 2.001,6.861 2.521,7.501 2.772,7.811 3.037,8.114 3.32,8.396 3.456,8.532 3.602,8.672 3.768,8.771 3.9,8.849 4.047,8.899 4.139,9.031 4.164,9.066 4.114,9.103 4.082,9.084 2.586,8.264 1.425,6.863 0.714,5.329 0.346,4.533 0.116,3.681 -0.015,2.815 -0.084,2.356 -0.134,1.89 -0.136,1.425 -0.137,0.948 -0.092,0.473 -0.081,-0.003 -0.08,-0.056 0.001,-0.052 0,0"
         style="fill:#000000;fill-opacity:1;fill-rule:nonzero;stroke:none"
         id="path4458" />
    </g>
    <g
       id="g4460"
       transform="matrix(0.35277777,0,0,-0.35277777,103.75167,135.02287)">
      <path
         d="M 0,0 C 0.259,-0.393 0.402,-0.843 0.58,-1.274 0.674,-1.5 0.783,-1.719 0.88,-1.943 0.979,-2.176 1.071,-2.412 1.154,-2.65 1.316,-3.116 1.426,-3.589 1.466,-4.08 1.504,-4.557 1.483,-5.038 1.436,-5.513 1.345,-6.421 1.149,-7.311 0.818,-8.162 0.665,-8.558 0.495,-8.943 0.22,-9.271 0.088,-9.429 -0.063,-9.569 -0.226,-9.695 c -0.153,-0.119 -0.314,-0.234 -0.437,-0.386 0.019,-0.019 0.039,-0.037 0.059,-0.056 0.585,0.777 1.168,1.565 1.538,2.472 0.387,0.95 0.615,1.958 0.661,2.983 0.022,0.491 -0.062,0.969 -0.179,1.444 C 1.357,-2.999 1.298,-2.761 1.249,-2.52 1.201,-2.278 1.154,-2.037 1.086,-1.8 0.851,-0.978 0.458,-0.17 -0.119,0.466 -0.134,0.444 -0.15,0.423 -0.166,0.401 0.029,0.312 0.174,0.143 0.303,-0.023 0.431,-0.188 0.548,-0.363 0.669,-0.533 0.928,-0.894 1.149,-1.274 1.316,-1.687 1.667,-2.553 1.644,-3.506 1.484,-4.412 1.309,-5.406 0.959,-6.346 0.545,-7.262 0.333,-7.731 0.11,-8.195 -0.094,-8.668 c -0.102,-0.235 -0.2,-0.473 -0.321,-0.698 -0.106,-0.199 -0.229,-0.394 -0.282,-0.614 -0.01,-0.042 0.04,-0.063 0.069,-0.038 0.167,0.152 0.297,0.334 0.418,0.523 0.127,0.201 0.251,0.403 0.383,0.602 0.288,0.434 0.563,0.878 0.804,1.339 0.469,0.899 0.734,1.9 0.767,2.914 0.027,0.866 -0.148,1.742 -0.432,2.557 -0.147,0.426 -0.354,0.82 -0.564,1.217 -0.099,0.184 -0.19,0.372 -0.283,0.561 C 0.376,-0.124 0.276,0.057 0.132,0.201 0.099,0.234 0.046,0.189 0.069,0.15 0.293,-0.23 0.578,-0.57 0.812,-0.944 1.058,-1.34 1.204,-1.79 1.337,-2.234 1.479,-2.701 1.586,-3.182 1.61,-3.669 1.636,-4.188 1.578,-4.714 1.481,-5.223 1.232,-6.521 0.654,-7.73 -0.005,-8.866 -0.031,-8.911 0.041,-8.95 0.066,-8.904 c 0.516,0.887 0.974,1.812 1.277,2.795 0.292,0.95 0.45,1.988 0.29,2.977 C 1.583,-2.82 1.506,-2.513 1.416,-2.21 1.325,-1.907 1.225,-1.599 1.098,-1.309 0.858,-0.76 0.44,-0.319 0.139,0.193 0.118,0.176 0.097,0.159 0.076,0.142 0.234,-0.016 0.334,-0.221 0.431,-0.42 0.532,-0.629 0.639,-0.834 0.748,-1.04 0.977,-1.469 1.176,-1.902 1.321,-2.368 1.611,-3.3 1.735,-4.275 1.616,-5.247 1.506,-6.147 1.197,-7 0.756,-7.791 0.534,-8.191 0.287,-8.578 0.032,-8.959 -0.196,-9.3 -0.379,-9.683 -0.687,-9.961 c 0.023,-0.013 0.046,-0.026 0.069,-0.038 0.056,0.231 0.19,0.434 0.3,0.642 0.121,0.229 0.217,0.472 0.32,0.709 0.209,0.481 0.437,0.953 0.652,1.432 0.411,0.913 0.747,1.85 0.918,2.84 0.154,0.884 0.167,1.812 -0.157,2.661 C 1.26,-1.311 1.047,-0.934 0.801,-0.579 0.681,-0.405 0.559,-0.234 0.435,-0.063 0.314,0.102 0.183,0.265 0.018,0.387 -0.028,0.42 -0.076,0.449 -0.127,0.473 -0.169,0.492 -0.206,0.441 -0.174,0.407 0.122,0.08 0.365,-0.29 0.562,-0.685 0.764,-1.09 0.934,-1.527 1.047,-1.966 1.108,-2.205 1.151,-2.447 1.201,-2.688 1.25,-2.93 1.317,-3.167 1.374,-3.408 1.433,-3.659 1.479,-3.913 1.504,-4.17 1.528,-4.426 1.517,-4.682 1.5,-4.938 1.431,-5.907 1.188,-6.872 0.805,-7.765 0.44,-8.609 -0.113,-9.35 -0.663,-10.081 c -0.031,-0.041 0.025,-0.097 0.059,-0.056 0.145,0.179 0.34,0.304 0.516,0.448 0.174,0.142 0.33,0.306 0.465,0.485 0.287,0.378 0.456,0.835 0.616,1.277 0.339,0.945 0.514,1.945 0.564,2.946 0.022,0.433 0.008,0.868 -0.055,1.297 C 1.436,-3.231 1.299,-2.796 1.138,-2.37 0.979,-1.946 0.774,-1.542 0.605,-1.122 0.447,-0.725 0.306,-0.316 0.069,0.043 0.04,0.086 -0.03,0.044 0,0"
         style="fill:#000000;fill-opacity:1;fill-rule:nonzero;stroke:none"
         id="path4462" />
    </g>
    <g
       id="g4464"
       transform="matrix(0.35277777,0,0,-0.35277777,103.17667,135.71841)">
      <path
         d="m 0,0 c 0.372,-0.229 0.777,-0.402 1.22,-0.41 0.202,-0.003 0.392,0.037 0.58,0.11 0.18,0.07 0.363,0.163 0.56,0.164 C 2.35,-0.113 2.339,-0.09 2.329,-0.067 2.22,-0.19 2.007,-0.215 1.854,-0.237 1.653,-0.267 1.449,-0.274 1.247,-0.278 1.022,-0.283 0.798,-0.288 0.576,-0.24 0.312,-0.183 0.079,-0.044 -0.146,0.098 -0.187,0.124 -0.224,0.065 -0.194,0.033 -0.06,-0.111 0.14,-0.181 0.325,-0.234 0.555,-0.3 0.794,-0.333 1.031,-0.358 1.549,-0.413 2.078,-0.388 2.528,-0.096 2.514,-0.073 2.5,-0.05 2.486,-0.026 1.461,-0.746 0.161,-0.106 -0.785,0.439 -0.798,0.416 -0.811,0.392 -0.824,0.368 0.292,-0.167 1.619,-0.551 2.779,0.083 2.825,0.108 2.782,0.178 2.736,0.152 1.604,-0.467 0.303,-0.082 -0.785,0.439 -0.833,0.461 -0.87,0.394 -0.824,0.368 0.147,-0.192 1.478,-0.833 2.528,-0.096 2.572,-0.066 2.53,0.002 2.486,-0.026 2.054,-0.307 1.547,-0.33 1.05,-0.279 0.833,-0.257 0.618,-0.226 0.407,-0.172 0.215,-0.125 0.001,-0.057 -0.138,0.092 -0.154,0.071 -0.17,0.049 -0.186,0.027 0.048,-0.121 0.287,-0.256 0.558,-0.319 0.79,-0.373 1.03,-0.364 1.267,-0.359 c 0.216,0.004 0.434,0.015 0.648,0.049 0.159,0.025 0.361,0.06 0.473,0.187 0.024,0.027 0.005,0.069 -0.031,0.069 C 2.188,-0.055 2.028,-0.121 1.874,-0.183 1.687,-0.259 1.512,-0.315 1.31,-0.327 0.853,-0.352 0.421,-0.165 0.04,0.071 -0.005,0.099 -0.044,0.027 0,0"
         style="fill:#000000;fill-opacity:1;fill-rule:nonzero;stroke:none"
         id="path4466" />
    </g>
    <g
       id="g4468"
       transform="matrix(0.35277777,0,0,-0.35277777,102.86626,136.83258)">
      <path
         d="m 0,0 c 0.138,-0.336 0.242,-0.698 0.484,-0.978 0.279,-0.322 0.709,-0.424 1.117,-0.359 0.39,0.061 0.806,0.248 1.052,0.567 0.208,0.271 0.268,0.627 0.209,0.959 C 2.767,0.734 2.382,1.334 1.81,1.459 1.39,1.551 0.962,1.368 0.646,1.101 0.317,0.823 0.075,0.418 0.044,-0.015 0.008,-0.506 0.307,-0.91 0.712,-1.154 c 0.299,-0.18 0.639,-0.251 0.984,-0.188 0.352,0.063 0.678,0.243 0.915,0.511 0.448,0.506 0.411,1.28 -0.034,1.774 C 2.171,1.392 1.497,1.534 0.932,1.349 0.32,1.15 -0.075,0.568 -0.046,-0.072 c 0.03,-0.67 0.548,-1.239 1.209,-1.346 0.708,-0.114 1.389,0.356 1.65,1 0.134,0.334 0.151,0.703 0.024,1.041 C 2.717,0.944 2.472,1.206 2.17,1.365 1.858,1.53 1.484,1.572 1.141,1.499 0.821,1.429 0.541,1.236 0.339,0.982 0.012,0.569 -0.178,-0.082 0.053,-0.583 0.225,-0.955 0.625,-1.15 1.014,-1.208 1.818,-1.329 2.879,-0.91 2.916,0.017 2.936,0.533 2.648,1.034 2.169,1.235 1.712,1.427 1.167,1.353 0.742,1.117 0.302,0.875 0.005,0.426 0.045,-0.084 c 0.051,-0.674 0.646,-1.217 1.331,-1.107 0.48,0.076 0.839,0.452 0.988,0.902 0.074,0.224 0.083,0.464 0.005,0.688 C 2.292,0.621 2.139,0.808 2.006,0.998 1.976,1.041 1.907,0.998 1.937,0.955 2.044,0.801 2.161,0.651 2.246,0.483 2.339,0.298 2.361,0.098 2.326,-0.104 2.254,-0.523 1.967,-0.903 1.567,-1.056 1.235,-1.185 0.857,-1.128 0.572,-0.916 0.294,-0.709 0.14,-0.374 0.123,-0.033 0.069,1.042 1.572,1.616 2.373,1.028 2.774,0.734 2.946,0.134 2.764,-0.329 2.605,-0.731 2.206,-0.974 1.805,-1.082 1.397,-1.191 0.928,-1.176 0.55,-0.976 0.375,-0.884 0.23,-0.747 0.138,-0.572 0.031,-0.369 0.018,-0.13 0.05,0.093 0.154,0.793 0.663,1.415 1.402,1.451 2.169,1.489 2.858,0.891 2.844,0.107 2.831,-0.648 2.175,-1.318 1.424,-1.352 0.702,-1.385 0.086,-0.794 0.036,-0.087 0.014,0.229 0.106,0.549 0.294,0.804 0.494,1.072 0.795,1.245 1.119,1.316 1.724,1.449 2.399,1.18 2.701,0.63 2.866,0.33 2.897,-0.046 2.79,-0.369 2.671,-0.728 2.366,-1.007 2.027,-1.157 1.686,-1.309 1.285,-1.333 0.938,-1.182 0.687,-1.072 0.45,-0.896 0.295,-0.667 -0.23,0.117 0.51,1.159 1.31,1.366 1.512,1.418 1.726,1.412 1.923,1.342 2.183,1.25 2.377,1.041 2.525,0.816 2.731,0.504 2.847,0.117 2.787,-0.256 2.721,-0.668 2.423,-0.95 2.056,-1.115 1.611,-1.315 1.07,-1.364 0.668,-1.042 0.341,-0.782 0.229,-0.347 0.078,0.024 0.058,0.072 -0.02,0.049 0,0"
         style="fill:#000000;fill-opacity:1;fill-rule:nonzero;stroke:none"
         id="path4470" />
    </g>
    <g
       id="g4472"
       transform="matrix(0.35277777,0,0,-0.35277777,102.48354,137.78067)">
      <path
         d="m 0,0 c 0.585,-0.213 1.192,-0.343 1.806,-0.439 0.295,-0.045 0.584,-0.067 0.882,-0.065 0.3,0.002 0.6,0.013 0.898,-0.02 -0.007,0.022 -0.014,0.045 -0.02,0.067 C 3.402,-0.633 3.089,-0.629 2.869,-0.628 2.572,-0.627 2.276,-0.587 1.983,-0.542 1.86,-0.523 1.735,-0.506 1.612,-0.483 1.372,-0.44 1.139,-0.367 0.908,-0.287 0.462,-0.133 0.025,0.052 -0.443,0.13 -0.495,0.138 -0.513,0.062 -0.462,0.05 0.275,-0.124 0.979,-0.435 1.727,-0.565 2.395,-0.683 3.075,-0.597 3.729,-0.437 L 3.705,-0.36 C 3.048,-0.583 2.333,-0.562 1.655,-0.461 0.977,-0.358 0.312,-0.166 -0.33,0.074 -0.379,0.092 -0.396,0.013 -0.348,-0.005 0.311,-0.25 0.991,-0.445 1.687,-0.547 2.361,-0.646 3.076,-0.661 3.729,-0.437 3.778,-0.42 3.755,-0.348 3.705,-0.36 3.053,-0.519 2.383,-0.599 1.716,-0.482 0.979,-0.353 0.284,-0.043 -0.443,0.13 -0.45,0.103 -0.456,0.077 -0.462,0.05 0.017,-0.028 0.463,-0.219 0.918,-0.376 1.277,-0.5 1.639,-0.572 2.013,-0.628 c 0.303,-0.046 0.61,-0.083 0.916,-0.081 0.228,0.001 0.529,0.017 0.696,0.196 0.019,0.021 0.011,0.064 -0.021,0.068 -0.286,0.031 -0.573,0.025 -0.86,0.022 -0.31,-0.003 -0.613,0.016 -0.92,0.064 C 1.211,-0.265 0.603,-0.134 0.019,0.079 -0.03,0.097 -0.048,0.018 0,0"
         style="fill:#000000;fill-opacity:1;fill-rule:nonzero;stroke:none"
         id="path4474" />
    </g>
    <g
       id="g4476"
       transform="matrix(0.35277777,0,0,-0.35277777,102.90743,138.30399)">
      <path
         d="m 0,0 c -0.057,-0.529 -0.109,-1.058 -0.179,-1.585 -0.057,-0.426 -0.118,-0.85 -0.238,-1.262 -0.098,-0.331 -0.215,-0.673 -0.222,-1.021 -0.003,-0.137 0.067,-0.543 0.288,-0.463 0.082,0.03 0.138,0.121 0.179,0.192 0.061,0.103 0.105,0.215 0.146,0.326 0.124,0.334 0.206,0.686 0.287,1.032 0.061,0.258 0.114,0.516 0.157,0.778 0.033,0.196 0.055,0.394 0.094,0.59 0.068,0.338 0.161,0.692 0.119,1.039 C 0.614,-0.229 0.554,-0.102 0.472,0.018 0.425,0.084 0.36,0.16 0.275,0.175 0.109,0.203 0.025,-0.021 -0.018,-0.141 -0.089,-0.342 -0.126,-0.558 -0.159,-0.77 -0.216,-1.133 -0.27,-1.498 -0.318,-1.863 -0.354,-2.128 -0.389,-2.394 -0.425,-2.66 c -0.023,-0.162 -0.039,-0.327 -0.079,-0.487 -0.058,-0.232 -0.125,-0.464 -0.142,-0.704 -0.012,-0.176 0.017,-0.428 0.239,-0.445 0.24,-0.018 0.359,0.24 0.433,0.428 0.104,0.265 0.161,0.547 0.217,0.826 0.082,0.41 0.184,0.816 0.257,1.228 0.067,0.379 0.12,0.764 0.159,1.147 0.026,0.248 0.039,0.548 -0.14,0.746 C 0.44,0.166 0.312,0.219 0.196,0.216 0.101,0.214 0.021,0.152 -0.034,0.079 -0.188,-0.13 -0.225,-0.428 -0.256,-0.679 c -0.038,-0.294 -0.059,-0.59 -0.099,-0.885 -0.073,-0.529 -0.156,-1.056 -0.244,-1.582 -0.043,-0.259 -0.073,-0.52 -0.116,-0.78 -0.016,-0.09 -0.063,-0.226 0.016,-0.3 0.082,-0.077 0.269,-0.076 0.371,-0.056 0.125,0.025 0.221,0.098 0.292,0.201 0.159,0.227 0.174,0.539 0.222,0.803 0.041,0.226 0.102,0.45 0.154,0.674 0.058,0.257 0.116,0.515 0.168,0.773 0.08,0.389 0.174,0.789 0.175,1.188 0,0.17 -0.023,0.35 -0.098,0.505 -0.063,0.126 -0.16,0.274 -0.291,0.337 -0.22,0.106 -0.338,-0.196 -0.386,-0.352 -0.038,-0.128 -0.061,-0.26 -0.075,-0.392 -0.029,-0.254 -0.06,-0.507 -0.098,-0.76 -0.04,-0.264 -0.085,-0.527 -0.126,-0.79 -0.036,-0.239 -0.051,-0.483 -0.095,-0.72 -0.033,-0.18 -0.093,-0.354 -0.138,-0.53 -0.04,-0.155 -0.081,-0.329 -0.053,-0.49 0.021,-0.12 0.086,-0.275 0.224,-0.289 0.123,-0.012 0.232,0.09 0.307,0.176 0.098,0.11 0.168,0.243 0.206,0.385 0.068,0.259 0.128,0.52 0.188,0.78 0.079,0.351 0.156,0.703 0.248,1.052 0.07,0.267 0.135,0.537 0.172,0.811 0.058,0.428 0.06,1.063 -0.485,1.15 C 0.131,0.239 0.112,0.16 0.164,0.151 0.736,0.06 0.631,-0.694 0.557,-1.105 0.51,-1.365 0.44,-1.62 0.374,-1.875 0.264,-2.293 0.181,-2.719 0.082,-3.14 0.034,-3.344 0,-3.565 -0.104,-3.749 -0.167,-3.861 -0.281,-4.024 -0.42,-4.043 c -0.167,-0.023 -0.188,0.26 -0.181,0.368 0.011,0.189 0.072,0.377 0.123,0.556 0.053,0.188 0.082,0.368 0.105,0.561 0.032,0.265 0.074,0.528 0.116,0.792 0.043,0.264 0.086,0.527 0.122,0.791 0.025,0.194 0.037,0.389 0.071,0.579 0.021,0.125 0.105,0.612 0.319,0.524 C 0.399,0.069 0.502,-0.129 0.549,-0.268 0.609,-0.447 0.608,-0.644 0.595,-0.83 0.582,-1.019 0.546,-1.205 0.511,-1.391 0.465,-1.636 0.417,-1.88 0.364,-2.123 0.271,-2.555 0.151,-2.983 0.08,-3.419 0.039,-3.67 0.003,-4.029 -0.244,-4.168 -0.305,-4.203 -0.378,-4.21 -0.447,-4.209 c -0.058,10e-4 -0.157,0.005 -0.202,0.048 -0.031,0.028 -0.006,0.108 0,0.141 0.019,0.117 0.038,0.233 0.054,0.351 0.123,0.901 0.307,1.794 0.389,2.701 0.025,0.281 0.052,0.575 0.154,0.84 0.036,0.093 0.091,0.207 0.188,0.249 0.11,0.048 0.25,-0.022 0.327,-0.1 C 0.652,-0.174 0.596,-0.541 0.564,-0.781 0.51,-1.204 0.456,-1.625 0.375,-2.044 0.304,-2.411 0.216,-2.774 0.141,-3.14 0.082,-3.424 0.02,-3.719 -0.113,-3.98 c -0.045,-0.091 -0.111,-0.199 -0.214,-0.23 -0.092,-0.028 -0.18,0.019 -0.214,0.106 -0.04,0.103 -0.029,0.228 -0.016,0.335 0.015,0.127 0.044,0.254 0.074,0.378 0.024,0.097 0.052,0.193 0.073,0.29 0.048,0.211 0.065,0.432 0.094,0.646 0.068,0.504 0.135,1.01 0.213,1.514 0.029,0.185 0.056,0.371 0.1,0.553 0.024,0.105 0.053,0.209 0.096,0.308 0.027,0.06 0.065,0.145 0.13,0.17 C 0.297,0.12 0.368,0.023 0.403,-0.026 0.497,-0.155 0.546,-0.294 0.557,-0.454 0.581,-0.807 0.476,-1.162 0.412,-1.506 0.37,-1.727 0.346,-1.951 0.306,-2.173 0.259,-2.433 0.201,-2.69 0.138,-2.947 0.06,-3.261 -0.016,-3.579 -0.138,-3.879 -0.172,-3.962 -0.336,-4.388 -0.465,-4.21 c -0.187,0.254 -0.065,0.651 0.007,0.925 0.044,0.173 0.098,0.344 0.148,0.517 0.05,0.176 0.085,0.352 0.116,0.534 0.089,0.523 0.149,1.051 0.206,1.579 0.022,0.212 0.044,0.424 0.067,0.637 C 0.084,0.033 0.006,0.052 0,0"
         style="fill:#000000;fill-opacity:1;fill-rule:nonzero;stroke:none"
         id="path4478" />
    </g>
    <g
       id="g4480"
       transform="matrix(0.35277777,0,0,-0.35277777,102.72106,138.77025)">
      <path
         d="m 0,0 c -0.082,-0.062 -0.123,-0.174 -0.159,-0.267 -0.058,-0.15 -0.099,-0.307 -0.127,-0.466 -0.026,-0.154 -0.093,-0.589 0.169,-0.586 -0.004,0.027 -0.008,0.053 -0.013,0.08 -0.031,-0.013 -0.058,-0.024 -0.092,-0.029 0.014,-0.009 0.027,-0.018 0.041,-0.028 -0.09,0.198 -0.077,0.457 -0.054,0.667 0.021,0.184 0.067,0.506 0.268,0.584 0.049,0.019 0.027,0.089 -0.024,0.077 -0.1,-0.021 -0.16,-0.117 -0.201,-0.203 -0.061,-0.132 -0.089,-0.28 -0.108,-0.423 -0.021,-0.154 -0.027,-0.31 -0.016,-0.465 0.006,-0.109 0.019,-0.235 0.077,-0.332 0.027,-0.045 0.096,-0.002 0.069,0.043 -0.048,0.08 -0.057,0.186 -0.064,0.277 -0.012,0.14 -0.007,0.282 0.008,0.423 0.015,0.134 0.04,0.271 0.089,0.398 0.03,0.08 0.078,0.185 0.17,0.205 C 0.025,-0.019 0.017,0.006 0.009,0.032 -0.217,-0.055 -0.28,-0.361 -0.31,-0.572 -0.342,-0.806 -0.358,-1.1 -0.259,-1.319 c 0.008,-0.016 0.021,-0.032 0.04,-0.03 0.041,0.006 0.075,0.016 0.113,0.032 0.041,0.018 0.035,0.08 -0.014,0.08 -0.277,-0.005 0.011,1.051 0.162,1.168 C 0.084,-0.037 0.042,0.032 0,0"
         style="fill:#000000;fill-opacity:1;fill-rule:nonzero;stroke:none"
         id="path4482" />
    </g>
    <g
       id="g4484"
       transform="matrix(0.35277777,0,0,-0.35277777,103.13,138.89686)">
      <path
         d="m 0,0 c 0.127,-0.166 0.136,-0.437 0.132,-0.635 -0.004,-0.187 -0.045,-0.53 -0.288,-0.546 0.01,-0.023 0.02,-0.046 0.031,-0.068 0.109,0.123 0.228,0.246 0.289,0.402 0.058,0.151 0.056,0.318 0.066,0.478 0.015,0.233 0.007,0.569 -0.304,0.568 -0.031,0 -0.047,-0.036 -0.032,-0.062 0.115,-0.206 0.188,-0.43 0.185,-0.668 -0.003,-0.239 -0.102,-0.465 -0.247,-0.652 -0.032,-0.041 0.027,-0.097 0.059,-0.055 0.156,0.201 0.254,0.43 0.268,0.686 0.015,0.257 -0.072,0.51 -0.197,0.732 C -0.049,0.16 -0.06,0.139 -0.07,0.119 0.2,0.119 0.158,-0.235 0.146,-0.42 0.137,-0.562 0.135,-0.708 0.078,-0.842 0.021,-0.977 -0.089,-1.086 -0.185,-1.193 c -0.023,-0.026 -0.005,-0.071 0.031,-0.069 0.269,0.017 0.342,0.324 0.362,0.543 0.013,0.146 0.003,0.294 -0.022,0.438 C 0.167,-0.171 0.138,-0.047 0.069,0.042 0.038,0.084 -0.032,0.042 0,0"
         style="fill:#000000;fill-opacity:1;fill-rule:nonzero;stroke:none"
         id="path4486" />
    </g>
    <g
       id="g4488"
       transform="matrix(0.35277777,0,0,-0.35277777,102.28545,138.26779)">
      <path
         d="m 0,0 c 0.15,-0.507 0.336,-1.005 0.467,-1.519 0.024,0.012 0.048,0.022 0.073,0.034 -0.368,0.56 -0.277,1.278 -0.558,1.873 -0.01,0.021 -0.038,0.023 -0.055,0.013 -0.102,-0.056 -0.104,-0.193 -0.095,-0.295 0.015,-0.185 0.074,-0.367 0.132,-0.543 0.065,-0.195 0.14,-0.387 0.215,-0.578 0.054,-0.135 0.114,-0.269 0.151,-0.409 0.026,0.007 0.052,0.015 0.078,0.023 -0.172,0.432 -0.294,0.881 -0.382,1.337 -0.007,0.039 -0.073,0.036 -0.079,-0.003 -0.022,-0.175 0.004,-0.353 0.036,-0.525 0.04,-0.215 0.101,-0.425 0.174,-0.63 0.055,-0.154 0.112,-0.347 0.253,-0.445 0.16,-0.111 0.374,-0.093 0.559,-0.119 0.002,0.027 0.005,0.054 0.008,0.08 -0.557,-0.055 -0.616,0.665 -0.676,1.061 -0.008,0.051 -0.089,0.048 -0.081,-0.004 0.068,-0.44 0.145,-1.2 0.76,-1.138 0.043,0.004 0.055,0.074 0.008,0.08 -0.167,0.023 -0.357,0.009 -0.508,0.091 -0.151,0.083 -0.207,0.307 -0.259,0.459 -0.062,0.177 -0.113,0.359 -0.151,0.543 -0.036,0.171 -0.066,0.354 -0.044,0.528 -0.025,0 -0.051,-0.001 -0.078,-0.002 0.088,-0.456 0.21,-0.905 0.382,-1.336 0.02,-0.048 0.092,-0.028 0.078,0.023 -0.033,0.125 -0.086,0.245 -0.133,0.365 -0.071,0.179 -0.14,0.357 -0.204,0.537 -0.061,0.173 -0.118,0.35 -0.149,0.53 -0.013,0.082 -0.045,0.25 0.047,0.301 -0.018,0.004 -0.037,0.009 -0.055,0.013 0.28,-0.596 0.187,-1.31 0.557,-1.873 0.026,-0.039 0.085,-0.011 0.073,0.033 C 0.414,-0.981 0.228,-0.484 0.078,0.024 0.063,0.074 -0.015,0.05 0,0"
         style="fill:#000000;fill-opacity:1;fill-rule:nonzero;stroke:none"
         id="path4490" />
    </g>
    <g
       id="g4492"
       transform="matrix(0.35277777,0,0,-0.35277777,103.55048,138.60748)">
      <path
         d="m 0,0 c -0.071,-0.196 -0.133,-0.397 -0.242,-0.577 -0.118,-0.196 -0.301,-0.308 -0.531,-0.32 -0.053,-0.002 -0.05,-0.082 0.002,-0.081 0.149,0.004 0.26,0.081 0.351,0.193 0.113,0.138 0.205,0.294 0.312,0.436 0.249,0.329 0.52,0.658 0.643,1.058 C 0.546,0.747 0.49,0.779 0.466,0.747 0.159,0.333 0.032,-0.178 -0.246,-0.608 c -0.029,-0.045 0.041,-0.08 0.071,-0.038 0.427,0.59 0.68,1.288 0.911,1.973 C 0.752,1.374 0.685,1.391 0.661,1.356 0.349,0.896 0.176,0.363 -0.026,-0.15 c -0.096,-0.244 -0.192,-0.506 -0.341,-0.723 -0.052,-0.076 -0.128,-0.145 -0.222,-0.159 -0.104,-0.016 -0.204,0.039 -0.287,0.093 -0.01,-0.025 -0.02,-0.05 -0.029,-0.075 0.193,-0.065 0.4,-0.071 0.562,0.066 0.181,0.152 0.278,0.391 0.379,0.598 C 0.195,-0.025 0.352,0.3 0.535,0.612 0.608,0.736 0.698,0.849 0.77,0.974 0.825,1.069 0.855,1.178 0.804,1.28 0.792,1.304 0.756,1.305 0.74,1.287 0.493,1.015 0.463,0.6 0.345,0.267 0.268,0.05 0.124,-0.132 -0.019,-0.31 c -0.148,-0.184 -0.305,-0.362 -0.442,-0.554 -0.03,-0.043 0.042,-0.081 0.071,-0.039 0.254,0.357 0.614,0.668 0.786,1.077 C 0.468,0.347 0.51,0.532 0.56,0.712 0.611,0.894 0.669,1.088 0.799,1.231 0.778,1.233 0.756,1.235 0.735,1.237 0.789,1.129 0.696,1.002 0.637,0.916 0.565,0.811 0.496,0.707 0.432,0.597 0.271,0.321 0.132,0.032 -0.008,-0.255 c -0.098,-0.202 -0.188,-0.428 -0.346,-0.593 -0.147,-0.153 -0.343,-0.151 -0.533,-0.087 -0.046,0.016 -0.065,-0.051 -0.029,-0.075 0.16,-0.104 0.347,-0.154 0.507,-0.027 0.079,0.063 0.134,0.15 0.181,0.237 0.074,0.138 0.138,0.282 0.199,0.427 0.238,0.569 0.411,1.174 0.761,1.69 C 0.707,1.327 0.682,1.336 0.657,1.345 0.429,0.667 0.177,-0.023 -0.246,-0.608 -0.223,-0.621 -0.199,-0.634 -0.175,-0.646 0.1,-0.223 0.222,0.284 0.524,0.69 0.501,0.703 0.479,0.715 0.455,0.728 0.341,0.352 0.086,0.039 -0.149,-0.27 -0.244,-0.395 -0.333,-0.521 -0.421,-0.651 -0.507,-0.777 -0.61,-0.894 -0.773,-0.897 c 0.001,-0.026 0.002,-0.054 0.002,-0.081 0.229,0.011 0.425,0.111 0.558,0.299 0.141,0.197 0.211,0.435 0.292,0.66 C 0.097,0.031 0.018,0.048 0,0"
         style="fill:#000000;fill-opacity:1;fill-rule:nonzero;stroke:none"
         id="path4494" />
    </g>
    <g
       id="g4496"
       transform="matrix(0.35277777,0,0,-0.35277777,102.09252,137.69745)">
      <path
         d="m 0,0 c -0.185,-0.152 -0.39,-0.276 -0.591,-0.403 -0.198,-0.125 -0.383,-0.26 -0.56,-0.413 -0.384,-0.33 -0.736,-0.695 -1.081,-1.062 -0.215,-0.227 -0.439,-0.444 -0.639,-0.684 -0.194,-0.234 -0.411,-0.515 -0.449,-0.826 -0.028,-0.221 0.094,-0.358 0.282,-0.453 0.243,-0.122 0.523,-0.173 0.789,-0.215 0.284,-0.046 0.57,-0.072 0.856,-0.097 0.302,-0.026 0.6,-0.071 0.901,-0.098 0.742,-0.07 1.491,-0.074 2.229,-0.187 0.002,0.026 0.005,0.053 0.008,0.08 -0.533,0.022 -1.064,0.054 -1.596,0.089 -0.464,0.032 -0.928,0.076 -1.393,0.081 -0.408,0.003 -0.822,-0.003 -1.224,0.08 -0.285,0.06 -0.66,0.183 -0.686,0.522 -0.021,0.288 0.149,0.582 0.295,0.817 0.143,0.23 0.309,0.443 0.481,0.651 0.588,0.71 1.343,1.237 2.109,1.735 0.17,0.111 0.341,0.22 0.511,0.331 0.034,0.023 0.018,0.075 -0.023,0.075 -0.193,-0.002 -0.352,-0.124 -0.505,-0.227 -0.195,-0.131 -0.399,-0.25 -0.593,-0.383 -0.392,-0.272 -0.753,-0.588 -1.097,-0.919 -0.349,-0.337 -0.675,-0.702 -0.947,-1.103 -0.184,-0.27 -0.369,-0.574 -0.458,-0.891 -0.034,-0.124 -0.048,-0.265 0.016,-0.382 0.079,-0.143 0.27,-0.161 0.415,-0.166 0.101,-0.004 0.202,0.003 0.304,0.005 0.123,0.002 0.247,-0.011 0.37,-0.02 0.293,-0.022 0.585,-0.049 0.875,-0.097 0.052,-0.008 0.07,0.071 0.019,0.079 -0.468,0.077 -0.953,0.127 -1.428,0.115 -0.154,-0.005 -0.391,-0.025 -0.486,0.127 -0.074,0.117 -0.018,0.291 0.023,0.41 0.117,0.343 0.335,0.672 0.548,0.961 0.293,0.396 0.639,0.753 1,1.087 0.303,0.28 0.62,0.542 0.961,0.774 0.164,0.112 0.335,0.212 0.502,0.321 0.147,0.097 0.298,0.225 0.484,0.227 -0.008,0.026 -0.015,0.051 -0.023,0.076 -0.752,-0.492 -1.524,-0.962 -2.176,-1.586 -0.252,-0.241 -0.48,-0.506 -0.691,-0.784 -0.182,-0.239 -0.354,-0.494 -0.47,-0.772 -0.092,-0.225 -0.158,-0.504 -0.012,-0.722 0.081,-0.12 0.222,-0.192 0.352,-0.246 0.174,-0.072 0.361,-0.109 0.547,-0.133 0.394,-0.052 0.792,-0.038 1.188,-0.046 0.491,-0.011 0.982,-0.062 1.471,-0.095 0.446,-0.029 0.893,-0.054 1.34,-0.072 0.045,-0.002 0.053,0.073 0.007,0.08 -0.506,0.077 -1.018,0.106 -1.53,0.136 -0.267,0.017 -0.536,0.035 -0.803,0.061 -0.177,0.017 -0.353,0.046 -0.53,0.064 -0.542,0.056 -1.094,0.077 -1.621,0.227 -0.172,0.05 -0.453,0.132 -0.507,0.331 -0.035,0.131 0.023,0.285 0.076,0.401 0.073,0.158 0.174,0.301 0.281,0.437 0.2,0.256 0.433,0.485 0.658,0.719 0.333,0.343 0.659,0.691 1.015,1.011 0.2,0.179 0.408,0.34 0.634,0.485 0.215,0.136 0.433,0.268 0.631,0.431 C 0.099,-0.023 0.04,0.033 0,0"
         style="fill:#000000;fill-opacity:1;fill-rule:nonzero;stroke:none"
         id="path4498" />
    </g>
    <g
       id="g4500"
       transform="matrix(0.35277777,0,0,-0.35277777,103.18528,139.33198)">
      <path
         d="m 0,0 c 0.537,-0.039 1.047,-0.212 1.561,-0.363 0.511,-0.151 1.037,-0.248 1.544,-0.415 0.27,-0.09 0.52,-0.235 0.804,-0.28 0.112,-0.017 0.235,-0.015 0.33,0.052 0.115,0.081 0.135,0.241 0.138,0.37 0.002,0.164 -0.036,0.329 -0.072,0.488 C 4.268,0.016 4.233,0.18 4.199,0.345 4.119,0.739 4.025,1.133 3.859,1.501 3.531,2.23 2.967,2.825 2.516,3.476 2.501,3.455 2.486,3.435 2.472,3.415 2.646,3.364 2.76,3.18 2.85,3.036 2.948,2.879 3.033,2.713 3.126,2.554 3.371,2.138 3.6,1.713 3.771,1.261 3.884,0.96 4.016,0.668 4.113,0.36 4.206,0.062 4.308,-0.32 4.163,-0.619 4.032,-0.889 3.7,-0.909 3.438,-0.878 3.134,-0.844 2.84,-0.745 2.551,-0.647 2.419,-0.604 2.287,-0.565 2.154,-0.522 1.921,-0.447 1.696,-0.351 1.469,-0.259 1.042,-0.087 0.598,0.08 0.131,0.072 c -0.034,0 -0.053,-0.047 -0.027,-0.07 0.147,-0.126 0.331,-0.193 0.513,-0.25 0.206,-0.063 0.415,-0.112 0.62,-0.179 0.504,-0.163 1,-0.348 1.5,-0.522 0.268,-0.093 0.536,-0.227 0.821,-0.254 0.12,-0.01 0.238,0.002 0.343,0.064 0.117,0.069 0.18,0.196 0.217,0.321 C 4.222,-0.469 4.189,-0.08 4.116,0.271 4.037,0.653 3.889,1.019 3.723,1.371 3.539,1.761 3.33,2.14 3.104,2.507 2.999,2.676 2.893,2.843 2.767,2.996 2.637,3.155 2.5,3.308 2.405,3.49 2.381,3.476 2.359,3.462 2.336,3.448 2.848,2.658 3.426,1.912 3.838,1.062 4.024,0.679 4.186,0.27 4.239,-0.154 4.261,-0.331 4.27,-0.535 4.198,-0.702 4.142,-0.832 4.023,-0.896 3.888,-0.914 3.698,-0.936 3.501,-0.884 3.318,-0.84 3.007,-0.766 2.698,-0.685 2.39,-0.597 1.705,-0.401 1.021,-0.192 0.311,-0.106 0.26,-0.1 0.24,-0.179 0.292,-0.186 c 1.016,-0.122 1.983,-0.486 2.974,-0.726 0.247,-0.059 0.56,-0.152 0.803,-0.035 0.296,0.143 0.283,0.543 0.248,0.82 C 4.242,0.476 3.954,1.055 3.658,1.579 3.283,2.243 2.819,2.851 2.405,3.49 2.375,3.535 2.312,3.494 2.336,3.448 2.441,3.245 2.597,3.08 2.739,2.903 2.894,2.709 3.021,2.491 3.147,2.279 3.398,1.856 3.63,1.417 3.814,0.961 3.989,0.532 4.114,0.073 4.098,-0.393 4.092,-0.585 4.069,-0.809 3.96,-0.973 3.887,-1.084 3.76,-1.124 3.632,-1.125 3.423,-1.127 3.213,-1.041 3.021,-0.968 2.725,-0.855 2.425,-0.754 2.126,-0.647 1.767,-0.52 1.407,-0.387 1.04,-0.28 0.745,-0.194 0.401,-0.146 0.16,0.062 0.152,0.038 0.143,0.015 0.133,-0.009 0.625,-0.001 1.09,-0.193 1.538,-0.374 1.875,-0.511 2.219,-0.622 2.563,-0.737 2.854,-0.835 3.149,-0.93 3.456,-0.962 3.706,-0.987 3.994,-0.965 4.167,-0.76 4.363,-0.529 4.324,-0.182 4.268,0.091 4.197,0.432 4.062,0.757 3.93,1.08 3.775,1.46 3.62,1.836 3.422,2.199 3.316,2.394 3.199,2.582 3.092,2.776 3.001,2.937 2.915,3.101 2.802,3.249 2.722,3.355 2.621,3.456 2.49,3.494 2.457,3.503 2.426,3.461 2.446,3.433 2.98,2.665 3.651,1.97 3.938,1.061 4.071,0.643 4.142,0.208 4.238,-0.219 4.281,-0.411 4.325,-0.624 4.271,-0.818 4.233,-0.956 4.11,-0.991 3.98,-0.984 3.754,-0.972 3.531,-0.863 3.325,-0.778 3.022,-0.652 2.703,-0.572 2.385,-0.493 1.981,-0.393 1.582,-0.285 1.184,-0.165 0.795,-0.049 0.403,0.052 -0.003,0.082 -0.055,0.085 -0.052,0.003 0,0"
         style="fill:#000000;fill-opacity:1;fill-rule:nonzero;stroke:none"
         id="path4502" />
    </g>
    <g
       id="g4504"
       transform="matrix(0.35277777,0,0,-0.35277777,101.28293,139.09047)">
      <path
         d="M 0,0 C 0.101,0.142 0.133,0.326 0.161,0.494 0.192,0.677 0.206,0.864 0.247,1.045 0.258,1.097 0.183,1.113 0.167,1.063 0.054,0.689 0.043,0.294 -0.044,-0.086 -0.018,-0.092 0.009,-0.098 0.036,-0.104 0.078,0.282 0.004,0.964 0.507,1.067 0.626,1.091 0.776,1.088 0.896,1.064 1.017,1.04 1.037,0.939 1.035,0.83 1.03,0.533 0.927,0.236 0.861,-0.051 0.849,-0.102 0.928,-0.121 0.94,-0.07 0.991,0.154 1.004,0.384 1.06,0.608 1.112,0.816 1.215,1.051 1.465,1.041 1.59,1.037 1.726,0.979 1.798,0.874 1.863,0.778 1.866,0.652 1.859,0.541 1.842,0.29 1.741,0.055 1.702,-0.192 1.694,-0.24 1.751,-0.258 1.777,-0.221 1.945,0.021 1.961,0.347 1.959,0.631 1.958,0.725 1.945,0.835 1.987,0.923 2.042,1.038 2.235,0.981 2.323,0.948 2.75,0.785 2.481,0.193 2.436,-0.119 2.428,-0.169 2.502,-0.188 2.515,-0.137 2.598,0.203 2.862,0.803 2.38,0.969 2.223,1.023 1.947,1.082 1.904,0.861 1.875,0.718 1.879,0.568 1.858,0.423 1.827,0.208 1.773,-0.004 1.698,-0.208 1.725,-0.214 1.751,-0.221 1.777,-0.227 1.892,0.171 2.122,0.9 1.549,1.051 0.994,1.197 0.842,0.351 0.867,-0.03 0.871,-0.082 0.952,-0.079 0.949,-0.026 0.926,0.318 1.045,1.1 1.549,0.967 2.043,0.837 1.792,0.118 1.698,-0.208 1.683,-0.26 1.76,-0.275 1.777,-0.227 1.891,0.082 1.949,0.404 1.972,0.732 1.976,0.787 1.968,0.899 2.032,0.925 2.125,0.965 2.279,0.921 2.369,0.887 2.771,0.734 2.505,0.166 2.436,-0.119 2.462,-0.125 2.489,-0.131 2.515,-0.137 2.568,0.226 2.834,0.82 2.363,1.019 2.259,1.062 2.107,1.1 2.001,1.046 1.908,0.999 1.887,0.898 1.879,0.802 1.854,0.468 1.91,0.11 1.706,-0.182 1.73,-0.191 1.756,-0.201 1.781,-0.211 1.824,0.06 1.933,0.316 1.943,0.593 1.947,0.715 1.924,0.841 1.851,0.94 1.77,1.048 1.634,1.101 1.505,1.118 0.936,1.197 0.942,0.334 0.866,-0.026 0.865,-0.035 0.863,-0.042 0.861,-0.051 0.887,-0.058 0.914,-0.063 0.94,-0.07 0.978,0.094 1.021,0.255 1.056,0.419 1.09,0.578 1.128,0.749 1.114,0.913 1.09,1.192 0.762,1.172 0.553,1.155 -0.055,1.104 0.005,0.353 -0.044,-0.086 -0.049,-0.137 0.023,-0.157 0.036,-0.104 0.123,0.276 0.133,0.671 0.247,1.045 0.22,1.051 0.194,1.057 0.167,1.063 0.128,0.89 0.113,0.712 0.085,0.536 0.06,0.367 0.03,0.181 -0.071,0.039 -0.101,-0.004 -0.029,-0.042 0,0"
         style="fill:#000000;fill-opacity:1;fill-rule:nonzero;stroke:none"
         id="path4506" />
    </g>
    <g
       id="g4508"
       transform="matrix(0.35277777,0,0,-0.35277777,103.41921,139.24999)">
      <path
         d="M 0,0 C 0.086,0.354 0.281,0.872 0.741,0.722 1.236,0.562 0.936,-0.027 0.837,-0.363 0.863,-0.37 0.89,-0.375 0.916,-0.382 0.953,-0.155 0.974,0.079 1.063,0.292 1.103,0.387 1.161,0.476 1.251,0.53 1.358,0.594 1.497,0.574 1.61,0.537 1.828,0.464 1.839,0.237 1.805,0.044 1.767,-0.175 1.679,-0.382 1.628,-0.598 1.615,-0.65 1.692,-0.667 1.707,-0.617 c 0.054,0.178 0.076,0.366 0.126,0.545 0.042,0.147 0.12,0.449 0.313,0.46 C 2.24,0.394 2.341,0.316 2.377,0.233 2.425,0.119 2.398,-0.021 2.37,-0.137 2.31,-0.386 2.193,-0.622 2.068,-0.843 2.092,-0.856 2.116,-0.869 2.14,-0.882 2.266,-0.654 2.35,-0.39 2.377,-0.132 2.402,0.105 2.358,0.366 2.102,0.445 1.593,0.604 1.624,-0.372 1.537,-0.642 1.524,-0.681 1.58,-0.708 1.605,-0.679 1.779,-0.481 1.836,-0.187 1.828,0.069 1.82,0.317 1.723,0.586 1.47,0.675 1.208,0.767 0.955,0.637 0.845,0.395 0.729,0.14 0.73,-0.153 0.683,-0.425 0.678,-0.449 0.673,-0.473 0.668,-0.497 0.657,-0.548 0.735,-0.567 0.747,-0.516 0.813,-0.233 0.917,0.046 0.91,0.341 0.904,0.59 0.739,0.823 0.468,0.81 0.24,0.799 0.115,0.552 0.047,0.366 -0.03,0.151 -0.074,-0.1 -0.05,-0.328 c 0.001,-0.007 0.002,-0.013 0.003,-0.02 0.006,-0.051 0.088,-0.048 0.081,0.004 C 0.006,-0.145 0.043,0.067 0.098,0.258 0.148,0.436 0.244,0.68 0.446,0.725 0.549,0.748 0.669,0.689 0.739,0.617 0.824,0.527 0.832,0.384 0.829,0.267 0.821,0.006 0.727,-0.245 0.668,-0.497 0.695,-0.503 0.721,-0.509 0.747,-0.516 0.833,-0.129 0.774,0.688 1.374,0.614 1.636,0.581 1.731,0.312 1.746,0.083 1.761,-0.154 1.707,-0.44 1.547,-0.623 1.57,-0.635 1.593,-0.648 1.616,-0.66 1.68,-0.46 1.686,-0.243 1.728,-0.038 1.762,0.128 1.83,0.415 2.055,0.373 2.315,0.325 2.319,0.024 2.289,-0.183 2.256,-0.411 2.179,-0.642 2.068,-0.843 2.043,-0.889 2.114,-0.928 2.14,-0.882 2.274,-0.644 2.396,-0.389 2.458,-0.121 2.511,0.115 2.484,0.382 2.217,0.461 2.006,0.523 1.877,0.289 1.814,0.127 1.73,-0.086 1.695,-0.313 1.644,-0.537 1.639,-0.557 1.634,-0.578 1.628,-0.598 1.654,-0.604 1.681,-0.61 1.707,-0.617 1.788,-0.275 2.145,0.425 1.645,0.61 1.397,0.702 1.161,0.636 1.028,0.406 0.896,0.176 0.879,-0.107 0.837,-0.363 0.828,-0.415 0.901,-0.432 0.916,-0.382 1.029,0.003 1.318,0.602 0.78,0.794 0.263,0.979 0.02,0.425 -0.079,0.019 -0.091,-0.033 -0.012,-0.051 0,0"
         style="fill:#000000;fill-opacity:1;fill-rule:nonzero;stroke:none"
         id="path4510" />
    </g>
    <g
       id="g4512"
       transform="matrix(0.35277777,0,0,-0.35277777,103.60371,135.17633)">
      <path
         d="m 0,0 c 0.203,-0.048 0.411,-0.062 0.619,-0.059 -0.008,0.025 -0.015,0.05 -0.023,0.075 -0.203,-0.141 -0.52,-0.09 -0.738,-0.01 0.005,-0.024 0.009,-0.049 0.013,-0.074 0.09,0.054 0.222,0.025 0.32,0.016 0.11,-0.011 0.224,-0.02 0.329,0.019 C 0.556,-0.02 0.56,0.037 0.518,0.045 0.262,0.093 -0.011,-0.034 -0.246,0.112 -0.255,0.087 -0.265,0.062 -0.274,0.037 -0.042,-0.019 0.192,-0.04 0.431,-0.034 0.469,-0.033 0.486,0.026 0.449,0.042 0.273,0.118 0.075,0.116 -0.098,0.199 -0.104,0.174 -0.109,0.148 -0.116,0.123 0.039,0.121 0.185,0.063 0.34,0.068 0.385,0.07 0.393,0.139 0.347,0.148 0.195,0.182 0.042,0.213 -0.107,0.26 -0.109,0.233 -0.112,0.207 -0.115,0.18 0.003,0.169 0.119,0.148 0.237,0.156 0.286,0.16 0.287,0.222 0.245,0.237 0.162,0.266 0.083,0.304 -0.003,0.322 -0.006,0.296 -0.009,0.269 -0.011,0.242 0.104,0.247 0.215,0.209 0.327,0.189 0.364,0.182 0.397,0.23 0.364,0.258 0.29,0.319 0.209,0.37 0.122,0.41 0.112,0.385 0.103,0.359 0.093,0.334 0.162,0.316 0.232,0.321 0.302,0.311 0.337,0.307 0.375,0.354 0.339,0.38 0.285,0.42 0.245,0.457 0.178,0.476 0.172,0.45 0.166,0.423 0.159,0.397 0.231,0.38 0.291,0.39 0.363,0.402 0.404,0.409 0.415,0.454 0.38,0.479 0.341,0.507 0.306,0.541 0.267,0.569 0.261,0.544 0.255,0.519 0.249,0.493 0.298,0.496 0.345,0.496 0.394,0.486 0.4,0.513 0.406,0.54 0.413,0.565 0.304,0.585 0.24,0.543 0.149,0.492 0.131,0.482 0.124,0.454 0.136,0.437 0.213,0.332 0.318,0.269 0.437,0.219 0.442,0.245 0.449,0.27 0.455,0.295 0.406,0.291 0.36,0.276 0.312,0.272 0.282,0.27 0.26,0.237 0.278,0.21 0.349,0.104 0.457,0.054 0.581,0.038 0.587,0.064 0.593,0.091 0.6,0.117 0.492,0.129 0.384,0.142 0.277,0.163 0.271,0.138 0.265,0.111 0.259,0.084 0.324,0.075 0.388,0.073 0.453,0.071 0.5,0.069 0.504,0.142 0.46,0.151 0.328,0.18 0.195,0.208 0.065,0.248 0.062,0.221 0.06,0.194 0.057,0.167 0.163,0.174 0.267,0.182 0.369,0.21 0.401,0.219 0.41,0.271 0.377,0.285 0.279,0.326 0.176,0.358 0.082,0.407 0.085,0.386 0.088,0.365 0.092,0.344 0.141,0.401 0.207,0.404 0.278,0.4 0.33,0.396 0.327,0.477 0.274,0.48 0.183,0.487 0.095,0.473 0.033,0.4 0.016,0.38 0.019,0.349 0.043,0.336 0.138,0.287 0.24,0.255 0.338,0.213 0.34,0.238 0.342,0.263 0.345,0.289 0.25,0.261 0.153,0.254 0.054,0.249 0.007,0.247 0.003,0.182 0.046,0.169 0.177,0.13 0.309,0.1 0.442,0.072 0.445,0.099 0.447,0.125 0.45,0.152 0.392,0.154 0.334,0.155 0.277,0.163 0.226,0.171 0.207,0.095 0.259,0.084 0.365,0.062 0.473,0.05 0.581,0.038 0.632,0.032 0.652,0.11 0.6,0.117 0.498,0.13 0.406,0.164 0.348,0.253 0.336,0.232 0.325,0.211 0.314,0.191 0.363,0.195 0.409,0.209 0.458,0.214 0.494,0.217 0.515,0.273 0.475,0.29 0.372,0.334 0.273,0.386 0.205,0.479 L 0.192,0.423 C 0.261,0.462 0.311,0.502 0.394,0.486 0.445,0.477 0.464,0.556 0.413,0.565 0.356,0.576 0.303,0.577 0.246,0.574 0.202,0.572 0.197,0.521 0.228,0.498 0.267,0.47 0.302,0.436 0.342,0.407 0.348,0.433 0.354,0.458 0.36,0.483 0.296,0.473 0.243,0.46 0.178,0.476 0.126,0.488 0.109,0.412 0.159,0.397 0.211,0.381 0.242,0.352 0.284,0.321 0.296,0.345 0.308,0.367 0.321,0.39 0.251,0.4 0.18,0.396 0.112,0.414 0.068,0.425 0.041,0.357 0.083,0.338 0.164,0.301 0.239,0.255 0.308,0.199 0.321,0.222 0.333,0.245 0.346,0.268 0.226,0.29 0.109,0.329 -0.015,0.324 -0.06,0.322 -0.067,0.253 -0.022,0.244 0.064,0.226 0.144,0.187 0.227,0.158 0.229,0.185 0.231,0.211 0.234,0.238 0.116,0.229 0,0.25 -0.118,0.261 -0.167,0.265 -0.167,0.193 -0.125,0.181 0.023,0.134 0.176,0.103 0.329,0.069 0.331,0.097 0.334,0.123 0.336,0.149 0.182,0.144 0.035,0.202 -0.119,0.204 -0.159,0.205 -0.172,0.146 -0.137,0.128 0.037,0.044 0.234,0.047 0.41,-0.029 0.416,-0.004 0.422,0.021 0.428,0.047 0.196,0.042 -0.03,0.062 -0.256,0.116 -0.302,0.127 -0.323,0.065 -0.285,0.041 -0.036,-0.114 0.232,0.016 0.499,-0.034 0.499,-0.007 0.498,0.019 0.497,0.044 0.285,-0.033 0.025,0.121 -0.172,0.001 -0.206,-0.019 -0.191,-0.062 -0.16,-0.073 0.078,-0.16 0.417,-0.206 0.639,-0.053 0.672,-0.03 0.657,0.023 0.616,0.022 0.414,0.02 0.215,0.033 0.018,0.08 -0.033,0.092 -0.051,0.012 0,0"
         style="fill:#000000;fill-opacity:1;fill-rule:nonzero;stroke:none"
         id="path4514" />
    </g>
    <g
       id="g4516"
       transform="matrix(0.35277777,0,0,-0.35277777,101.47516,138.14206)">
      <path
         d="M 0,0 C 0.059,0.216 0.073,0.441 0.117,0.661 0.14,0.774 0.176,0.885 0.23,0.988 0.269,1.062 0.328,1.154 0.408,1.189 0.524,1.241 0.593,1.042 0.621,0.966 0.668,0.832 0.694,0.687 0.707,0.544 0.733,0.549 0.76,0.554 0.786,0.558 0.748,0.724 0.727,0.892 0.675,1.054 0.637,1.171 0.555,1.366 0.397,1.314 0.314,1.287 0.254,1.201 0.209,1.131 0.146,1.034 0.116,0.913 0.089,0.802 0.031,0.564 0.018,0.319 -0.036,0.082 -0.047,0.031 0.032,0.012 0.043,0.063 0.081,0.228 0.096,0.396 0.128,0.562 0.159,0.729 0.198,0.942 0.341,1.051 0.482,1.157 0.556,0.987 0.597,0.875 0.647,0.739 0.671,0.595 0.731,0.465 0.753,0.417 0.822,0.46 0.801,0.507 0.727,0.67 0.652,1.309 0.341,1.145 0.173,1.056 0.113,0.861 0.072,0.688 0.023,0.488 0.01,0.282 -0.036,0.082 -0.009,0.076 0.017,0.07 0.043,0.063 0.088,0.258 0.103,0.458 0.141,0.654 0.177,0.847 0.224,1.107 0.401,1.226 0.59,1.353 0.685,0.637 0.709,0.535 0.719,0.489 0.792,0.502 0.788,0.548 0.774,0.709 0.742,0.872 0.686,1.023 0.646,1.133 0.568,1.288 0.429,1.277 0.241,1.265 0.129,0.987 0.08,0.841 -0.009,0.576 -0.006,0.289 -0.079,0.019 -0.093,-0.032 -0.014,-0.05 0,0"
         style="fill:#000000;fill-opacity:1;fill-rule:nonzero;stroke:none"
         id="path4518" />
    </g>
    <g
       id="g4520"
       transform="matrix(0.35277777,0,0,-0.35277777,104.43517,138.48189)">
      <path
         d="M 0,0 C 0.076,0.113 0.163,0.226 0.274,0.305 0.313,0.333 0.362,0.357 0.41,0.347 0.478,0.331 0.497,0.22 0.509,0.166 0.572,-0.136 0.514,-0.504 0.379,-0.778 0.355,-0.825 0.427,-0.864 0.45,-0.817 0.531,-0.655 0.583,-0.48 0.618,-0.303 0.653,-0.124 0.67,0.069 0.625,0.249 0.595,0.362 0.516,0.447 0.393,0.425 0.249,0.399 0.136,0.236 0.064,0.123 0.036,0.079 0.107,0.041 0.136,0.084 0.2,0.184 0.285,0.304 0.403,0.344 0.545,0.392 0.565,0.151 0.569,0.067 0.584,-0.215 0.504,-0.526 0.379,-0.778 0.402,-0.791 0.426,-0.804 0.45,-0.817 0.537,-0.641 0.58,-0.448 0.6,-0.254 0.617,-0.078 0.629,0.149 0.548,0.313 0.382,0.646 0.031,0.192 -0.071,0.039 -0.1,-0.004 -0.029,-0.043 0,0"
         style="fill:#000000;fill-opacity:1;fill-rule:nonzero;stroke:none"
         id="path4522" />
    </g>
    <g
       id="g4524"
       transform="matrix(0.35277777,0,0,-0.35277777,101.32427,139.78586)">
      <path
         d="M 0,0 C -0.029,0.198 -0.062,0.396 -0.077,0.596 -0.094,0.822 -0.12,1.12 0.012,1.319 0.062,1.396 0.164,1.423 0.249,1.388 0.334,1.353 0.35,1.239 0.355,1.158 0.373,0.894 0.292,0.617 0.217,0.367 0.181,0.245 0.141,0.124 0.097,0.003 0.086,-0.029 0.131,-0.062 0.158,-0.041 0.313,0.084 0.377,0.32 0.422,0.504 0.478,0.737 0.505,1.003 0.43,1.236 0.375,1.402 0.2,1.572 0.009,1.507 -0.161,1.448 -0.171,1.184 -0.179,1.04 -0.193,0.754 -0.16,0.465 -0.132,0.182 c 0.013,-0.128 0.026,-0.257 0.037,-0.385 0.006,-0.086 0.016,-0.178 0.002,-0.263 0.023,0.006 0.046,0.013 0.069,0.02 -0.057,0.065 -0.08,0.163 -0.101,0.243 -0.036,0.132 -0.056,0.267 -0.07,0.402 -0.03,0.278 -0.036,0.577 0.045,0.846 0.028,0.092 0.074,0.191 0.162,0.239 C 0.068,1.314 0.137,1.309 0.175,1.257 0.223,1.191 0.231,1.098 0.237,1.02 0.245,0.902 0.237,0.783 0.224,0.667 0.199,0.433 0.152,0.202 0.095,-0.026 0.057,-0.176 0.022,-0.341 -0.048,-0.481 -0.072,-0.527 0,-0.566 0.023,-0.52 0.101,-0.365 0.14,-0.183 0.182,-0.016 0.243,0.235 0.291,0.491 0.312,0.749 0.327,0.92 0.349,1.158 0.24,1.306 0.137,1.445 -0.052,1.374 -0.139,1.256 -0.222,1.141 -0.253,0.994 -0.273,0.855 -0.298,0.679 -0.298,0.498 -0.287,0.32 c 0.011,-0.169 0.034,-0.34 0.074,-0.505 0.026,-0.109 0.057,-0.233 0.132,-0.32 0.02,-0.023 0.063,-0.009 0.067,0.02 0.033,0.2 -0.011,0.42 -0.032,0.62 C -0.074,0.416 -0.105,0.699 -0.1,0.982 -0.097,1.099 -0.102,1.434 0.076,1.436 0.325,1.438 0.385,1.157 0.392,0.961 0.398,0.773 0.364,0.583 0.311,0.404 0.274,0.28 0.221,0.114 0.116,0.029 0.136,0.014 0.157,0 0.176,-0.015 0.251,0.193 0.318,0.403 0.369,0.619 0.42,0.835 0.49,1.118 0.401,1.333 0.33,1.507 0.098,1.53 -0.027,1.4 -0.181,1.241 -0.172,0.945 -0.166,0.741 -0.159,0.49 -0.118,0.244 -0.081,-0.004 -0.074,-0.055 0.008,-0.053 0,0"
         style="fill:#000000;fill-opacity:1;fill-rule:nonzero;stroke:none"
         id="path4526" />
    </g>
    <g
       id="g4528"
       transform="matrix(0.35277777,0,0,-0.35277777,101.60918,139.83239)">
      <path
         d="m 0,0 c -0.029,0.226 -0.04,0.455 -0.035,0.683 0.002,0.135 0.012,0.27 0.037,0.402 0.019,0.098 0.046,0.207 0.116,0.281 0.069,0.074 0.164,0.043 0.241,0 C 0.473,1.301 0.535,1.188 0.547,1.061 0.575,0.778 0.418,0.483 0.293,0.241 0.211,0.082 0.118,-0.072 0.042,-0.234 0.022,-0.275 0.074,-0.315 0.107,-0.281 0.249,-0.135 0.332,0.084 0.403,0.27 0.498,0.516 0.576,0.782 0.574,1.047 0.572,1.258 0.482,1.467 0.253,1.5 -0.016,1.541 -0.054,1.194 -0.061,1.005 -0.066,0.833 -0.06,0.667 -0.081,0.497 -0.109,0.27 -0.16,0.034 -0.126,-0.195 c 0.008,-0.052 0.089,-0.049 0.081,0.003 -0.03,0.205 0.009,0.416 0.036,0.62 0.022,0.16 0.03,0.318 0.029,0.481 C 0.018,1.101 0.032,1.542 0.338,1.39 0.543,1.289 0.5,0.962 0.468,0.782 0.42,0.516 0.324,0.254 0.201,0.013 0.159,-0.069 0.113,-0.158 0.048,-0.225 0.07,-0.241 0.092,-0.256 0.113,-0.273 0.228,-0.028 0.374,0.201 0.483,0.449 0.584,0.677 0.689,0.963 0.596,1.21 0.531,1.382 0.296,1.567 0.11,1.463 -0.067,1.364 -0.089,1.069 -0.105,0.894 -0.133,0.598 -0.119,0.292 -0.081,-0.003 -0.074,-0.055 0.007,-0.052 0,0"
         style="fill:#000000;fill-opacity:1;fill-rule:nonzero;stroke:none"
         id="path4530" />
    </g>
    <g
       id="g4532"
       transform="matrix(0.35277777,0,0,-0.35277777,101.88632,139.82583)">
      <path
         d="M 0,0 C -0.02,0.172 -0.015,0.346 0.003,0.517 0.021,0.69 0.053,0.873 0.132,1.029 0.186,1.136 0.308,1.31 0.448,1.283 0.579,1.258 0.601,1.09 0.589,0.986 0.562,0.716 0.421,0.454 0.306,0.213 0.203,-0.002 0.065,-0.228 0.018,-0.464 0.008,-0.51 0.068,-0.532 0.093,-0.493 0.187,-0.339 0.248,-0.157 0.309,0.012 0.398,0.26 0.475,0.516 0.511,0.778 0.534,0.942 0.56,1.183 0.423,1.308 0.291,1.428 0.118,1.344 0.049,1.205 -0.012,1.083 -0.028,0.94 -0.04,0.807 -0.057,0.63 -0.057,0.453 -0.055,0.277 c 0.002,-0.171 0.008,-0.341 0.009,-0.512 0.001,-0.11 0.007,-0.231 -0.026,-0.338 -0.015,-0.05 0.064,-0.068 0.079,-0.018 0.025,0.079 0.025,0.167 0.028,0.249 0.003,0.126 -0.001,0.253 -0.004,0.38 C 0.025,0.321 0.013,0.609 0.05,0.891 0.068,1.028 0.11,1.324 0.312,1.277 0.491,1.235 0.449,0.922 0.433,0.796 0.398,0.54 0.321,0.288 0.235,0.045 0.176,-0.123 0.115,-0.302 0.021,-0.454 0.046,-0.463 0.071,-0.473 0.097,-0.482 0.12,-0.366 0.173,-0.256 0.223,-0.149 0.29,-0.005 0.361,0.138 0.429,0.282 0.542,0.523 0.69,0.81 0.672,1.084 0.665,1.196 0.595,1.324 0.482,1.358 0.341,1.4 0.218,1.29 0.137,1.187 0.034,1.055 -0.014,0.894 -0.047,0.731 -0.085,0.538 -0.099,0.337 -0.092,0.141 -0.091,0.092 -0.087,0.044 -0.082,-0.003 -0.076,-0.055 0.005,-0.052 0,0"
         style="fill:#000000;fill-opacity:1;fill-rule:nonzero;stroke:none"
         id="path4534" />
    </g>
    <g
       id="g4536"
       transform="matrix(0.35277777,0,0,-0.35277777,101.58349,139.86478)">
      <path
         d="M 0,0 C 0.013,-0.08 0.023,-0.159 0.031,-0.239 0.036,-0.29 0.117,-0.288 0.112,-0.235 0.104,-0.155 0.094,-0.076 0.082,0.003 0.073,0.054 -0.008,0.051 0,0"
         style="fill:#000000;fill-opacity:1;fill-rule:nonzero;stroke:none"
         id="path4538" />
    </g>
    <g
       id="g4540"
       transform="matrix(0.35277777,0,0,-0.35277777,103.34774,140.07631)">
      <path
         d="M 0,0 C 0.005,0.215 -0.022,0.43 -0.019,0.645 -0.017,0.778 -0.008,0.912 0.02,1.042 0.042,1.141 0.078,1.255 0.161,1.321 0.244,1.389 0.363,1.376 0.454,1.332 0.543,1.289 0.585,1.197 0.598,1.103 0.63,0.85 0.52,0.575 0.425,0.346 0.327,0.105 0.203,-0.122 0.093,-0.357 0.071,-0.404 0.143,-0.443 0.165,-0.396 0.344,-0.014 0.528,0.374 0.619,0.789 0.657,0.967 0.694,1.196 0.587,1.359 0.498,1.499 0.272,1.535 0.138,1.44 0.027,1.36 -0.008,1.208 -0.024,1.081 -0.049,0.886 -0.035,0.687 -0.016,0.493 0.003,0.295 0.033,0.099 0.06,-0.099 0.077,-0.224 0.112,-0.368 0.091,-0.495 0.083,-0.546 0.162,-0.565 0.17,-0.513 0.183,-0.438 0.173,-0.36 0.165,-0.284 0.152,-0.165 0.134,-0.045 0.118,0.074 0.079,0.351 0.04,0.63 0.045,0.911 0.048,1.069 0.061,1.375 0.268,1.407 0.475,1.439 0.569,1.283 0.573,1.1 0.581,0.811 0.466,0.514 0.363,0.249 0.282,0.042 0.187,-0.157 0.093,-0.357 0.117,-0.37 0.141,-0.383 0.165,-0.396 0.367,0.039 0.638,0.474 0.681,0.962 0.698,1.165 0.633,1.363 0.425,1.43 0.205,1.501 0.044,1.368 -0.028,1.168 -0.165,0.794 -0.072,0.383 -0.081,-0.003 -0.083,-0.055 -0.001,-0.052 0,0"
         style="fill:#000000;fill-opacity:1;fill-rule:nonzero;stroke:none"
         id="path4542" />
    </g>
    <g
       id="g4544"
       transform="matrix(0.35277777,0,0,-0.35277777,103.65726,140.1488)">
      <path
         d="M 0,0 C 0.002,0.177 -0.032,0.352 -0.055,0.526 -0.076,0.697 -0.099,0.888 -0.031,1.051 0.026,1.187 0.157,1.334 0.313,1.337 0.449,1.34 0.525,1.196 0.533,1.08 0.552,0.825 0.388,0.558 0.264,0.349 0.139,0.137 -0.01,-0.059 -0.14,-0.267 -0.167,-0.312 -0.096,-0.35 -0.068,-0.306 0.059,-0.108 0.182,0.091 0.29,0.3 0.408,0.53 0.53,0.791 0.533,1.054 0.536,1.283 0.347,1.466 0.11,1.418 -0.014,1.393 -0.069,1.257 -0.09,1.147 -0.125,0.966 -0.099,0.772 -0.106,0.589 -0.116,0.355 -0.135,0.121 -0.107,-0.113 c 0.006,-0.051 0.087,-0.048 0.081,0.004 -0.026,0.223 -0.011,0.448 0,0.673 0.005,0.113 0.008,0.227 0.005,0.34 -10e-4,0.081 -0.002,0.16 0.013,0.241 0.012,0.063 0.036,0.13 0.087,0.17 C 0.142,1.364 0.231,1.344 0.298,1.317 0.396,1.278 0.441,1.19 0.45,1.089 0.472,0.833 0.33,0.559 0.218,0.338 0.111,0.129 -0.013,-0.07 -0.14,-0.267 -0.116,-0.28 -0.092,-0.293 -0.068,-0.306 0.079,-0.07 0.247,0.152 0.385,0.395 0.511,0.618 0.666,0.909 0.6,1.173 0.57,1.296 0.464,1.399 0.339,1.416 0.186,1.437 0.047,1.318 -0.036,1.204 -0.266,0.89 -0.109,0.458 -0.083,0.106 -0.081,0.07 -0.081,0.034 -0.081,-0.003 -0.082,-0.055 -0.001,-0.052 0,0"
         style="fill:#000000;fill-opacity:1;fill-rule:nonzero;stroke:none"
         id="path4546" />
    </g>
    <g
       id="g4548"
       transform="matrix(0.35277777,0,0,-0.35277777,103.88964,140.24786)">
      <path
         d="M 0,0 C 0.031,0.173 0.03,0.354 0.05,0.528 0.075,0.759 0.105,1.007 0.206,1.22 0.238,1.29 0.286,1.366 0.364,1.389 0.444,1.414 0.547,1.351 0.596,1.291 0.745,1.105 0.582,0.784 0.496,0.609 0.326,0.266 0.083,-0.028 -0.105,-0.357 c -0.023,-0.04 0.036,-0.083 0.064,-0.048 0.235,0.28 0.43,0.599 0.561,0.94 0.061,0.157 0.103,0.32 0.117,0.489 C 0.648,1.156 0.636,1.3 0.545,1.403 0.479,1.479 0.376,1.479 0.293,1.434 0.173,1.368 0.107,1.217 0.073,1.092 -0.01,0.796 -0.006,0.463 0.013,0.159 0.016,0.107 0.098,0.11 0.094,0.163 0.078,0.425 0.082,0.695 0.126,0.955 0.148,1.087 0.187,1.214 0.278,1.316 0.354,1.403 0.456,1.406 0.517,1.305 0.583,1.195 0.562,1.037 0.543,0.917 0.518,0.758 0.463,0.603 0.4,0.455 0.275,0.166 0.103,-0.107 -0.099,-0.349 -0.077,-0.364 -0.056,-0.38 -0.034,-0.396 0.222,0.051 0.611,0.456 0.717,0.977 0.758,1.181 0.699,1.385 0.487,1.459 0.307,1.521 0.185,1.376 0.119,1.227 0.027,1.014 -0.003,0.774 -0.029,0.547 -0.049,0.373 -0.048,0.191 -0.079,0.019 -0.088,-0.033 -0.009,-0.052 0,0"
         style="fill:#000000;fill-opacity:1;fill-rule:nonzero;stroke:none"
         id="path4550" />
    </g>
    <g
       id="g4552"
       transform="matrix(0.35277777,0,0,-0.35277777,102.29836,141.11601)">
      <path
         d="M 0,0 C 0.032,0.459 -0.035,0.918 -0.057,1.377 -0.076,1.796 -0.074,2.267 0.171,2.626 0.388,2.945 0.767,3.161 1.144,3.215 1.484,3.264 1.861,3.152 2.055,2.853 2.214,2.607 2.178,2.29 2.108,2.021 2.031,1.726 1.898,1.449 1.762,1.177 1.574,0.801 1.343,0.461 1.1,0.119 0.836,-0.253 0.577,-0.639 0.451,-1.082 0.446,-1.099 0.441,-1.118 0.437,-1.135 c -0.01,-0.038 0.042,-0.067 0.069,-0.037 0.306,0.34 0.5,0.759 0.707,1.162 C 1.439,0.428 1.732,0.829 1.947,1.273 2.218,1.835 2.362,2.675 1.763,3.087 1.52,3.253 1.184,3.299 0.896,3.262 0.69,3.236 0.5,3.147 0.355,2.999 0.031,2.666 -0.018,2.135 -0.028,1.697 -0.041,1.15 0.029,0.604 0.104,0.063 0.161,-0.351 0.251,-0.779 0.241,-1.2 0.268,-1.198 0.294,-1.198 0.322,-1.196 0.291,-0.715 0.094,-0.267 0.02,0.206 -0.056,0.684 -0.032,1.178 0.03,1.656 0.11,2.292 0.358,3.125 1.104,3.229 1.415,3.271 1.802,3.183 2.032,2.958 2.216,2.778 2.244,2.512 2.211,2.27 2.174,1.99 2.067,1.723 1.951,1.468 1.805,1.15 1.64,0.839 1.458,0.541 1.255,0.208 1.02,-0.1 0.796,-0.418 0.574,-0.736 0.437,-1.104 0.245,-1.439 0.222,-1.479 0.282,-1.524 0.31,-1.487 c 0.138,0.189 0.168,0.411 0.209,0.635 0.008,0.046 -0.05,0.067 -0.075,0.029 C 0.368,-0.937 0.337,-1.071 0.276,-1.192 0.252,-1.239 0.324,-1.278 0.348,-1.231 0.409,-1.11 0.439,-0.977 0.515,-0.862 0.49,-0.853 0.465,-0.843 0.44,-0.833 0.401,-1.041 0.378,-1.255 0.251,-1.431 c 0.021,-0.016 0.043,-0.031 0.065,-0.047 0.127,0.221 0.231,0.454 0.35,0.68 0.119,0.228 0.27,0.43 0.42,0.638 0.279,0.385 0.53,0.785 0.748,1.208 0.127,0.245 0.249,0.495 0.342,0.756 0.087,0.244 0.153,0.511 0.12,0.771 C 2.222,3.184 1.484,3.417 0.958,3.282 0.285,3.109 0.042,2.337 -0.042,1.73 -0.11,1.245 -0.133,0.746 -0.07,0.258 -0.005,-0.236 0.208,-0.701 0.241,-1.2 0.244,-1.252 0.32,-1.249 0.322,-1.196 0.327,-1.008 0.303,-0.818 0.28,-0.631 0.249,-0.376 0.21,-0.122 0.176,0.132 0.1,0.693 0.03,1.263 0.057,1.83 0.078,2.257 0.158,2.79 0.541,3.049 0.734,3.181 0.976,3.205 1.204,3.186 1.547,3.156 1.865,2.993 2.011,2.669 2.283,2.067 1.937,1.376 1.63,0.865 1.431,0.531 1.23,0.203 1.054,-0.144 0.88,-0.484 0.705,-0.83 0.447,-1.116 0.47,-1.129 0.493,-1.141 0.516,-1.154 0.633,-0.695 0.902,-0.301 1.171,0.08 1.414,0.423 1.646,0.762 1.833,1.138 1.968,1.406 2.095,1.679 2.178,1.967 2.253,2.231 2.289,2.527 2.18,2.787 2.062,3.071 1.772,3.248 1.476,3.295 1.12,3.351 0.749,3.226 0.459,3.024 0.313,2.922 0.187,2.794 0.087,2.648 -0.021,2.49 -0.074,2.308 -0.106,2.121 -0.185,1.67 -0.129,1.205 -0.095,0.753 -0.077,0.501 -0.063,0.249 -0.082,-0.003 -0.085,-0.055 -0.004,-0.052 0,0"
         style="fill:#000000;fill-opacity:1;fill-rule:nonzero;stroke:none"
         id="path4554" />
    </g>
    <g
       id="g4556"
       transform="matrix(0.35277777,0,0,-0.35277777,102.63357,140.04822)">
      <path
         d="m 0,0 c -0.269,-0.256 -0.327,-0.597 -0.293,-0.954 0.033,-0.365 0.156,-0.735 0.098,-1.105 0.024,0.005 0.049,0.009 0.073,0.013 -0.107,0.19 -0.128,0.432 -0.14,0.646 -0.015,0.281 0.008,0.567 0.078,0.839 0.059,0.227 0.162,0.477 0.367,0.607 C 0.326,0.137 0.595,0.164 0.71,0.011 0.811,-0.123 0.756,-0.332 0.713,-0.476 0.643,-0.714 0.528,-0.941 0.411,-1.16 0.292,-1.382 0.163,-1.598 0.033,-1.814 c -0.082,-0.137 -0.178,-0.275 -0.238,-0.424 -0.019,-0.049 0.042,-0.083 0.071,-0.039 0.261,0.381 0.41,0.824 0.637,1.224 0.146,0.258 0.328,0.569 0.242,0.876 -0.04,0.14 -0.154,0.263 -0.291,0.312 -0.133,0.048 -0.28,-0.009 -0.391,-0.083 -0.128,-0.086 -0.23,-0.215 -0.296,-0.353 -0.073,-0.151 -0.072,-0.31 -0.047,-0.472 0.059,-0.386 0.274,-0.763 0.169,-1.16 -0.014,-0.05 0.066,-0.069 0.079,-0.019 0.102,0.384 -0.079,0.754 -0.156,1.123 -0.037,0.18 -0.042,0.356 0.043,0.522 C -0.07,-0.16 0.056,-0.025 0.208,0.04 0.376,0.112 0.531,0.039 0.625,-0.109 0.717,-0.253 0.689,-0.433 0.639,-0.586 0.589,-0.742 0.504,-0.887 0.423,-1.029 0.313,-1.223 0.22,-1.425 0.126,-1.627 c -0.098,-0.21 -0.2,-0.419 -0.331,-0.611 0.024,-0.013 0.048,-0.026 0.071,-0.039 0.064,0.157 0.166,0.303 0.253,0.449 0.136,0.225 0.271,0.453 0.394,0.687 0.117,0.223 0.228,0.455 0.294,0.699 0.042,0.158 0.073,0.361 -0.033,0.503 -0.112,0.15 -0.346,0.162 -0.512,0.111 -0.216,-0.066 -0.355,-0.268 -0.441,-0.465 -0.108,-0.249 -0.149,-0.524 -0.164,-0.793 -0.014,-0.255 0.001,-0.517 0.063,-0.764 0.02,-0.083 0.048,-0.165 0.089,-0.239 0.018,-0.03 0.069,-0.023 0.074,0.012 0.105,0.665 -0.399,1.474 0.177,2.021 C 0.097,-0.02 0.038,0.036 0,0"
         style="fill:#000000;fill-opacity:1;fill-rule:nonzero;stroke:none"
         id="path4558" />
    </g>
  </g>
</svg>
